<svg version="1.1" viewBox="0 0 24 24" xmlns="http://www.w3.org/2000/svg" xmlns:xlink="http://www.w3.org/1999/xlink" x="0px" y="0px"  style="fill: transparent;">
<path d="M21.3457 2.6556C17.7946 -0.885201 12.036 -0.885201 8.50894 2.6556C6.02557 5.11616 5.28176 8.65696 6.24152 11.7777L0.602952 17.4189C0.207053 17.827 -0.0688772 18.6312 0.0151014 19.2074L0.37501 21.8239C0.506976 22.6881 1.31077 23.5043 2.17455 23.6244L4.78989 23.9844C5.36574 24.0685 6.16954 23.8044 6.57743 23.3843L7.56118 22.4001C7.80112 22.172 7.80112 21.7879 7.56118 21.5479L5.23377 19.2194C4.88586 18.8713 4.88586 18.2951 5.23377 17.9471C5.58169 17.599 6.15754 17.599 6.50545 17.9471L8.84485 20.2876C9.0728 20.5156 9.4567 20.5156 9.68464 20.2876L12.228 17.755C15.3352 18.7272 18.8743 17.9711 21.3457 15.5105C24.8848 11.9697 24.8848 6.1964 21.3457 2.6556ZM14.9993 11.9937C13.3437 11.9937 12.0001 10.6494 12.0001 8.99304C12.0001 7.33666 13.3437 5.99236 14.9993 5.99236C16.6549 5.99236 17.9985 7.33666 17.9985 8.99304C17.9985 10.6494 16.6549 11.9937 14.9993 11.9937Z" fill="#141414"/>
</svg>
