<svg version="1.1" viewBox="0 0 24 24" xmlns="http://www.w3.org/2000/svg" xmlns:xlink="http://www.w3.org/1999/xlink" x="0px" y="0px"  style="fill: transparent;">
<path fill-rule="evenodd" clip-rule="evenodd" d="M10.7577 0.25C7.15975 0.25 4.24264 3.16731 4.24151 6.76649C4.2298 10.3553 7.12767 13.2743 10.7172 13.2872L10.7214 13.2872H10.7577C14.3573 13.2872 17.275 10.3689 17.275 6.76858C17.275 3.16828 14.3573 0.25 10.7577 0.25Z" fill="#141414"/>
<path fill-rule="evenodd" clip-rule="evenodd" d="M10.7576 14.8329C8.48309 14.8329 6.23878 15.0004 4.52716 15.5744C3.66542 15.8633 2.85182 16.2832 2.24319 16.9151C1.60677 17.5758 1.24493 18.4188 1.24493 19.4092C1.24493 20.3972 1.60345 21.2402 2.23609 21.9032C2.84174 22.538 3.65252 22.962 4.51372 23.2548C6.22384 23.8363 8.46943 24.0102 10.7576 24.0102C13.0327 24.0102 15.277 23.8423 16.9885 23.2682C17.8502 22.9791 18.6636 22.5593 19.2721 21.9274C19.9084 21.2668 20.2702 20.4239 20.2702 19.4338C20.2702 18.4461 19.9117 17.6033 19.2792 16.9403C18.6737 16.3056 17.8631 15.8816 17.002 15.5887C15.292 15.0071 13.0464 14.8329 10.7576 14.8329Z" fill="#141414"/>
<path d="M21.6749 7.17973C22.3213 7.17973 22.8454 7.70388 22.8454 8.35045V9.52689H24.0698C24.7162 9.52689 25.2403 10.051 25.2403 10.6976C25.2403 11.3442 24.7162 11.8683 24.0698 11.8683H22.8454V13.045C22.8454 13.6916 22.3213 14.2158 21.6749 14.2158C21.0285 14.2158 20.5044 13.6916 20.5044 13.045V11.8683H19.2825C18.636 11.8683 18.112 11.3442 18.112 10.6976C18.112 10.051 18.636 9.52689 19.2825 9.52689H20.5044V8.35045C20.5044 7.70388 21.0285 7.17973 21.6749 7.17973Z" fill="#141414"/>
</svg>
