<svg version="1.1" viewBox="0 0 24 24" xmlns="http://www.w3.org/2000/svg" xmlns:xlink="http://www.w3.org/1999/xlink" x="0px" y="0px"  style="fill: transparent;">
<path d="M20.9988 1.98746C18.9719 0.0767012 15.8346 -1.42092 12.3488 2.24567L1.73632 13.4649C1.10202 14.1961 0.68597 15.0908 0.535644 16.047L0.0321341 20.2429C-0.0404909 20.7681 0.0103847 21.3029 0.180717 21.8049C0.351049 22.307 0.636142 22.7624 1.01333 23.1349C1.63538 23.6981 2.44646 24.0069 3.28558 23.9999C3.50652 23.9976 3.72684 23.976 3.94402 23.9353L8.13994 23.2382C9.08212 23.0591 9.95215 22.6107 10.6446 21.9471L19.3979 12.6386L19.527 12.5095L21.2699 10.6504C22.3707 9.63243 23.0828 8.26303 23.284 6.77726C23.2947 5.8573 23.0942 4.94714 22.6981 4.11678C22.3019 3.28641 21.7206 2.55797 20.9988 1.98746ZM8.74673 20.0622C8.44735 20.3377 8.08319 20.5331 7.68807 20.6302L3.53088 21.3403C3.40743 21.3723 3.27838 21.3761 3.15325 21.3515C3.02812 21.3269 2.9101 21.2746 2.80789 21.1983C2.72853 21.1073 2.67007 21.0001 2.63661 20.8841C2.60315 20.7681 2.59552 20.6462 2.61424 20.527L3.07902 16.3698C3.16988 15.9568 3.35061 15.5689 3.60835 15.2336L10.9286 7.48734C11.4215 8.60193 12.1322 9.60671 13.0191 10.4426C13.906 11.2785 14.951 11.9285 16.0928 12.3546L8.74673 20.0622ZM19.3979 8.88167L18.1069 10.2502C16.8705 10.0183 15.7267 9.43635 14.8113 8.57357C13.8959 7.71079 13.2473 6.6034 12.9426 5.38292L14.2337 4.01441C15.7571 2.38768 17.074 1.84544 19.2301 3.87239C19.6556 4.18242 20.0071 4.58287 20.2593 5.04496C20.5116 5.50706 20.6583 6.0193 20.689 6.54487C20.5329 7.44655 20.0782 8.26958 19.3979 8.88167Z" fill="#141414"/>
</svg>
