<svg version="1.1" viewBox="0 0 24 24" xmlns="http://www.w3.org/2000/svg" xmlns:xlink="http://www.w3.org/1999/xlink" x="0px" y="0px"  style="fill: transparent;">
<path fill-rule="evenodd" clip-rule="evenodd" d="M12 0C5.38 0 0 5.38 0 12C0 18.62 5.38 24 12 24C18.62 24 24 18.62 24 12C24 5.38 18.62 0 12 0ZM12.79 17.1C12.57 17.34 12.28 17.45 11.93 17.45C11.58 17.45 11.28 17.34 11.04 17.1C10.82 16.87 10.71 16.59 10.71 16.27C10.71 15.95 10.82 15.67 11.04 15.45C11.28 15.21 11.57 15.1 11.93 15.1C12.29 15.1 12.57 15.21 12.79 15.45C13.02 15.67 13.13 15.94 13.13 16.27C13.13 16.6 13.02 16.87 12.79 17.1ZM15.29 10.38C15.17 10.68 15.01 10.95 14.8 11.19C14.61 11.41 14.4 11.62 14.18 11.82C13.96 12.02 13.74 12.21 13.54 12.4C13.35 12.6 13.19 12.8 13.07 13.03C12.85 13.42 12.52 13.82 12.06 13.82H11.92C11.39 13.82 10.92 13.37 11.12 12.87C11.12 12.86 11.13 12.84 11.14 12.83C11.26 12.55 11.41 12.29 11.61 12.07C11.8 11.85 12 11.64 12.22 11.44C12.44 11.25 12.65 11.06 12.84 10.88C13.03 10.7 13.19 10.51 13.31 10.3C13.43 10.1 13.49 9.87 13.49 9.62C13.49 9.19 13.32 8.85 12.98 8.58C12.63 8.32 12.17 8.19 11.59 8.19C11.01 8.19 10.55 8.29 10.13 8.49C9.97 8.57 9.83 8.66 9.69 8.77C9.32 9.05 8.81 9.16 8.42 8.91C7.99 8.63 7.88 8.05 8.27 7.72C8.57 7.46 8.92 7.23 9.31 7.05C10 6.71 10.82 6.55 11.76 6.55C12.5 6.55 13.15 6.66 13.71 6.88C14.27 7.09 14.7 7.41 15.02 7.82C15.33 8.23 15.49 8.73 15.49 9.31C15.49 9.72 15.42 10.08 15.29 10.38Z" fill="#141414"/>
</svg>
