<svg version="1.1" viewBox="0 0 24 24" xmlns="http://www.w3.org/2000/svg" xmlns:xlink="http://www.w3.org/1999/xlink" x="0px" y="0px"  style="fill: transparent;">
<path d="M13.065 4.65494H3.73115C1.67962 4.65494 0 6.33455 0 8.38608V22.015C0 23.7546 1.24771 24.4984 2.77137 23.6466L7.48629 21.0192C7.99017 20.7433 8.80599 20.7433 9.29787 21.0192L14.0128 23.6466C15.5484 24.4864 16.7962 23.7546 16.7962 22.015V8.38608C16.7962 6.33455 15.1165 4.65494 13.065 4.65494Z" fill="#141414"/>
<path d="M23.9945 3.73115V17.36C23.9945 19.0996 22.7468 19.8315 21.2231 18.9917L18.9077 17.696C18.7157 17.588 18.5957 17.384 18.5957 17.1681V8.38608C18.5957 5.33878 16.1123 2.85535 13.065 2.85535H8.18213C7.73823 2.85535 7.4263 2.38745 7.63026 2.00354C8.25411 0.815814 9.50183 0 10.9295 0H20.2634C22.3149 0 23.9945 1.67962 23.9945 3.73115Z" fill="#141414"/>
</svg>
