<svg version="1.1" viewBox="0 0 24 24" xmlns="http://www.w3.org/2000/svg" xmlns:xlink="http://www.w3.org/1999/xlink" x="0px" y="0px"  style="fill: transparent;">
<path fill-rule="evenodd" clip-rule="evenodd" d="M18.6257 7.62215C19.1395 7.10831 19.9726 7.10831 20.4865 7.62215L23.8549 10.9905C24.3687 11.5044 24.3687 12.3375 23.8549 12.8513L20.4865 16.2197C19.9726 16.7336 19.1395 16.7336 18.6257 16.2197C18.1118 15.7059 18.1118 14.8728 18.6257 14.3589L21.0637 11.9209L18.6257 9.48294C18.1118 8.9691 18.1118 8.136 18.6257 7.62215Z" fill="#141414"/>
<path fill-rule="evenodd" clip-rule="evenodd" d="M8.1349 11.9204C8.1349 11.1937 8.72399 10.6046 9.45067 10.6046H22.8321C23.5588 10.6046 24.1479 11.1937 24.1479 11.9204C24.1479 12.6471 23.5588 13.2361 22.8321 13.2361H9.45067C8.72399 13.2361 8.1349 12.6471 8.1349 11.9204Z" fill="#141414"/>
<path fill-rule="evenodd" clip-rule="evenodd" d="M5.54442 5.06578C3.9224 6.60656 2.87179 8.88313 2.87179 11.842C2.87179 14.8009 3.9224 17.0774 5.54442 18.6182C7.17686 20.1689 9.47153 21.0524 12.0822 21.0524C12.8089 21.0524 13.398 21.6415 13.398 22.3682C13.398 23.0949 12.8089 23.684 12.0822 23.684C8.87719 23.684 5.90875 22.5939 3.73202 20.5262C1.54487 18.4486 0.240234 15.462 0.240234 11.842C0.240234 8.22197 1.54487 5.23543 3.73202 3.15782C5.90875 1.09012 8.87719 0 12.0822 0C12.8089 0 13.398 0.589093 13.398 1.31578C13.398 2.04246 12.8089 2.63155 12.0822 2.63155C9.47153 2.63155 7.17686 3.5151 5.54442 5.06578Z" fill="#141414"/>
</svg>
