<svg version="1.1" viewBox="0 0 24 24" xmlns="http://www.w3.org/2000/svg" xmlns:xlink="http://www.w3.org/1999/xlink" x="0px" y="0px"  style="fill: transparent;">
<path fill-rule="evenodd" clip-rule="evenodd" d="M23.6788 18.6248L14.4481 2.4109C14.1995 1.98181 13.8425 1.6256 13.4128 1.37797C12.9831 1.13034 12.4959 1 12 1C11.5041 1 11.0169 1.13034 10.5872 1.37797C10.1575 1.6256 9.80048 1.98181 9.55186 2.4109L0.321157 18.6248C0.0981418 19.0429 -0.012174 19.5119 0.00106571 19.9855C0.0143055 20.4592 0.150644 20.9212 0.396666 21.3262C0.642687 21.7312 0.989913 22.0651 1.40417 22.2952C1.81843 22.5252 2.28545 22.6434 2.75927 22.6382H21.2407C21.7146 22.6434 22.1816 22.5252 22.5958 22.2952C23.0101 22.0651 23.3573 21.7312 23.6033 21.3262C23.8494 20.9212 23.9857 20.4592 23.9989 19.9855C24.0122 19.5119 23.9019 19.0429 23.6788 18.6248ZM10.9064 9.5346C10.9064 9.24454 11.0216 8.96637 11.2267 8.76128C11.4318 8.55618 11.7099 8.44096 12 8.44096C12.2901 8.44096 12.5682 8.55618 12.7733 8.76128C12.9784 8.96637 13.0936 9.24454 13.0936 9.5346V14.8322C13.0936 15.1223 12.9784 15.4004 12.7733 15.6055C12.5682 15.8106 12.2901 15.9259 12 15.9259C11.7099 15.9259 11.4318 15.8106 11.2267 15.6055C11.0216 15.4004 10.9064 15.1223 10.9064 14.8322V9.5346ZM12 19.2569C11.7841 19.255 11.5737 19.1891 11.3952 19.0678C11.2166 18.9464 11.078 18.7749 10.9968 18.5749C10.9156 18.3749 10.8953 18.1553 10.9386 17.9439C10.982 17.7324 11.0869 17.5384 11.2403 17.3865C11.3936 17.2346 11.5885 17.1314 11.8003 17.09C12.0122 17.0486 12.2316 17.0708 12.4308 17.1539C12.6301 17.237 12.8003 17.3771 12.92 17.5568C13.0398 17.7364 13.1037 17.9474 13.1037 18.1633C13.1037 18.3078 13.0751 18.4508 13.0195 18.5841C12.9639 18.7175 12.8824 18.8385 12.7798 18.9402C12.6772 19.0419 12.5554 19.1222 12.4216 19.1766C12.2878 19.2309 12.1445 19.2583 12 19.2569Z" fill="#141414"/>
</svg>
