<svg version="1.1" viewBox="0 0 24 24" xmlns="http://www.w3.org/2000/svg" xmlns:xlink="http://www.w3.org/1999/xlink" x="0px" y="0px"  style="fill: transparent;">
<path d="M20.486 3.51542C18.1343 1.16379 15.0796 9.18381e-05 12.0007 9.18381e-05C8.93388 -0.01203 5.85494 1.17591 3.51542 3.51542C1.17591 5.85494 -0.01203 8.93388 9.18381e-05 12.0007C9.18381e-05 15.0796 1.16379 18.1343 3.51542 20.486C5.86706 22.8376 8.92176 24.0013 12.0007 24.0013C15.0675 24.0134 18.1465 22.8255 20.486 20.486C25.1771 15.7948 25.1771 8.20657 20.486 3.51542ZM13.2856 16.2191C13.2856 16.9464 12.7159 17.5161 11.9886 17.5161C11.637 17.5283 11.3098 17.3707 11.0794 17.1404C10.8491 16.91 10.7037 16.5949 10.7037 16.2312V13.2977H7.77019C7.40653 13.2977 7.09136 13.1523 6.86105 12.922C6.61861 12.6795 6.47315 12.3644 6.47315 12.0007C6.48527 11.2855 7.055 10.7158 7.77018 10.7037H10.7037V7.77018C10.7037 7.06712 11.2855 6.48527 12.0007 6.47315C12.7159 6.48527 13.2856 7.055 13.2977 7.77018L13.2856 10.7158L16.2312 10.7037C16.9464 10.7158 17.5161 11.2855 17.5283 12.0007C17.5161 12.7159 16.9464 13.2856 16.2312 13.2977H13.2977L13.2856 16.2191Z" fill="#141414"/>
</svg>
