<svg version="1.1" viewBox="0 0 24 24" xmlns="http://www.w3.org/2000/svg" xmlns:xlink="http://www.w3.org/1999/xlink" x="0px" y="0px"  style="fill: transparent;">
<path fill-rule="evenodd" clip-rule="evenodd" d="M23.26 9.93113L21.79 8.20916C21.7178 8.11135 21.6606 8.00339 21.62 7.88879C21.5773 7.77277 21.5504 7.65155 21.54 7.52837V5.67625C21.54 4.82566 21.2032 4.00976 20.6033 3.40736C20.0035 2.80496 19.1896 2.46521 18.34 2.46256H16.49C16.3668 2.45313 16.2456 2.42616 16.13 2.38247C16.0135 2.34368 15.9026 2.28983 15.8 2.22228L14.09 0.750595C13.5043 0.267256 12.769 0.00292969 12.01 0.00292969C11.251 0.00292969 10.5156 0.267256 9.92999 0.750595L8.19999 2.2323C8.10014 2.29836 7.9927 2.35215 7.87999 2.39248C7.76774 2.43577 7.64988 2.46274 7.52999 2.47257H5.63999C4.79038 2.47522 3.97647 2.81498 3.37664 3.41737C2.77681 4.01977 2.43999 4.83567 2.43999 5.68626V7.52837C2.43017 7.6484 2.40323 7.7664 2.35999 7.87878C2.32203 7.99259 2.26816 8.10045 2.19999 8.19914L0.729992 9.93113C0.250278 10.5181 -0.00811298 11.2552 -7.63874e-06 12.0135C-0.00919332 12.769 0.249462 13.5033 0.729992 14.0859L2.20999 15.8379V15.898L2.29999 16.1082C2.34445 16.2237 2.37142 16.3452 2.37999 16.4686V18.3308C2.37999 19.1814 2.71681 19.9973 3.31664 20.5997C3.91647 21.2021 4.73038 21.5418 5.57999 21.5445H7.54999C7.66956 21.5563 7.78715 21.5832 7.89999 21.6246C8.01367 21.6626 8.12141 21.7165 8.21999 21.7847L9.92999 23.2564C10.5141 23.739 11.2477 24.0029 12.005 24.0029C12.7623 24.0029 13.4959 23.739 14.08 23.2564L15.8 21.7747C15.9037 21.7093 16.0144 21.6556 16.13 21.6145C16.2422 21.5713 16.3601 21.5443 16.48 21.5345H18.33C19.1796 21.5318 19.9935 21.192 20.5933 20.5896C21.1932 19.9873 21.53 19.1714 21.53 18.3208V16.4987C21.5404 16.3755 21.5673 16.2543 21.61 16.1383C21.6506 16.0237 21.7078 15.9157 21.78 15.8179L23.24 14.1059C23.7358 13.5223 24.0056 12.7797 24 12.0135C24.0011 11.2546 23.7396 10.5188 23.26 9.93113ZM10.91 7.79868C10.91 7.50927 11.0248 7.2317 11.2292 7.02705C11.4337 6.8224 11.7109 6.70743 12 6.70743C12.2891 6.70743 12.5663 6.8224 12.7707 7.02705C12.9752 7.2317 13.09 7.50927 13.09 7.79868V13.0848C13.09 13.3742 12.9752 13.6517 12.7707 13.8564C12.5663 14.061 12.2891 14.176 12 14.176C11.7109 14.176 11.4337 14.061 11.2292 13.8564C11.0248 13.6517 10.91 13.3742 10.91 13.0848V7.79868ZM12 17.4998C11.7109 17.4998 11.4337 17.3848 11.2292 17.1802C11.0248 16.9755 10.91 16.698 10.91 16.4086C10.91 16.1191 11.0248 15.8416 11.2292 15.6369C11.4337 15.4323 11.7109 15.3173 12 15.3173C12.2891 15.3173 12.5663 15.4323 12.7707 15.6369C12.9752 15.8416 13.09 16.1191 13.09 16.4086C13.09 16.698 12.9752 16.9755 12.7707 17.1802C12.5663 17.3848 12.2891 17.4998 12 17.4998Z" fill="#141414"/>
</svg>
