<svg version="1.1" viewBox="0 0 24 24" xmlns="http://www.w3.org/2000/svg" xmlns:xlink="http://www.w3.org/1999/xlink" x="0px" y="0px"  style="fill: transparent;">
<path fill-rule="evenodd" clip-rule="evenodd" d="M21.0923 8.18182C20.8025 8.09182 17.2857 7.67182 17.1858 7.39182C16.906 7.39182 15.1076 3.44182 14.9477 3.21182C11.8805 -2.29818 8.5534 3.83182 7.30451 7.05182C7.01476 7.84182 3.68771 8.00182 3.0183 8.18182C-3.36604 10.0018 2.01919 14.0018 4.24722 16.7618C4.3771 19.0218 2.06915 22.6818 4.40707 24.4018C6.745 26.1218 9.80229 22.5818 12.0603 22.0518C12.39 21.8718 15.5072 23.9618 15.8369 24.0518C18.6145 26.0518 21.6618 23.8418 20.5927 20.5818C20.5028 19.9018 19.3938 16.9018 20.0932 16.3118C22.7608 14.1718 26.8272 9.39182 21.0923 8.18182Z" fill="#141414"/>
</svg>
