<svg version="1.1" viewBox="0 0 24 24" xmlns="http://www.w3.org/2000/svg" xmlns:xlink="http://www.w3.org/1999/xlink" x="0px" y="0px"  style="fill: transparent;">
<path d="M9.60001 21.6C9.60001 22.92 10.68 24 12 24C13.32 24 14.4 22.92 14.4 21.6C14.4 20.28 13.32 19.2 12 19.2C10.68 19.2 9.60001 20.28 9.60001 21.6Z" fill="#141414"/>
<path d="M9.60001 2.4C9.60001 3.72 10.68 4.8 12 4.8C13.32 4.8 14.4 3.72 14.4 2.4C14.4 1.08 13.32 -5.7699e-08 12 0C10.68 5.7699e-08 9.60001 1.08 9.60001 2.4Z" fill="#141414"/>
<path d="M9.60001 12C9.60001 13.32 10.68 14.4 12 14.4C13.32 14.4 14.4 13.32 14.4 12C14.4 10.68 13.32 9.6 12 9.6C10.68 9.6 9.60001 10.68 9.60001 12Z" fill="#141414"/>
</svg>
