<svg version="1.1" viewBox="0 0 24 24" xmlns="http://www.w3.org/2000/svg" xmlns:xlink="http://www.w3.org/1999/xlink" x="0px" y="0px"  style="fill: transparent;">
<path d="M23.4601 10.4884L21.8285 8.59285C21.5166 8.23294 21.2647 7.56111 21.2647 7.08123V5.04174C21.2647 3.77006 20.2209 2.72632 18.9493 2.72632H16.9098C16.4419 2.72632 15.7581 2.47438 15.3982 2.16246L13.5026 0.530867C12.6748 -0.176956 11.3192 -0.176956 10.4794 0.530867L8.59585 2.17446C8.23594 2.47438 7.55211 2.72632 7.08423 2.72632H5.00875C3.73707 2.72632 2.69333 3.77006 2.69333 5.04174V7.09323C2.69333 7.56111 2.44139 8.23294 2.14146 8.59285L0.52187 10.5004C-0.173956 11.3282 -0.173956 12.6718 0.52187 13.4996L2.14146 15.4071C2.44139 15.7671 2.69333 16.4389 2.69333 16.9068V18.9583C2.69333 20.2299 3.73707 21.2737 5.00875 21.2737H7.08423C7.55211 21.2737 8.23594 21.5256 8.59585 21.8375L10.4914 23.4691C11.3192 24.177 12.6748 24.177 13.5146 23.4691L15.4101 21.8375C15.7701 21.5256 16.4419 21.2737 16.9218 21.2737H18.9613C20.2329 21.2737 21.2767 20.2299 21.2767 18.9583V16.9188C21.2767 16.4509 21.5286 15.7671 21.8405 15.4071L23.4721 13.5116C24.168 12.6838 24.168 11.3162 23.4601 10.4884ZM16.9818 9.73257L11.1872 15.5271C11.0192 15.6951 10.7913 15.7911 10.5514 15.7911C10.3114 15.7911 10.0835 15.6951 9.91552 15.5271L7.01225 12.6238C6.66433 12.2759 6.66433 11.7001 7.01225 11.3522C7.36016 11.0042 7.93602 11.0042 8.28393 11.3522L10.5514 13.6196L15.7101 8.46089C16.058 8.11297 16.6338 8.11297 16.9818 8.46089C17.3297 8.8088 17.3297 9.38465 16.9818 9.73257Z" fill="#141414"/>
</svg>
