<svg version="1.1" viewBox="0 0 24 24" xmlns="http://www.w3.org/2000/svg" xmlns:xlink="http://www.w3.org/1999/xlink" x="0px" y="0px"  style="fill: transparent;">
<path d="M10.6989 14.3951C11.084 14.1375 11.5368 14 12 14C12.6189 14 13.2126 14.2452 13.6511 14.6818C14.0897 15.1185 14.3374 15.7111 14.34 16.33C14.342 16.7932 14.2064 17.2466 13.9505 17.6327C13.6946 18.0189 13.3298 18.3204 12.9024 18.499C12.475 18.6776 12.0042 18.7254 11.5497 18.6362C11.0951 18.5471 10.6772 18.325 10.349 17.9982C10.0207 17.6713 9.79684 17.2544 9.70573 16.8002C9.61463 16.346 9.66038 15.875 9.8372 15.4468C10.014 15.0187 10.3139 14.6526 10.6989 14.3951Z" fill="#141414"/>
<path fill-rule="evenodd" clip-rule="evenodd" d="M19.64 8.85C20.7387 8.94297 21.7758 9.3965 22.59 10.14C23.75 11.3 24 13.1 24 15.27V17.45C24 19.59 23.73 21.43 22.59 22.59C21.45 23.75 19.63 24 17.45 24H6.55C4.37 24 2.57 23.73 1.41 22.59C0.25 21.45 0 19.63 0 17.45V15.27C0 13.1 0.25 11.3 1.41 10.14C2.2242 9.3965 3.26133 8.94297 4.36 8.85V7.64C4.2327 5.75442 4.75114 3.88168 5.83 2.33C7.07 0.79 9.09 0 12 0C14.91 0 16.93 0.79 18.17 2.33C19.2489 3.88168 19.7673 5.75442 19.64 7.64V8.85ZM9.87772 19.5362C10.5059 19.956 11.2445 20.18 12 20.18C13.0131 20.18 13.9848 19.7775 14.7011 19.0611C15.4175 18.3448 15.82 17.3731 15.82 16.36C15.82 15.6045 15.596 14.8659 15.1762 14.2377C14.7565 13.6095 14.1599 13.1199 13.4619 12.8308C12.7638 12.5417 11.9958 12.466 11.2548 12.6134C10.5137 12.7608 9.83309 13.1246 9.29885 13.6589C8.76462 14.1931 8.40079 14.8737 8.2534 15.6148C8.106 16.3558 8.18165 17.1238 8.47078 17.8218C8.75991 18.5199 9.24953 19.1165 9.87772 19.5362ZM7.55 3.69C6.7855 4.85831 6.43351 6.24866 6.55 7.64V8.73H17.47V7.69C17.5979 6.282 17.2455 4.87216 16.47 3.69C15.8 2.86 14.54 2.18 12 2.18C9.46 2.18 8.2 2.86 7.55 3.69Z" fill="#141414"/>
</svg>
