<svg version="1.1" viewBox="0 0 24 24" xmlns="http://www.w3.org/2000/svg" xmlns:xlink="http://www.w3.org/1999/xlink" x="0px" y="0px"  style="fill: transparent;">
<path d="M9.54082 4.90909C9.54082 4.3066 10.0292 3.81818 10.6317 3.81818H14.9954C15.5979 3.81818 16.0863 4.3066 16.0863 4.90909C16.0863 5.51158 15.5979 6 14.9954 6H10.6317C10.0292 6 9.54082 5.51158 9.54082 4.90909Z" fill="#292D32"/>
<path fill-rule="evenodd" clip-rule="evenodd" d="M12.8138 15.2727C11.2774 15.2727 10.0319 16.5182 10.0319 18.0545C10.0319 19.5909 11.2774 20.8364 12.8138 20.8364C14.3501 20.8364 15.5956 19.5909 15.5956 18.0545C15.5956 16.5182 14.3501 15.2727 12.8138 15.2727ZM12.2138 18.0545C12.2138 17.7232 12.4824 17.4545 12.8138 17.4545C13.1451 17.4545 13.4138 17.7232 13.4138 18.0545C13.4138 18.3859 13.1451 18.6545 12.8138 18.6545C12.4824 18.6545 12.2138 18.3859 12.2138 18.0545Z" fill="#292D32"/>
<path fill-rule="evenodd" clip-rule="evenodd" d="M4.40579 1.41043C5.57089 0.24533 7.36679 0 9.54082 0H16.0863C18.2603 0 20.0562 0.24533 21.2213 1.41043C22.3864 2.57553 22.6317 4.37143 22.6317 6.54545V17.4545C22.6317 19.6286 22.3864 21.4245 21.2213 22.5896C20.0562 23.7547 18.2603 24 16.0863 24H9.54082C7.36679 24 5.57089 23.7547 4.40579 22.5896C3.24069 21.4245 2.99536 19.6286 2.99536 17.4545V6.54545C2.99536 4.37143 3.24069 2.57553 4.40579 1.41043ZM5.94857 2.95321C5.4773 3.42447 5.17718 4.35584 5.17718 6.54545V17.4545C5.17718 19.6442 5.4773 20.5755 5.94857 21.0468C6.41983 21.5181 7.3512 21.8182 9.54082 21.8182H16.0863C18.2759 21.8182 19.2073 21.5181 19.6785 21.0468C20.1498 20.5755 20.4499 19.6442 20.4499 17.4545V6.54545C20.4499 4.35584 20.1498 3.42447 19.6785 2.95321C19.2073 2.48194 18.2759 2.18182 16.0863 2.18182H9.54082C7.3512 2.18182 6.41983 2.48194 5.94857 2.95321Z" fill="#292D32"/>
</svg>
