<svg version="1.1" viewBox="0 0 24 24" xmlns="http://www.w3.org/2000/svg" xmlns:xlink="http://www.w3.org/1999/xlink" x="0px" y="0px"  style="fill: transparent;">
<path fill-rule="evenodd" clip-rule="evenodd" d="M11.6106 0C7.97568 0 5.02855 2.94676 5.02741 6.58227C5.01557 10.2073 7.94327 13.1558 11.5697 13.1688L11.5739 13.1688H11.6106C15.2473 13.1688 18.195 10.221 18.195 6.58438C18.195 2.94774 15.2473 0 11.6106 0ZM7.39249 6.58438C7.39249 4.25376 9.28151 2.36508 11.6106 2.36508C13.9411 2.36508 15.8299 4.25393 15.8299 6.58438C15.8299 8.91483 13.9411 10.8037 11.6106 10.8037H11.5761C9.25604 10.7943 7.38418 8.90771 7.39248 6.58862L7.39249 6.58438Z" fill="#141414"/>
<path fill-rule="evenodd" clip-rule="evenodd" d="M11.6105 14.7301C9.31263 14.7301 7.04523 14.8993 5.316 15.479C4.44539 15.7709 3.62342 16.195 3.00852 16.8333C2.36556 17.5007 2 18.3522 2 19.3526C2 20.3505 2.36221 21.2021 3.00135 21.8718C3.61323 22.513 4.43235 22.9412 5.30242 23.237C7.03014 23.8243 9.29883 24 11.6105 24C13.9091 24 16.1765 23.8304 17.9056 23.2505C18.7761 22.9586 19.5979 22.5345 20.2127 21.8962C20.8555 21.2289 21.221 20.3776 21.221 19.3775C21.221 18.3798 20.8588 17.5284 20.2199 16.8588C19.6081 16.2177 18.7891 15.7894 17.9192 15.4935C16.1916 14.906 13.9229 14.7301 11.6105 14.7301ZM4.36508 19.3526C4.36508 18.9765 4.4848 18.7098 4.71182 18.4741C4.9669 18.2094 5.39961 17.9455 6.06778 17.7215C7.41611 17.2694 9.36269 17.0951 11.6105 17.0951C13.8686 17.0951 15.8139 17.2757 17.1577 17.7327C17.8234 17.9591 18.2544 18.225 18.5088 18.4915C18.7359 18.7295 18.8559 18.9992 18.8559 19.3775C18.8559 19.7532 18.7363 20.0198 18.5093 20.2555C18.2543 20.5202 17.8216 20.7841 17.1535 21.0082C15.8054 21.4604 13.8588 21.6349 11.6105 21.6349C9.35284 21.6349 7.40755 21.4546 6.06362 20.9978C5.39786 20.7715 4.96674 20.5056 4.71234 20.239C4.4852 20.001 4.36508 19.7312 4.36508 19.3526Z" fill="#141414"/>
</svg>
