<svg version="1.1" viewBox="0 0 24 24" xmlns="http://www.w3.org/2000/svg" xmlns:xlink="http://www.w3.org/1999/xlink" x="0px" y="0px"  style="fill: transparent;">
<path fill-rule="evenodd" clip-rule="evenodd" d="M19.1658 12.4504C19.1537 17.2418 17.242 19.1656 12.4627 19.1656H6.71541C5.3494 19.2289 3.98719 18.9764 2.73467 18.4276C0.810851 17.4959 0.000183105 15.5963 0.000183105 12.4625V6.71523C0.000183105 1.92382 1.91191 0 6.70331 0H12.4506C16.2861 0 18.2947 1.20995 18.9238 4.21063C19.1001 5.02939 19.1813 5.86576 19.1658 6.70313V12.4504ZM14.4228 5.95296H4.74319C4.42229 5.95296 4.11454 6.08044 3.88763 6.30735C3.66072 6.53426 3.53324 6.84201 3.53324 7.16291C3.53324 7.48381 3.66072 7.79157 3.88763 8.01848C4.11454 8.24539 4.42229 8.37286 4.74319 8.37286H14.4228C14.7437 8.37286 15.0515 8.24539 15.2784 8.01848C15.5053 7.79157 15.6328 7.48381 15.6328 7.16291C15.6328 6.84201 15.5053 6.53426 15.2784 6.30735C15.0515 6.08044 14.7437 5.95296 14.4228 5.95296ZM3.88763 11.1472C3.66072 11.3741 3.53324 11.6818 3.53324 12.0027C3.53324 12.3236 3.66072 12.6314 3.88763 12.8583C4.11454 13.0852 4.42229 13.2127 4.74319 13.2127H10.793C11.1138 13.2127 11.4216 13.0852 11.6485 12.8583C11.8754 12.6314 12.0029 12.3236 12.0029 12.0027C12.0029 11.6818 11.8754 11.3741 11.6485 11.1472C11.4216 10.9202 11.1138 10.7928 10.793 10.7928H4.74319C4.42229 10.7928 4.11454 10.9202 3.88763 11.1472Z" fill="#141414"/>
<path d="M20.3637 7.91308C20.3791 7.07571 20.2979 6.23935 20.1217 5.42058C23.2192 6.48534 24.1992 8.67535 23.5579 12.6198L22.6142 18.2945C21.8277 23.0133 19.6256 24.5862 14.8947 23.8118L9.22002 22.8681C6.36454 22.3962 4.67061 21.3919 3.94464 19.6375C5.19716 20.1863 6.55937 20.4389 7.92538 20.3756H13.6605C18.4399 20.3635 20.3637 18.5002 20.3637 13.6604V7.91308Z" fill="#141414"/>
</svg>
