<svg version="1.1" viewBox="0 0 24 24" xmlns="http://www.w3.org/2000/svg" xmlns:xlink="http://www.w3.org/1999/xlink" x="0px" y="0px"  style="fill: transparent;">
<path fill-rule="evenodd" clip-rule="evenodd" d="M13.3889 8.98874C12.9778 9.26344 12.4945 9.41007 12 9.41007C11.337 9.41007 10.7011 9.14667 10.2322 8.67783C9.76339 8.20899 9.5 7.57311 9.5 6.91007C9.5 6.41561 9.64662 5.93226 9.92133 5.52114C10.196 5.11002 10.5865 4.78959 11.0433 4.60037C11.5001 4.41115 12.0028 4.36164 12.4877 4.4581C12.9727 4.55457 13.4181 4.79267 13.7678 5.1423C14.1174 5.49193 14.3555 5.93739 14.452 6.42234C14.5484 6.90729 14.4989 7.40996 14.3097 7.86677C14.1205 8.32359 13.8 8.71404 13.3889 8.98874ZM12.2778 6.49433C12.1956 6.43939 12.0989 6.41007 12 6.41007C11.8674 6.41007 11.7402 6.46274 11.6464 6.55651C11.5527 6.65028 11.5 6.77746 11.5 6.91007C11.5 7.00896 11.5293 7.10563 11.5843 7.18785C11.6392 7.27008 11.7173 7.33416 11.8087 7.37201C11.9 7.40985 12.0006 7.41975 12.0975 7.40046C12.1945 7.38117 12.2836 7.33355 12.3536 7.26362C12.4235 7.19369 12.4711 7.1046 12.4904 7.00761C12.5097 6.91062 12.4998 6.81009 12.4619 6.71872C12.4241 6.62736 12.36 6.54927 12.2778 6.49433Z" fill="#141414"/>
<path fill-rule="evenodd" clip-rule="evenodd" d="M23 18.9101V20.9101C23.2652 20.9101 23.5196 21.0154 23.7071 21.203C23.8946 21.3905 24 21.6449 24 21.9101C24 22.1753 23.8946 22.4296 23.7071 22.6172C23.5196 22.8047 23.2652 22.9101 23 22.9101H1C0.734784 22.9101 0.48043 22.8047 0.292893 22.6172C0.105357 22.4296 0 22.1753 0 21.9101C0 21.6449 0.105357 21.3905 0.292893 21.203C0.48043 21.0154 0.734784 20.9101 1 20.9101V18.9101C1 18.3796 1.21071 17.8709 1.58579 17.4959C1.96086 17.1208 2.46957 16.9101 3 16.9101V11.9101C2.46957 11.9101 1.96086 11.6994 1.58579 11.3243C1.21071 10.9492 1 10.4405 1 9.91007V6.59007C1.00405 6.19356 1.12587 5.8072 1.35 5.48007C1.5742 5.14713 1.89037 4.88656 2.26 4.73007L11.26 1.13007C11.7381 0.956642 12.2619 0.956642 12.74 1.13007L21.74 4.73007C22.1096 4.88656 22.4258 5.14713 22.65 5.48007C22.8741 5.8072 22.996 6.19356 23 6.59007V9.91007C23 10.4405 22.7893 10.9492 22.4142 11.3243C22.0391 11.6994 21.5304 11.9101 21 11.9101V16.9101C21.5304 16.9101 22.0391 17.1208 22.4142 17.4959C22.7893 17.8709 23 18.3796 23 18.9101ZM17 16.9101H19V11.9101H17V16.9101ZM13 11.9101V16.9101H15V11.9101H13ZM9 11.9101V16.9101H11V11.9101H9ZM12 3.00007L3 6.62007V9.91007H21V6.58007L12 3.00007ZM7 11.9101H5V16.9101H7V11.9101ZM3 18.9101V20.9101H21V18.9101H3Z" fill="#141414"/>
</svg>
