<svg version="1.1" viewBox="0 0 24 24" xmlns="http://www.w3.org/2000/svg" xmlns:xlink="http://www.w3.org/1999/xlink" x="0px" y="0px"  style="fill: transparent;">
<path fill-rule="evenodd" clip-rule="evenodd" d="M9.5757 16.038C10.2933 16.5175 11.137 16.7734 12 16.7734C13.1573 16.7734 14.2672 16.3137 15.0856 15.4954C15.9039 14.677 16.3636 13.5671 16.3636 12.4098C16.3636 11.5468 16.1077 10.7031 15.6282 9.9855C15.1488 9.2679 14.4672 8.7086 13.6699 8.37833C12.8725 8.04806 11.9952 7.96164 11.1487 8.13001C10.3022 8.29839 9.52471 8.71398 8.91444 9.32425C8.30418 9.93451 7.88858 10.712 7.72021 11.5585C7.55184 12.405 7.63825 13.2823 7.96853 14.0797C8.2988 14.877 8.8581 15.5586 9.5757 16.038ZM10.7878 10.5957C11.1466 10.3559 11.5685 10.228 12 10.228C12.5787 10.228 13.1336 10.4579 13.5428 10.867C13.952 11.2762 14.1818 11.8311 14.1818 12.4098C14.1818 12.8413 14.0539 13.2632 13.8141 13.622C13.5744 13.9808 13.2336 14.2604 12.8349 14.4255C12.4363 14.5907 11.9976 14.6339 11.5744 14.5497C11.1511 14.4655 10.7624 14.2577 10.4572 13.9526C10.1521 13.6474 9.94429 13.2587 9.86011 12.8355C9.77592 12.4122 9.81913 11.9735 9.98427 11.5749C10.1494 11.1762 10.4291 10.8354 10.7878 10.5957Z" fill="#141414"/>
<path fill-rule="evenodd" clip-rule="evenodd" d="M14.0513 23.4122C14.4931 23.6647 14.993 23.7979 15.5018 23.7989C15.9935 23.8084 16.4789 23.688 16.9091 23.4498L18.7964 22.3589C19.1616 22.151 19.4818 21.8725 19.7383 21.5395C19.9947 21.2066 20.1822 20.8258 20.2898 20.4196C20.3975 20.0134 20.4231 19.5897 20.3652 19.1735C20.3074 18.7572 20.1671 18.3567 19.9527 17.9952C19.836 17.8419 19.7565 17.6635 19.7206 17.4742C19.6846 17.2849 19.6931 17.0898 19.7455 16.9043C19.8833 16.7583 20.0548 16.6482 20.2449 16.5836C20.435 16.5189 20.6381 16.5017 20.8364 16.5334C21.6754 16.5334 22.4801 16.2001 23.0734 15.6068C23.6667 15.0135 24 14.2088 24 13.3698V11.4498C23.9974 10.6257 23.6733 9.83513 23.0968 9.24632C22.5202 8.65751 21.7366 8.31693 20.9127 8.29705C20.7154 8.32735 20.5137 8.31054 20.3241 8.24797C20.1345 8.1854 19.9624 8.07886 19.8218 7.93705C19.7712 7.75142 19.7635 7.55668 19.7994 7.36764C19.8353 7.17861 19.9139 7.00025 20.0291 6.84614C20.2435 6.48468 20.3837 6.08413 20.4416 5.66788C20.4995 5.25162 20.4739 4.828 20.3662 4.42177C20.2586 4.01553 20.071 3.63481 19.8146 3.30185C19.5582 2.96888 19.238 2.69034 18.8727 2.4825L16.9964 1.39159C16.3218 1.00888 15.5231 0.908799 14.7749 1.11322C14.0267 1.31764 13.3899 1.80993 13.0036 2.4825L12.8945 2.68977C12.6218 3.14796 12.2945 3.43159 12.0327 3.43159C11.7709 3.43159 11.4545 3.14796 11.1927 2.68977L11.0618 2.47159C10.6797 1.80052 10.0468 1.30864 9.30221 1.10407C8.55758 0.899502 7.7622 0.998998 7.09091 1.38068L5.20364 2.47159C4.83855 2.67959 4.51839 2.95799 4.26171 3.29066C4.00504 3.62333 3.81696 4.00364 3.70838 4.40955C3.5998 4.81546 3.57288 5.23888 3.62918 5.65527C3.68548 6.07166 3.82388 6.47273 4.03636 6.83523C4.15493 6.98764 4.23637 7.16558 4.27424 7.35493C4.31211 7.54428 4.30537 7.73984 4.25455 7.92614C4.114 8.06795 3.9419 8.17449 3.7523 8.23706C3.5627 8.29963 3.36098 8.31644 3.16364 8.28614C2.32459 8.28614 1.5199 8.61945 0.926608 9.21274C0.333311 9.80604 0 10.6107 0 11.4498V13.3698C0.00288676 14.2069 0.337471 15.0088 0.930456 15.5998C1.52344 16.1907 2.32647 16.5225 3.16364 16.5225C3.36193 16.4908 3.56497 16.508 3.75509 16.5727C3.94522 16.6373 4.11667 16.7474 4.25455 16.8934C4.30712 17.0795 4.31475 17.2755 4.27682 17.4651C4.23889 17.6548 4.15648 17.8327 4.03636 17.9843C3.62174 18.7126 3.51194 19.5754 3.73091 20.3843C3.83559 20.7865 4.01986 21.1637 4.27282 21.4935C4.52578 21.8233 4.84229 22.099 5.20364 22.3043L7.08 23.3952C7.40538 23.588 7.76577 23.7142 8.1403 23.7666C8.51482 23.8191 8.89602 23.7966 9.26182 23.7007C10.0092 23.5008 10.6479 23.0149 11.04 22.348L11.16 22.1407C11.4218 21.6825 11.7491 21.3989 12.0109 21.3989C12.1971 21.4526 12.369 21.5471 12.5143 21.6753C12.6596 21.8036 12.7745 21.9626 12.8509 22.1407L12.9818 22.3589C13.241 22.7968 13.6095 23.1598 14.0513 23.4122ZM13.6166 19.7637C13.1355 19.4417 12.5777 19.2531 12 19.217C11.4223 19.2531 10.8645 19.4417 10.3834 19.7637C9.90241 20.0856 9.51538 20.5294 9.26182 21.0498L9.15273 21.2461C9.10349 21.3319 9.03759 21.407 8.9589 21.467C8.88022 21.5269 8.79033 21.5705 8.69455 21.5952C8.60247 21.6186 8.50661 21.6228 8.41282 21.6078C8.31903 21.5928 8.22929 21.5588 8.14909 21.508L6.26182 20.417C6.1488 20.356 6.04972 20.272 5.97085 20.1706C5.89197 20.0692 5.83503 19.9525 5.80364 19.828C5.73716 19.5774 5.77245 19.3108 5.90182 19.0861C6.22292 18.6081 6.41219 18.0537 6.4505 17.4791C6.4888 16.9044 6.3748 16.3299 6.12 15.8134C5.80075 15.3298 5.35883 14.9397 4.83942 14.6829C4.32 14.426 3.74171 14.3117 3.16364 14.3516C2.90324 14.3516 2.65351 14.2482 2.46939 14.064C2.28526 13.8799 2.18182 13.6302 2.18182 13.3698V11.4498C2.18182 11.1894 2.28526 10.9397 2.46939 10.7555C2.65351 10.5714 2.90324 10.468 3.16364 10.468C3.74274 10.5067 4.32172 10.3907 4.84123 10.1319C5.36074 9.8731 5.80207 9.4808 6.12 8.99523C6.3748 8.47875 6.4888 7.90419 6.4505 7.32956C6.41219 6.75493 6.22292 6.20058 5.90182 5.7225C5.8372 5.61149 5.79524 5.48877 5.77839 5.36143C5.76154 5.23409 5.77012 5.10468 5.80364 4.98068C5.83624 4.85663 5.89365 4.74046 5.9724 4.63921C6.05115 4.53796 6.1496 4.45373 6.26182 4.39159L8.16 3.30068C8.32565 3.20846 8.52066 3.18422 8.70385 3.23307C8.88704 3.28192 9.04408 3.40004 9.14182 3.5625L9.26182 3.76977C9.51538 4.29012 9.90241 4.7339 10.3834 5.05586C10.8645 5.37783 11.4223 5.56645 12 5.6025C12.577 5.55866 13.133 5.36703 13.6145 5.04604C14.096 4.72506 14.4867 4.28553 14.7491 3.76977L14.8582 3.57341C14.9067 3.49007 14.9711 3.41714 15.0479 3.35883C15.1247 3.30051 15.2122 3.25796 15.3055 3.23363C15.3988 3.20929 15.496 3.20365 15.5915 3.21703C15.6869 3.23041 15.7788 3.26255 15.8618 3.31159L17.7491 4.4025C17.8613 4.46464 17.9598 4.54887 18.0385 4.65012C18.1173 4.75137 18.1747 4.86753 18.2073 4.99159C18.2408 5.11559 18.2494 5.245 18.2325 5.37234C18.2157 5.49968 18.1737 5.6224 18.1091 5.73341C17.788 6.21149 17.5987 6.76584 17.5604 7.34047C17.5221 7.9151 17.6361 8.48966 17.8909 9.00614C18.2092 9.48802 18.6494 9.87708 19.1667 10.1338C19.684 10.3906 20.2601 10.5058 20.8364 10.468C21.0968 10.468 21.3465 10.5714 21.5306 10.7555C21.7147 10.9397 21.8182 11.1894 21.8182 11.4498V13.3807C21.8182 13.6411 21.7147 13.8908 21.5306 14.0749C21.3465 14.2591 21.0968 14.3625 20.8364 14.3625C20.2583 14.3226 19.68 14.437 19.1606 14.6938C18.6412 14.9506 18.1993 15.3408 17.88 15.8243C17.6252 16.3408 17.5112 16.9154 17.5495 17.49C17.5878 18.0646 17.7771 18.619 18.0982 19.097C18.2276 19.3217 18.2628 19.5883 18.1964 19.8389C18.1638 19.9629 18.1064 20.0791 18.0276 20.1803C17.9489 20.2816 17.8504 20.3658 17.7382 20.428L15.84 21.5189C15.675 21.6139 15.479 21.6398 15.295 21.5907C15.111 21.5416 14.9539 21.4217 14.8582 21.257L14.7382 21.0498C14.4846 20.5294 14.0976 20.0856 13.6166 19.7637Z" fill="#141414"/>
</svg>
