<svg version="1.1" viewBox="0 0 24 24" xmlns="http://www.w3.org/2000/svg" xmlns:xlink="http://www.w3.org/1999/xlink" x="0px" y="0px"  style="fill: transparent;">
<path d="M20.0802 0.997559C21.0795 0.997559 21.7559 1.74806 22.1262 2.49551L22.1278 2.4988L22.4222 3.0981L22.4236 3.09969C22.4337 3.11109 22.4508 3.12762 22.4741 3.14504C22.4974 3.16241 22.5193 3.17515 22.5357 3.1829L22.5411 3.18536L22.9204 3.24525C23.7387 3.38162 24.6092 3.81844 24.9035 4.74251C25.1967 5.66291 24.7446 6.52451 24.1604 7.11587L24.1557 7.12059L23.8019 7.47436L23.8003 7.47734C23.7914 7.49413 23.7803 7.52017 23.7712 7.55227C23.7621 7.58441 23.758 7.61179 23.7568 7.62956L23.8053 7.83346C23.9948 8.67729 24.0001 9.81565 23.1194 10.4602C22.2365 11.1064 21.159 10.7505 20.422 10.3105L20.1588 10.1587L20.1544 10.1576C20.1377 10.1537 20.1116 10.15 20.0802 10.15C20.0488 10.15 20.0227 10.1537 20.006 10.1576L20.0016 10.1587L19.7395 10.3099C18.9985 10.7544 17.9153 11.114 17.0304 10.4625C16.1481 9.81304 16.1614 8.66912 16.3569 7.82615L16.3583 7.81996L16.4036 7.62994C16.4024 7.61218 16.3983 7.58441 16.3892 7.55227C16.3801 7.52017 16.369 7.49413 16.3601 7.47734L16.3585 7.47435L16 7.11589C15.4158 6.52452 14.9637 5.66291 15.2569 4.74251C15.5512 3.81844 16.4218 3.38166 17.24 3.24529L17.2492 3.24376L17.6271 3.18413C17.6401 3.17762 17.6592 3.16636 17.681 3.15004C17.7053 3.13178 17.7242 3.11376 17.7359 3.1006L17.7385 3.09758L18.0326 2.4988L18.0343 2.49551C18.4045 1.74806 19.0809 0.997559 20.0802 0.997559Z" fill="#141414"/>
<path d="M4.32748 5.81538C3.65686 6.4381 3.17646 7.47335 3.17646 9.17395V16.8078C3.17646 18.5084 3.65686 19.5437 4.32748 20.1664C5.01273 20.8027 6.07001 21.17 7.53866 21.17H18.4442C19.9128 21.17 20.9701 20.8027 21.6553 20.1664C22.326 19.5437 22.8064 18.5084 22.8064 16.8078V12.4456C22.8064 11.8433 23.2946 11.3551 23.8969 11.3551C24.4992 11.3551 24.9874 11.8433 24.9874 12.4456V16.8078C24.9874 18.9241 24.3773 20.6152 23.1395 21.7647C21.9163 22.9005 20.2472 23.3511 18.4442 23.3511H7.53866C5.73566 23.3511 4.06656 22.9005 2.84335 21.7647C1.60551 20.6152 0.995361 18.9241 0.995361 16.8078V9.17395C0.995361 7.05763 1.60551 5.36651 2.84335 4.21708C4.06656 3.08125 5.73566 2.63065 7.53866 2.63065H12.9914C13.5937 2.63065 14.082 3.11891 14.082 3.7212C14.082 4.3235 13.5937 4.81175 12.9914 4.81175H7.53866C6.07001 4.81175 5.01273 5.17907 4.32748 5.81538Z" fill="#141414"/>
<path d="M6.68655 9.03863C7.06243 8.56802 7.74865 8.49124 8.21925 8.86712L11.6313 11.5924C12.3571 12.1698 13.6368 12.1701 14.3624 11.5924C14.8336 11.2173 15.5197 11.2952 15.8948 11.7664C16.27 12.2376 16.1921 12.9237 15.7209 13.2988C14.2001 14.5095 11.7936 14.5095 10.2728 13.2988L6.85806 10.5713C6.38746 10.1955 6.31067 9.50924 6.68655 9.03863Z" fill="#141414"/>
</svg>
