<svg version="1.1" viewBox="0 0 24 24" xmlns="http://www.w3.org/2000/svg" xmlns:xlink="http://www.w3.org/1999/xlink" x="0px" y="0px"  style="fill: transparent;">
<path fill-rule="evenodd" clip-rule="evenodd" d="M23.71 21.1951C23.6166 21.1025 23.5058 21.0291 23.3839 20.9794C23.2621 20.9296 23.1316 20.9044 23 20.9051V18.9051C23 18.3747 22.7893 17.866 22.4142 17.4909C22.0392 17.1158 21.5305 16.9051 21 16.9051V11.9051C21.5305 11.9051 22.0392 11.6944 22.4142 11.3193C22.7893 10.9443 23 10.4356 23 9.90513V6.58513C22.996 6.18862 22.8741 5.80225 22.65 5.47513C22.425 5.14297 22.1091 4.8826 21.74 4.72513L12.74 1.12513C12.2613 0.955034 11.7387 0.955034 11.26 1.12513L2.26002 4.72513C1.89098 4.8826 1.57507 5.14297 1.35002 5.47513C1.12589 5.80225 1.00406 6.18862 1.00002 6.58513V9.90513C1.00002 10.4356 1.21073 10.9443 1.5858 11.3193C1.96088 11.6944 2.46958 11.9051 3.00002 11.9051V16.9051C2.46958 16.9051 1.96088 17.1158 1.5858 17.4909C1.21073 17.866 1.00002 18.3747 1.00002 18.9051V20.9051C0.86841 20.9044 0.737948 20.9296 0.61611 20.9794C0.494273 21.0291 0.383457 21.1025 0.290017 21.1951C0.107283 21.3868 0.0037002 21.6404 1.67143e-05 21.9051C-0.000744179 22.0367 0.0244809 22.1672 0.0742455 22.289C0.12401 22.4109 0.197335 22.5217 0.290017 22.6151C0.383457 22.7078 0.494273 22.7811 0.61611 22.8309C0.737948 22.8807 0.86841 22.9059 1.00002 22.9051H23C23.2652 22.9051 23.5196 22.7998 23.7071 22.6122C23.8947 22.4247 24 22.1703 24 21.9051C23.9963 21.6404 23.8927 21.3868 23.71 21.1951ZM5.00002 16.9051V11.9051H7.00002V16.9051H5.00002ZM9.00002 16.9051V11.9051H11V16.9051H9.00002ZM13 16.9051V11.9051H15V16.9051H13ZM19 16.9051H17V11.9051H19V16.9051ZM10.5 5.90513C10.6987 5.60739 10.9803 5.37444 11.31 5.23513C11.6265 5.10531 11.974 5.07056 12.31 5.13513C12.6613 5.204 12.9846 5.37436 13.24 5.62513C13.4889 5.8819 13.659 6.20466 13.73 6.55513C13.7946 6.8911 13.7598 7.2386 13.63 7.55513C13.4907 7.88485 13.2578 8.16647 12.96 8.36513C12.6656 8.56694 12.317 8.675 11.96 8.67513C11.48 8.67513 11.0196 8.48444 10.6802 8.145C10.3407 7.80555 10.15 7.34517 10.15 6.86513C10.1698 6.51768 10.2915 6.18377 10.5 5.90513Z" fill="#141414"/>
</svg>
