<svg version="1.1" viewBox="0 0 24 24" xmlns="http://www.w3.org/2000/svg" xmlns:xlink="http://www.w3.org/1999/xlink" x="0px" y="0px"  style="fill: transparent;">
<path fill-rule="evenodd" clip-rule="evenodd" d="M17.6824 10.5995C16.9102 10.3649 16.2078 9.94351 15.6375 9.37255V9.34258C14.9523 8.6561 14.486 7.78193 14.2975 6.83053C14.109 5.87913 14.2068 4.8932 14.5784 3.99734C14.9562 3.10928 15.5866 2.35178 16.3912 1.81891C17.1959 1.28604 18.1393 1.00128 19.1044 1C19.9114 0.999381 20.7061 1.19786 21.4181 1.57785C22.13 1.95784 22.7372 2.5076 23.1859 3.17841C23.6345 3.84921 23.9107 4.62034 23.9901 5.42345C24.0694 6.22655 23.9494 7.03682 23.6406 7.78243C23.3319 8.52804 22.844 9.18598 22.2201 9.6979C21.5962 10.2098 20.8557 10.5599 20.0642 10.7172C19.2727 10.8745 18.4545 10.8341 17.6824 10.5995ZM17.1561 5.47602C17.0398 5.47662 16.9284 5.52332 16.8464 5.60591C16.778 5.69434 16.7427 5.8039 16.7465 5.91563C16.7449 6.03347 16.7877 6.14759 16.8664 6.23534L18.1652 7.54418C18.2095 7.58536 18.2601 7.6191 18.3151 7.64409C18.3713 7.65442 18.4288 7.65442 18.485 7.64409H18.6648L18.8147 7.54418L21.4124 4.9365C21.4565 4.8963 21.4911 4.84671 21.5136 4.79138C21.5361 4.73606 21.5459 4.67639 21.5422 4.61678C21.5447 4.55582 21.5343 4.49503 21.512 4.43826C21.4896 4.3815 21.4557 4.33001 21.4124 4.28708C21.3225 4.20413 21.2049 4.1578 21.0826 4.15719C20.9636 4.15932 20.8497 4.20561 20.7629 4.28708L18.475 6.58503L17.4759 5.58592C17.4331 5.54643 17.3826 5.51627 17.3276 5.49735C17.2725 5.47843 17.2141 5.47117 17.1561 5.47602Z" fill="#141414"/>
<path d="M22.911 11.091C22.6222 11.091 22.3452 11.2058 22.1409 11.41C21.9367 11.6142 21.822 11.8912 21.822 12.1801V16.5362C21.8774 17.1451 21.8036 17.7588 21.6057 18.3373C21.4077 18.9157 21.0899 19.4459 20.673 19.8932C19.7678 20.6181 18.6225 20.9749 17.4658 20.8923H6.56553C5.40883 20.9749 4.26354 20.6181 3.35839 19.8932C2.94151 19.4459 2.6237 18.9157 2.42571 18.3373C2.22773 17.7588 2.15402 17.1451 2.20941 16.5362V8.91296C2.15274 8.30397 2.22585 7.6899 2.4239 7.11124C2.62195 6.53258 2.94045 6.00249 3.35839 5.55594C4.26116 4.82657 5.40825 4.46921 6.56553 4.55683H12.0207C12.3095 4.55683 12.5865 4.4421 12.7907 4.23786C12.995 4.03363 13.1097 3.75663 13.1097 3.4678C13.1097 3.17897 12.995 2.90197 12.7907 2.69774C12.5865 2.49351 12.3095 2.37877 12.0207 2.37877H6.56553C4.85386 2.29769 3.17643 2.8771 1.8797 3.99733C1.24532 4.64211 0.753083 5.41266 0.434727 6.25932C0.11637 7.10597 -0.0210424 8.00994 0.0313479 8.91296V16.5362C-0.0324908 17.4523 0.0993053 18.3715 0.417984 19.2328C0.736663 20.0941 1.23493 20.8778 1.8797 21.5317C3.18446 22.634 4.85979 23.1984 6.56553 23.1103H17.4658C19.1716 23.1984 20.8469 22.634 22.1517 21.5317C22.7964 20.8778 23.2947 20.0941 23.6134 19.2328C23.9321 18.3715 24.0639 17.4523 24 16.5362V12.1801C24 12.037 23.9719 11.8954 23.9171 11.7633C23.8624 11.6312 23.7822 11.5111 23.6811 11.41C23.5799 11.3089 23.4599 11.2286 23.3277 11.1739C23.1956 11.1192 23.054 11.091 22.911 11.091Z" fill="#141414"/>
<path d="M10.6619 11.3208L7.24491 8.60324C7.01826 8.44046 6.73777 8.3709 6.46133 8.4089C6.18489 8.44691 5.93358 8.58958 5.75926 8.80748C5.58494 9.02537 5.50092 9.30187 5.52452 9.57992C5.54813 9.85796 5.67756 10.1163 5.88612 10.3017L9.30308 12.9893C10.0884 13.5787 11.0438 13.8973 12.0257 13.8973C13.0075 13.8973 13.9629 13.5787 14.7482 12.9893C14.9748 12.8091 15.1205 12.5463 15.1533 12.2587C15.1861 11.9711 15.1033 11.6823 14.9231 11.4557C14.7429 11.2291 14.4801 11.0834 14.1925 11.0507C13.9049 11.0179 13.616 11.1007 13.3894 11.2809C12.995 11.5693 12.5207 11.7282 12.032 11.7353C11.5434 11.7425 11.0646 11.5976 10.6619 11.3208Z" fill="#141414"/>
</svg>
