<svg version="1.1" viewBox="0 0 24 24" xmlns="http://www.w3.org/2000/svg" xmlns:xlink="http://www.w3.org/1999/xlink" x="0px" y="0px"  style="fill: transparent;">
<path fill-rule="evenodd" clip-rule="evenodd" d="M3.33322 4.68577C2.66238 5.3087 2.18182 6.34429 2.18182 8.04545C2.18182 8.64795 1.6934 9.13636 1.09091 9.13636C0.488417 9.13636 0 8.64795 0 8.04545C0 5.92844 0.610349 4.23676 1.8486 3.08695C3.07221 1.95074 4.74186 1.5 6.54545 1.5H17.4545C19.2581 1.5 20.9278 1.95074 22.1514 3.08695C23.3897 4.23676 24 5.92844 24 8.04545V15.6818C24 17.7988 23.3897 19.4905 22.1514 20.6403C20.9278 21.7765 19.2581 22.2273 17.4545 22.2273H6.54545C5.94296 22.2273 5.45455 21.7389 5.45455 21.1364C5.45455 20.5339 5.94296 20.0455 6.54545 20.0455H17.4545C18.9237 20.0455 19.9813 19.678 20.6668 19.0415C21.3376 18.4186 21.8182 17.383 21.8182 15.6818V8.04545C21.8182 6.34429 21.3376 5.3087 20.6668 4.68577C19.9813 4.04926 18.9237 3.68182 17.4545 3.68182H6.54545C5.07632 3.68182 4.0187 4.04926 3.33322 4.68577Z" fill="#141414"/>
<path fill-rule="evenodd" clip-rule="evenodd" d="M18.307 7.91013C18.683 8.38089 18.6062 9.06733 18.1354 9.44334L14.7195 12.1717C13.1982 13.3828 10.791 13.3828 9.26966 12.1717L9.26697 12.1695L5.86334 9.44227C5.39317 9.06553 5.31743 8.37897 5.69417 7.9088C6.07091 7.43862 6.75747 7.36288 7.22765 7.73963L10.6298 10.4657C11.3558 11.0426 12.6343 11.0424 13.36 10.4652L16.7738 7.73856C17.2445 7.36255 17.931 7.43937 18.307 7.91013Z" fill="#141414"/>
<path fill-rule="evenodd" clip-rule="evenodd" d="M0 16.7727C0 16.1702 0.488417 15.6818 1.09091 15.6818H7.63636C8.23886 15.6818 8.72727 16.1702 8.72727 16.7727C8.72727 17.3752 8.23886 17.8636 7.63636 17.8636H1.09091C0.488417 17.8636 0 17.3752 0 16.7727Z" fill="#141414"/>
<path fill-rule="evenodd" clip-rule="evenodd" d="M0 12.4091C0 11.8066 0.488417 11.3182 1.09091 11.3182H4.36364C4.96613 11.3182 5.45455 11.8066 5.45455 12.4091C5.45455 13.0116 4.96613 13.5 4.36364 13.5H1.09091C0.488417 13.5 0 13.0116 0 12.4091Z" fill="#141414"/>
</svg>
