<svg version="1.1" viewBox="0 0 24 24" xmlns="http://www.w3.org/2000/svg" xmlns:xlink="http://www.w3.org/1999/xlink" x="0px" y="0px"  style="fill: transparent;">
<path fill-rule="evenodd" clip-rule="evenodd" d="M23.0239 5.83C21.1239 5.64 19.2139 5.49 17.2939 5.39L17.0539 3.93C17.0539 3.93 17.0439 3.87 17.0439 3.84C16.9639 3.36 16.8339 2.57 16.3139 1.97C15.6939 1.25 14.7539 1 13.5939 1H10.4139C9.27387 1 8.32387 1.24 7.70387 1.95C7.17387 2.55 7.04387 3.35 6.96387 3.85C6.96387 3.88 6.95387 3.9 6.95387 3.93L6.72387 5.33C5.63387 5.4 4.54387 5.48 3.46387 5.59L0.993872 5.83C0.393871 5.89 -0.0461285 6.42 0.00387153 7.02C0.0538715 7.62 0.593872 8.06 1.19387 8L2.63387 7.86L3.38387 19.34V19.36C3.41387 19.82 3.44387 20.33 3.54387 20.81C3.64387 21.31 3.82387 21.86 4.19387 22.34C4.97387 23.36 6.29387 23.74 8.09387 23.74H15.8739C17.6739 23.74 18.9939 23.36 19.7739 22.34C20.1439 21.86 20.3239 21.31 20.4239 20.81C20.5239 20.33 20.5539 19.82 20.5839 19.36V19.34L21.3339 7.86C21.8239 7.91 22.3039 7.95 22.7939 8C23.3939 8.06 23.9239 7.63 23.9839 7.03C24.0439 6.43 23.6139 5.89 23.0139 5.83H23.0239ZM9.10387 4.28C9.15387 3.98 9.18387 3.78 9.23387 3.62C9.28387 3.47 9.32387 3.41 9.34387 3.39C9.34387 3.37 9.51387 3.18 10.4139 3.18H13.5939C14.4739 3.18 14.6439 3.38 14.6639 3.4C14.6839 3.42 14.7239 3.48 14.7739 3.64C14.8239 3.8 14.8539 3.99 14.9039 4.28L15.0639 5.29C13.6339 5.24 12.1939 5.22 10.7639 5.22C10.1639 5.22 9.55387 5.22 8.95387 5.24L9.10387 4.28ZM18.4239 19.19C18.3939 19.69 18.3639 20.06 18.2939 20.39C18.2339 20.7 18.1539 20.89 18.0539 21.01C17.9039 21.21 17.4739 21.56 15.8839 21.56H8.10387C6.52387 21.56 6.08387 21.21 5.93387 21.01C5.84387 20.88 5.75387 20.7 5.69387 20.39C5.62387 20.06 5.60387 19.69 5.56387 19.2L4.81387 7.66C6.79387 7.49 8.78387 7.4 10.7639 7.4C13.5639 7.4 16.3739 7.5 19.1739 7.69L18.4239 19.19Z" fill="#141414"/>
</svg>
