<svg version="1.1" viewBox="0 0 24 24" xmlns="http://www.w3.org/2000/svg" xmlns:xlink="http://www.w3.org/1999/xlink" x="0px" y="0px"  style="fill: transparent;">
<path fill-rule="evenodd" clip-rule="evenodd" d="M20 14C19.345 13.9984 18.6962 14.1275 18.0917 14.38C17.4873 14.6324 16.9393 15.003 16.48 15.47L11 12.68C11.0199 12.4538 11.0199 12.2262 11 12C11 11.78 11 11.54 11 11.32L16.52 8.55C16.9763 9.00861 17.5185 9.37274 18.1156 9.62155C18.7127 9.87036 19.3531 9.99896 20 10C20.9889 10 21.9556 9.70676 22.7779 9.15735C23.6001 8.60794 24.241 7.82705 24.6194 6.91342C24.9978 5.99979 25.0969 4.99446 24.9039 4.02455C24.711 3.05465 24.2348 2.16373 23.5355 1.46447C22.8363 0.765206 21.9454 0.289002 20.9755 0.0960758C20.0055 -0.0968503 19.0002 0.00216642 18.0866 0.380605C17.173 0.759043 16.3921 1.39991 15.8427 2.22215C15.2932 3.0444 15 4.0111 15 5C15 5.24 15 5.46 15 5.68L9.52 8.45C8.58377 7.52142 7.31863 7.00027 6 7C4.67392 7 3.40215 7.52679 2.46447 8.46447C1.52678 9.40215 1 10.6739 1 12C1 13.3261 1.52678 14.5979 2.46447 15.5355C3.40215 16.4732 4.67392 17 6 17C7.32006 16.9971 8.5854 16.4722 9.52 15.54L15 18.31C14.9795 18.5395 14.9795 18.7705 15 19C15 19.9889 15.2932 20.9556 15.8427 21.7779C16.3921 22.6001 17.173 23.241 18.0866 23.6194C19.0002 23.9978 20.0055 24.0969 20.9755 23.9039C21.9454 23.711 22.8363 23.2348 23.5355 22.5355C24.2348 21.8363 24.711 20.9454 24.9039 19.9755C25.0969 19.0055 24.9978 18.0002 24.6194 17.0866C24.241 16.173 23.6001 15.3921 22.7779 14.8427C21.9556 14.2932 20.9889 14 20 14ZM20 2.69C20.465 2.69788 20.9173 2.84297 21.3001 3.10703C21.6829 3.3711 21.9791 3.74237 22.1516 4.17424C22.3241 4.60611 22.3652 5.07932 22.2697 5.53445C22.1741 5.98958 21.9463 6.40634 21.6147 6.7324C21.2831 7.05846 20.8626 7.27929 20.4059 7.36716C19.9492 7.45502 19.4768 7.40601 19.0479 7.22627C18.619 7.04653 18.2527 6.74408 17.9951 6.3569C17.7375 5.96971 17.6001 5.51505 17.6 5.05C17.6 4.73669 17.6623 4.4265 17.7834 4.13753C17.9045 3.84857 18.0819 3.5866 18.3053 3.36693C18.5287 3.14725 18.7936 2.97426 19.0846 2.85803C19.3755 2.74181 19.6867 2.68469 20 2.69ZM6 14.36C5.53051 14.3739 5.06753 14.2475 4.67034 13.9967C4.27314 13.746 3.95978 13.3825 3.77038 12.9527C3.58098 12.5229 3.52414 12.0463 3.60714 11.584C3.69014 11.1217 3.90921 10.6947 4.2363 10.3576C4.56339 10.0205 4.98363 9.78867 5.44323 9.69179C5.90283 9.59491 6.38089 9.63737 6.81622 9.81375C7.25154 9.99013 7.62434 10.2924 7.88689 10.6819C8.14943 11.0713 8.28979 11.5303 8.29 12C8.29001 12.6242 8.04274 13.2229 7.60231 13.6652C7.16189 14.1075 6.56418 14.3574 5.94 14.36H6ZM20 21.36C19.5312 21.3699 19.0701 21.24 18.6755 20.9868C18.2809 20.7336 17.9706 20.3686 17.7843 19.9383C17.598 19.5081 17.5441 19.032 17.6294 18.571C17.7148 18.11 17.9355 17.6848 18.2635 17.3497C18.5914 17.0147 19.0118 16.7849 19.4709 16.6897C19.93 16.5945 20.407 16.6382 20.8412 16.8153C21.2754 16.9923 21.6469 17.2947 21.9085 17.6838C22.1701 18.0729 22.3099 18.5311 22.31 19C22.2972 19.6086 22.0498 20.1888 21.6193 20.6193C21.1888 21.0498 20.6086 21.2972 20 21.31V21.36Z" fill="#141414"/>
</svg>
