<svg version="1.1" viewBox="0 0 24 24" xmlns="http://www.w3.org/2000/svg" xmlns:xlink="http://www.w3.org/1999/xlink" x="0px" y="0px"  style="fill: transparent;">
<path d="M18.9954 1.5H6.99536C3.39536 1.5 0.995361 3.3 0.995361 7.5V15.9C0.995361 20.1 3.39536 21.9 6.99536 21.9H18.9954C22.5954 21.9 24.9954 20.1 24.9954 15.9V7.5C24.9954 3.3 22.5954 1.5 18.9954 1.5ZM19.5594 8.808L15.8034 11.808C15.0114 12.444 14.0034 12.756 12.9954 12.756C11.9874 12.756 10.9674 12.444 10.1874 11.808L6.43136 8.808C6.04736 8.496 5.98736 7.92 6.28736 7.536C6.59936 7.152 7.16336 7.08 7.54736 7.392L11.3034 10.392C12.2154 11.124 13.7634 11.124 14.6754 10.392L18.4314 7.392C18.8154 7.08 19.3914 7.14 19.6914 7.536C20.0034 7.92 19.9434 8.496 19.5594 8.808Z" fill="#141414"/>
</svg>
