<svg version="1.1" viewBox="0 0 24 24" xmlns="http://www.w3.org/2000/svg" xmlns:xlink="http://www.w3.org/1999/xlink" x="0px" y="0px"  style="fill: transparent;">
<path fill-rule="evenodd" clip-rule="evenodd" d="M6.44951 5.98625C6.44951 2.68411 9.11938 0 12.4358 0C15.7395 0 18.422 2.68249 18.422 5.98625V5.99083C18.4086 9.21929 15.8631 11.8528 12.6488 11.9609C12.5999 11.9625 12.551 11.9609 12.5023 11.956C12.4683 11.9526 12.4065 11.9517 12.3483 11.957C12.3029 11.9611 12.2573 11.9624 12.2117 11.9609C8.99821 11.8529 6.44951 9.21908 6.44951 5.98625ZM12.4358 2.20083C10.3381 2.20083 8.65033 3.89636 8.65033 5.98625C8.65033 8.01633 10.2314 9.66235 12.2292 9.75897C12.3614 9.75048 12.5002 9.75001 12.6336 9.75886C14.6289 9.66111 16.2115 8.01651 16.2212 5.98394C16.2199 3.89673 14.5233 2.20083 12.4358 2.20083Z" fill="#141414"/>
<path d="M20.2675 19.5842C20.6972 19.1545 20.6972 18.4577 20.2675 18.028C19.8377 17.5982 19.141 17.5982 18.7113 18.028L17.9378 18.8015L17.1643 18.028C16.7346 17.5982 16.0378 17.5982 15.6081 18.028C15.1784 18.4577 15.1784 19.1545 15.6081 19.5842L16.3816 20.3577L15.6081 21.1311C15.1784 21.5609 15.1784 22.2576 15.6081 22.6874C16.0378 23.1171 16.7346 23.1171 17.1643 22.6874L17.9378 21.9139L18.7113 22.6874C19.141 23.1171 19.8377 23.1171 20.2675 22.6874C20.6972 22.2576 20.6972 21.5609 20.2675 21.1311L19.494 20.3577L20.2675 19.5842Z" fill="#141414"/>
<path d="M7.53461 15.8362C8.82874 14.9703 10.6004 14.5034 12.4302 14.5034C14.2601 14.5034 16.0317 14.9703 17.3259 15.8362C17.831 16.1741 18.5144 16.0386 18.8524 15.5335C19.1903 15.0284 19.0549 14.345 18.5497 14.007C16.8177 12.8482 14.5949 12.3026 12.4302 12.3026C10.2661 12.3026 8.04377 12.8479 6.31194 14.0062C4.75144 15.0448 3.82501 16.5251 3.82501 18.1472C3.82501 19.769 4.75111 21.2515 6.31053 22.2955L6.31228 22.2966C8.04852 23.4541 10.2648 24 12.4357 24C13.0435 24 13.5362 23.5073 13.5362 22.8996C13.5362 22.2918 13.0435 21.7992 12.4357 21.7992C10.6016 21.7992 8.83475 21.3329 7.53394 20.466C6.43103 19.7274 6.02584 18.8663 6.02584 18.1472C6.02584 17.4286 6.43043 16.5708 7.5322 15.8378L7.53461 15.8362Z" fill="#141414"/>
</svg>
