<svg version="1.1" viewBox="0 0 24 24" xmlns="http://www.w3.org/2000/svg" xmlns:xlink="http://www.w3.org/1999/xlink" x="0px" y="0px"  style="fill: transparent;">
<path d="M1.57852 4.63203V21.1188L0.270002 22.428C-0.0900005 22.788 -0.0900005 23.376 0.270002 23.736C0.450003 23.904 0.678004 24 0.918005 24C1.15801 24 1.38601 23.904 1.56601 23.724L23.7181 1.57187C24.0901 1.21187 24.0901 0.635863 23.7181 0.275861C23.3581 -0.0841411 22.7701 -0.0841411 22.4101 0.275861L21.1825 1.50415C20.3391 0.577445 19.1243 0 17.7786 0H6.21055C3.65454 0 1.57852 2.08801 1.57852 4.63203Z" fill="#141414"/>
<path d="M11.8744 15.7196L20.7424 6.85152C21.4984 6.09551 22.7945 6.62351 22.7825 7.69152V21.8756C22.7825 22.8116 21.7744 23.3876 20.9704 22.9076L12.1024 17.5916C11.4304 17.1956 11.3224 16.2716 11.8744 15.7196Z" fill="#141414"/>
</svg>
