<svg version="1.1" viewBox="0 0 24 24" xmlns="http://www.w3.org/2000/svg" xmlns:xlink="http://www.w3.org/1999/xlink" x="0px" y="0px"  style="fill: transparent;">
<path fill-rule="evenodd" clip-rule="evenodd" d="M24.3901 9.91023C24.0575 9.48012 23.6275 9.13522 23.1354 8.90398C22.6434 8.67274 22.1034 8.56177 21.5601 8.58023H17.0001V8.51023L17.5601 4.94023C17.6989 4.15702 17.5562 3.34996 17.1572 2.66184C16.7582 1.97372 16.1287 1.4489 15.3801 1.18023C14.6844 0.934714 13.9257 0.934714 13.2301 1.18023C12.5641 1.40059 11.9859 1.82805 11.5801 2.40023L8.52006 7.00023C8.38565 6.74036 8.21004 6.50397 8.00006 6.30023C7.29727 5.73712 6.40851 5.45872 5.51006 5.52023H4.39006C3.49125 5.45572 2.60143 5.73446 1.90006 6.30023C1.58239 6.63002 1.338 7.02322 1.1829 7.45405C1.0278 7.88489 0.965491 8.34364 1.00006 8.80023V19.8802C0.965653 20.3353 1.02807 20.7925 1.1832 21.2217C1.33833 21.6509 1.58265 22.0423 1.90006 22.3702C2.59899 22.9405 3.49066 23.2199 4.39006 23.1502H5.52006C6.41573 23.2142 7.30224 22.9354 8.00006 22.3702C8.18735 22.1937 8.34892 21.9917 8.48006 21.7702L10.6401 23.4502C11.0498 23.8013 11.5362 24.0513 12.0601 24.1802C12.5381 24.3188 13.0324 24.3928 13.5301 24.4002H17.8201C18.7699 24.386 19.6907 24.0709 20.4501 23.5002C21.2365 22.9451 21.8085 22.1367 22.0701 21.2102L24.7701 13.0102C24.9685 12.5025 25.0377 11.9534 24.9714 11.4123C24.905 10.8712 24.7053 10.355 24.3901 9.91023ZM6.65006 19.9102C6.65006 20.5702 6.50006 20.7202 6.47006 20.7402C6.44006 20.7602 6.22006 20.9202 5.47006 20.9202H4.39006C3.68006 20.9202 3.48006 20.7902 3.39006 20.7402C3.30006 20.6902 3.22006 20.5702 3.22006 19.9102V8.80023C3.22006 8.14023 3.36006 7.99023 3.39006 7.97023C3.42006 7.95023 3.64006 7.78023 4.39006 7.78023H5.52006C6.22006 7.78023 6.42006 7.92023 6.52006 7.97023C6.62006 8.02023 6.70006 8.14023 6.70006 8.80023L6.65006 19.9102ZM22.6501 12.2902L19.9201 20.5902C19.7897 21.02 19.5185 21.3934 19.1501 21.6502C18.7743 21.9335 18.3204 22.0941 17.8501 22.1102H13.5401C13.2521 22.1061 12.9661 22.0623 12.6901 21.9802C12.5648 21.9484 12.4439 21.9014 12.3301 21.8402L12.2201 21.7802V21.7302L8.91006 19.2302V10.4402L13.4601 3.67023C13.5876 3.50802 13.7623 3.38926 13.9601 3.33023C14.1707 3.25785 14.3994 3.25785 14.6101 3.33023C14.845 3.4146 15.0443 3.57639 15.1752 3.78901C15.306 4.00164 15.3606 4.25245 15.3301 4.50023L14.8001 8.18023C14.7454 8.5032 14.761 8.83416 14.8457 9.15058C14.9304 9.46699 15.0824 9.76143 15.2911 10.0139C15.4999 10.2663 15.7606 10.4707 16.0555 10.6133C16.3504 10.7559 16.6726 10.8333 17.0001 10.8402H21.5201C21.7073 10.8248 21.8955 10.8539 22.0693 10.9252C22.2431 10.9964 22.3976 11.1078 22.5201 11.2502C22.6286 11.3925 22.6969 11.5612 22.7181 11.7388C22.7392 11.9165 22.7122 12.0965 22.6401 12.2602L22.6501 12.2902Z" fill="#141414"/>
</svg>
