<svg version="1.1" viewBox="0 0 24 24" xmlns="http://www.w3.org/2000/svg" xmlns:xlink="http://www.w3.org/1999/xlink" x="0px" y="0px"  style="fill: transparent;">
<path fill-rule="evenodd" clip-rule="evenodd" d="M2.69645 1.32031C4.95135 1.51222 8.27373 2.5677 10.4687 3.75512C10.8645 3.97102 11.1043 4.36682 11.1043 4.8226V21.5065C11.1043 22.358 10.2408 22.9458 9.46115 22.6219C7.23024 21.6864 4.45959 20.8708 2.49255 20.6069L2.12073 20.5589C0.957303 20.415 0.00976562 19.3475 0.00976562 18.1841V3.92304C0.00976562 2.48374 1.1732 1.32031 2.61249 1.32031H2.69645ZM6.31869 7.38935H3.62C3.12824 7.38935 2.72044 7.79715 2.72044 8.28891C2.72044 8.79266 3.12824 9.18847 3.62 9.18847H6.31869C6.81045 9.18847 7.21825 8.79266 7.21825 8.28891C7.21825 7.79715 6.81045 7.38935 6.31869 7.38935ZM3.62 12.7867H7.21825C7.71001 12.7867 8.11781 12.3909 8.11781 11.8872C8.11781 11.3954 7.71001 10.9876 7.21825 10.9876H3.62C3.12824 10.9876 2.72044 11.3954 2.72044 11.8872C2.72044 12.3909 3.12824 12.7867 3.62 12.7867Z" fill="#141414"/>
<path d="M24.0098 18.1841V3.92304C24.0098 2.48374 22.8463 1.32031 21.407 1.32031H21.3351C19.0802 1.51222 15.7578 2.5677 13.5629 3.75512C13.1671 3.97102 12.9152 4.37882 12.9152 4.8226V21.5065C12.9152 22.358 13.7788 22.9458 14.5584 22.6219C16.7893 21.6864 19.5599 20.8708 21.527 20.6069L21.8988 20.5589C23.0622 20.415 24.0098 19.3475 24.0098 18.1841Z" fill="#141414"/>
</svg>
