<svg version="1.1" viewBox="0 0 24 24" xmlns="http://www.w3.org/2000/svg" xmlns:xlink="http://www.w3.org/1999/xlink" x="0px" y="0px"  style="fill: transparent;">
<path d="M7.66936 7.27916V19.4729C7.66936 20.217 8.01741 20.9251 8.6055 21.3692L10.1417 22.5574C10.6578 23.0735 11.786 23.3495 12.5901 23.3495H17.2708C18.879 23.3495 20.4992 22.1373 20.8713 20.6491L23.8237 11.6598C24.1238 10.8077 24.0397 9.96755 23.5837 9.31946C23.1036 8.64736 22.2875 8.2633 21.3394 8.2633H16.4066C16.0826 8.2633 15.7825 8.11928 15.5785 7.89125C15.3745 7.63921 15.2785 7.31517 15.3265 6.95511L15.9506 3.03054C16.2026 1.85437 15.4225 0.534177 14.2463 0.138119C13.1542 -0.26994 11.87 0.28214 11.3539 1.06225L8.07742 5.93496C7.81338 6.33102 7.66936 6.79909 7.66936 7.27916Z" fill="#141414"/>
<path d="M2.61663 4.93882H3.85281C5.71308 4.93882 6.46919 5.65892 6.46919 7.43518V19.5089C6.46919 21.2852 5.71308 22.0053 3.85281 22.0053H2.61663C0.756354 22.0053 0.000244141 21.2852 0.000244141 19.5089V7.43518C0.000244141 5.65892 0.756354 4.93882 2.61663 4.93882Z" fill="#141414"/>
</svg>
