<svg version="1.1" viewBox="0 0 24 24" xmlns="http://www.w3.org/2000/svg" xmlns:xlink="http://www.w3.org/1999/xlink" x="0px" y="0px"  style="fill: transparent;">
<path d="M12 0C9.62663 0 7.30655 0.703788 5.33316 2.02236C3.35977 3.34094 1.8217 5.21509 0.913451 7.4078C0.00519943 9.60051 -0.232441 12.0133 0.230582 14.3411C0.693605 16.6689 1.83649 18.8071 3.51472 20.4853C5.19295 22.1635 7.33115 23.3064 9.65892 23.7694C11.9867 24.2324 14.3995 23.9948 16.5922 23.0866C18.7849 22.1783 20.6591 20.6402 21.9776 18.6668C23.2962 16.6935 24 14.3734 24 12C24 8.8174 22.7357 5.76515 20.4853 3.51472C18.2348 1.26428 15.1826 0 12 0V0ZM17.57 9.62L11.2 16C11.0959 16.1049 10.972 16.1882 10.8356 16.245C10.6992 16.3018 10.5528 16.3311 10.405 16.3311C10.2572 16.3311 10.1109 16.3018 9.97441 16.245C9.83797 16.1882 9.71412 16.1049 9.61001 16L6.43001 12.8C6.24274 12.5872 6.14313 12.3113 6.15127 12.028C6.15941 11.7446 6.27468 11.4749 6.47385 11.2732C6.67302 11.0715 6.94126 10.9528 7.22449 10.9411C7.50771 10.9293 7.78485 11.0254 8.00001 11.21L10.39 13.6L16 8C16.2095 7.78915 16.4942 7.67017 16.7915 7.66924C17.0887 7.6683 17.3742 7.78548 17.585 7.995C17.7959 8.20452 17.9148 8.48922 17.9158 8.78646C17.9167 9.08371 17.7995 9.36915 17.59 9.58L17.57 9.62Z" fill="#141414"/>
</svg>
