<svg version="1.1" viewBox="0 0 24 24" xmlns="http://www.w3.org/2000/svg" xmlns:xlink="http://www.w3.org/1999/xlink" x="0px" y="0px"  style="fill: transparent;">
<path fill-rule="evenodd" clip-rule="evenodd" d="M18.4545 2.18182C17.8521 2.18182 17.3636 2.67024 17.3636 3.27273V3.36323C20.4593 3.88259 22.8182 6.57491 22.8182 9.81818V15.2727C22.8182 17.9116 20.9443 20.1128 18.4545 20.6182V22.9091C18.4545 23.5116 17.9661 24 17.3636 24C16.7611 24 16.2727 23.5116 16.2727 22.9091V20.7273H15.1818V22.9091C15.1818 23.5116 14.6934 24 14.0909 24C13.4884 24 13 23.5116 13 22.9091V20.7273H6.45455C3.44208 20.7273 1 18.2852 1 15.2727V9.81818C1 6.20323 3.9305 3.27273 7.54545 3.27273H15.1818C15.1818 1.46525 16.6471 0 18.4545 0H19.5455C20.1479 0 20.6364 0.488417 20.6364 1.09091C20.6364 1.6934 20.1479 2.18182 19.5455 2.18182H18.4545ZM15.1818 5.45455H12.4242C13.4607 6.61256 14.0909 8.14177 14.0909 9.81818V15.2727C14.0909 16.5007 13.6852 17.6338 13.0004 18.5455H17.3636C19.1711 18.5455 20.6364 17.0802 20.6364 15.2727V9.81818C20.6364 7.7849 19.2457 6.07643 17.3636 5.59202V6.54545C17.3636 7.14795 16.8752 7.63636 16.2727 7.63636C15.6702 7.63636 15.1818 7.14795 15.1818 6.54545V5.45455ZM7.54545 5.45455C5.13549 5.45455 3.18182 7.40821 3.18182 9.81818V15.2727C3.18182 17.0802 4.64707 18.5455 6.45455 18.5455H8.63636C10.4438 18.5455 11.9091 17.0802 11.9091 15.2727V9.81818C11.9091 7.40821 9.95542 5.45455 7.54545 5.45455Z" fill="#141414"/>
</svg>
