<svg version="1.1" viewBox="0 0 24 24" xmlns="http://www.w3.org/2000/svg" xmlns:xlink="http://www.w3.org/1999/xlink" x="0px" y="0px"  style="fill: transparent;">
<path d="M21.7091 8.42565C19.5382 8.42565 18.6507 6.89042 19.7301 5.00736C20.3538 3.91591 19.982 2.5246 18.8906 1.90092L16.8156 0.713509C15.8681 0.149791 14.6447 0.485623 14.081 1.43315L13.949 1.66104C12.8696 3.54409 11.0945 3.54409 10.003 1.66104L9.87106 1.43315C9.33133 0.485623 8.10795 0.149791 7.16042 0.713509L5.08546 1.90092C3.994 2.5246 3.62219 3.9279 4.24588 5.01936C5.33733 6.89042 4.44978 8.42565 2.27886 8.42565C1.03148 8.42565 0 9.44514 0 10.7045V12.8155C0 14.0628 1.01949 15.0943 2.27886 15.0943C4.44978 15.0943 5.33733 16.6295 4.24588 18.5126C3.62219 19.6041 3.994 20.9954 5.08546 21.6191L7.16042 22.8065C8.10795 23.3702 9.33133 23.0343 9.89505 22.0868L10.027 21.8589C11.1064 19.9759 12.8816 19.9759 13.973 21.8589L14.1049 22.0868C14.6687 23.0343 15.8921 23.3702 16.8396 22.8065L18.9145 21.6191C20.006 20.9954 20.3778 19.5921 19.7541 18.5126C18.6627 16.6295 19.5502 15.0943 21.7211 15.0943C22.9685 15.0943 24 14.0748 24 12.8155V10.7045C23.988 9.45714 22.9685 8.42565 21.7091 8.42565ZM11.994 15.658C9.84708 15.658 8.09595 13.9069 8.09595 11.76C8.09595 9.61306 9.84708 7.86194 11.994 7.86194C14.1409 7.86194 15.8921 9.61306 15.8921 11.76C15.8921 13.9069 14.1409 15.658 11.994 15.658Z" fill="#141414"/>
</svg>
