<svg version="1.1" viewBox="0 0 24 24" xmlns="http://www.w3.org/2000/svg" xmlns:xlink="http://www.w3.org/1999/xlink" x="0px" y="0px"  style="fill: transparent;">
<path fill-rule="evenodd" clip-rule="evenodd" d="M12.0002 14.1568C12.2893 14.1568 12.5666 14.042 12.771 13.8376C12.9754 13.6331 13.0902 13.3559 13.0902 13.0668V7.78681C13.0902 7.49772 12.9754 7.22048 12.771 7.01606C12.5666 6.81165 12.2893 6.69681 12.0002 6.69681C11.7112 6.69681 11.4339 6.81165 11.2295 7.01606C11.0251 7.22048 10.9102 7.49772 10.9102 7.78681V13.0668C10.9102 13.3559 11.0251 13.6331 11.2295 13.8376C11.4339 14.042 11.7112 14.1568 12.0002 14.1568Z" fill="#141414"/>
<path fill-rule="evenodd" clip-rule="evenodd" d="M12.0002 15.2968C11.7112 15.2968 11.4339 15.4116 11.2295 15.6161C11.0251 15.8205 10.9102 16.0977 10.9102 16.3868C10.9102 16.6759 11.0251 16.9531 11.2295 17.1576C11.4339 17.362 11.7112 17.4768 12.0002 17.4768C12.2893 17.4768 12.5666 17.362 12.771 17.1576C12.9754 16.9531 13.0902 16.6759 13.0902 16.3868C13.0902 16.0977 12.9754 15.8205 12.771 15.6161C12.5666 15.4116 12.2893 15.2968 12.0002 15.2968Z" fill="#141414"/>
<path fill-rule="evenodd" clip-rule="evenodd" d="M23.2602 9.91681L21.7902 8.19681C21.7181 8.09912 21.6608 7.99128 21.6202 7.87681C21.5776 7.76093 21.5507 7.63985 21.5402 7.51681V5.66681C21.5402 4.81719 21.2034 4.00223 20.6036 3.40052C20.0038 2.79882 19.1898 2.45945 18.3402 2.45681H16.4902C16.367 2.44738 16.2458 2.42045 16.1302 2.37681C16.0137 2.33807 15.9028 2.28428 15.8002 2.21681L14.0902 0.746808C13.5046 0.264023 12.7692 0 12.0102 0C11.2512 0 10.5159 0.264023 9.93024 0.746808L8.20024 2.22681C8.10038 2.2928 7.99294 2.34652 7.88024 2.38681C7.76799 2.43004 7.65012 2.45698 7.53024 2.46681H5.64024C4.79063 2.46945 3.97672 2.80882 3.37689 3.41052C2.77705 4.01223 2.44023 4.82719 2.44024 5.67681V7.51681C2.43041 7.63669 2.40347 7.75456 2.36024 7.86681C2.32227 7.98049 2.2684 8.08823 2.20024 8.18681L0.730237 9.91681C0.250522 10.5031 -0.00786884 11.2393 0.000236502 11.9968C-0.00894918 12.7514 0.249706 13.4849 0.730237 14.0668L2.21024 15.8168V15.8768L2.30024 16.0868C2.3447 16.2021 2.37166 16.3235 2.38024 16.4468V18.3068C2.38023 19.1564 2.71705 19.9714 3.31689 20.5731C3.91672 21.1748 4.73063 21.5142 5.58024 21.5168H7.55024C7.6698 21.5287 7.78739 21.5555 7.90024 21.5968C8.01392 21.6348 8.12165 21.6886 8.22024 21.7568L9.93024 23.2268C10.5143 23.7088 11.248 23.9725 12.0052 23.9725C12.7625 23.9725 13.4962 23.7088 14.0802 23.2268L15.8002 21.7468C15.904 21.6814 16.0147 21.6278 16.1302 21.5868C16.2425 21.5436 16.3603 21.5166 16.4802 21.5068H18.3302C19.1798 21.5042 19.9938 21.1648 20.5936 20.5631C21.1934 19.9614 21.5302 19.1464 21.5302 18.2968V16.4768C21.5407 16.3538 21.5676 16.2327 21.6102 16.1168C21.6508 16.0023 21.7081 15.8945 21.7802 15.7968L23.2402 14.0868C23.7361 13.5039 24.0058 12.7621 24.0002 11.9968C24.0013 11.2388 23.7398 10.5038 23.2602 9.91681ZM21.6002 12.6568L20.1202 14.3868C19.652 14.9809 19.3889 15.7106 19.3702 16.4668V18.3168C19.3702 18.582 19.2649 18.8364 19.0773 19.0239C18.8898 19.2115 18.6355 19.3168 18.3702 19.3168H16.4902C16.1104 19.3261 15.7349 19.4005 15.3802 19.5368C15.0194 19.6605 14.6815 19.8429 14.3802 20.0768L12.6502 21.5568C12.4592 21.6981 12.2278 21.7743 11.9902 21.7743C11.7526 21.7743 11.5213 21.6981 11.3302 21.5568L9.63024 20.1168C9.32895 19.8829 8.99106 19.7005 8.63024 19.5768C8.27876 19.4414 7.90675 19.367 7.53024 19.3568H5.64024C5.37502 19.3568 5.12067 19.2514 4.93313 19.0639C4.74559 18.8764 4.64024 18.622 4.64024 18.3568V16.4668C4.63159 16.0919 4.5641 15.7207 4.44024 15.3668C4.31619 15.0041 4.13009 14.6658 3.89024 14.3668L2.40024 12.6568C2.25611 12.4671 2.17876 12.2351 2.18024 11.9968C2.17951 11.7587 2.25678 11.5269 2.40024 11.3368L3.87024 9.59681C4.10539 9.29634 4.28797 8.95823 4.41024 8.59681C4.53503 8.24658 4.60257 7.87853 4.61024 7.50681V5.67681C4.61024 5.41159 4.71559 5.15724 4.90313 4.9697C5.09067 4.78216 5.34502 4.67681 5.61024 4.67681H7.53024C7.90686 4.66758 8.27904 4.59315 8.63024 4.45681C8.99205 4.33544 9.33031 4.15278 9.63024 3.91681L11.3702 2.42681C11.5613 2.28552 11.7926 2.20928 12.0302 2.20928C12.2678 2.20928 12.4992 2.28552 12.6902 2.42681L14.4202 3.90681C14.7207 4.14196 15.0588 4.32454 15.4202 4.44681C15.7749 4.58312 16.1504 4.65753 16.5302 4.66681H18.3802C18.6455 4.66681 18.8998 4.77216 19.0873 4.9597C19.2749 5.14724 19.3802 5.40159 19.3802 5.66681V7.51681C19.3989 8.27297 19.662 9.00273 20.1302 9.59681L21.6102 11.3268C21.7524 11.5198 21.8283 11.7537 21.8265 11.9935C21.8247 12.2332 21.7453 12.4659 21.6002 12.6568Z" fill="#141414"/>
</svg>
