<svg version="1.1" viewBox="0 0 24 24" xmlns="http://www.w3.org/2000/svg" xmlns:xlink="http://www.w3.org/1999/xlink" x="0px" y="0px"  style="fill: transparent;">
<path fill-rule="evenodd" clip-rule="evenodd" d="M6.60097 21.6687C7.22036 21.7679 7.92509 21.8182 8.72727 21.8182H15.2727C16.0749 21.8182 16.7796 21.7679 17.399 21.6687C16.7438 19.9468 14.7018 18.5127 12 18.5127C9.29818 18.5127 7.25618 19.9468 6.60097 21.6687ZM4.21479 22.4026C4.51727 18.8278 8.08045 16.3309 12 16.3309C15.9195 16.3309 19.4827 18.8278 19.7852 22.4026C19.8289 22.9185 19.5038 23.394 19.0073 23.5407C17.9152 23.8634 16.6691 24 15.2727 24H8.72727C7.33092 24 6.08478 23.8634 4.99271 23.5407C4.49616 23.394 4.17114 22.9185 4.21479 22.4026Z" fill="#141414"/>
<path fill-rule="evenodd" clip-rule="evenodd" d="M2.09225 2.09225C3.6242 0.560293 5.8924 0 8.72727 0H15.2727C18.1076 0 20.3758 0.560293 21.9078 2.09225C23.4397 3.6242 24 5.8924 24 8.72727V15.2727C24 17.4227 23.6797 19.2378 22.8619 20.659C22.0184 22.1252 20.712 23.0582 18.9953 23.5442C18.6819 23.6329 18.3453 23.577 18.0775 23.3917C17.8096 23.2063 17.6386 22.9111 17.6112 22.5865C17.4336 20.4885 15.1714 18.5127 12 18.5127C8.82864 18.5127 6.56637 20.4885 6.38884 22.5865C6.36138 22.9111 6.19035 23.2063 5.92252 23.3917C5.65468 23.577 5.31805 23.6329 5.00467 23.5442C3.28804 23.0582 1.98165 22.1252 1.13807 20.659C0.320332 19.2378 0 17.4227 0 15.2727V8.72727C0 5.8924 0.560293 3.6242 2.09225 2.09225ZM3.63503 3.63503C2.71243 4.55762 2.18182 6.1076 2.18182 8.72727V15.2727C2.18182 17.2463 2.4833 18.6222 3.0292 19.5709C3.37907 20.179 3.85521 20.6568 4.51017 21.0122C5.48952 18.197 8.6116 16.3309 12 16.3309C15.3884 16.3309 18.5105 18.197 19.4898 21.0122C20.1448 20.6568 20.6209 20.179 20.9708 19.5709C21.5167 18.6222 21.8182 17.2463 21.8182 15.2727V8.72727C21.8182 6.1076 21.2876 4.55762 20.365 3.63503C19.4424 2.71243 17.8924 2.18182 15.2727 2.18182H8.72727C6.1076 2.18182 4.55762 2.71243 3.63503 3.63503ZM12 7.63636C10.4425 7.63636 9.18545 8.89341 9.18545 10.4509C9.18545 12.0124 10.4464 13.2763 12 13.2763C13.5536 13.2763 14.8145 12.0124 14.8145 10.4509C14.8145 8.89341 13.5575 7.63636 12 7.63636ZM7.00363 10.4509C7.00363 7.68844 9.2375 5.45455 12 5.45455C14.7625 5.45455 16.9964 7.68844 16.9964 10.4509C16.9964 13.2095 14.7664 15.4582 12 15.4582C9.23356 15.4582 7.00363 13.2095 7.00363 10.4509Z" fill="#141414"/>
<path fill-rule="evenodd" clip-rule="evenodd" d="M12 7.63636C10.4425 7.63636 9.18545 8.89341 9.18545 10.4509C9.18545 12.0124 10.4464 13.2763 12 13.2763C13.5536 13.2763 14.8145 12.0124 14.8145 10.4509C14.8145 8.89341 13.5575 7.63636 12 7.63636ZM7.00363 10.4509C7.00363 7.68844 9.2375 5.45455 12 5.45455C14.7625 5.45455 16.9964 7.68844 16.9964 10.4509C16.9964 13.2095 14.7664 15.4582 12 15.4582C9.23356 15.4582 7.00363 13.2095 7.00363 10.4509Z" fill="#141414"/>
</svg>
