<svg version="1.1" viewBox="0 0 24 24" xmlns="http://www.w3.org/2000/svg" xmlns:xlink="http://www.w3.org/1999/xlink" x="0px" y="0px"  style="fill: transparent;">
<path d="M20.1818 1C18.0731 1 16.3636 2.70946 16.3636 4.81818C16.3636 6.92691 18.0731 8.63636 20.1818 8.63636C22.2905 8.63636 24 6.92691 24 4.81818C24 2.70946 22.2905 1 20.1818 1Z" fill="#141414"/>
<path d="M2.18182 8.09091C2.18182 6.38975 2.66238 5.35415 3.33322 4.73123C4.0187 4.09471 5.07632 3.72727 6.54545 3.72727H14.1818C14.7843 3.72727 15.2727 3.23886 15.2727 2.63636C15.2727 2.03387 14.7843 1.54545 14.1818 1.54545H6.54545C4.74186 1.54545 3.07221 1.99619 1.8486 3.13241C0.610349 4.28221 0 5.97389 0 8.09091V15.7273C0 17.8443 0.610349 19.536 1.8486 20.6858C3.07221 21.822 4.74186 22.2727 6.54545 22.2727H17.4545C19.2581 22.2727 20.9278 21.822 22.1514 20.6858C23.3897 19.536 24 17.8443 24 15.7273V10.2727C24 9.67023 23.5116 9.18182 22.9091 9.18182C22.3066 9.18182 21.8182 9.67023 21.8182 10.2727V15.7273C21.8182 17.4284 21.3376 18.464 20.6668 19.087C19.9813 19.7235 18.9237 20.0909 17.4545 20.0909H6.54545C5.07632 20.0909 4.0187 19.7235 3.33322 19.087C2.66238 18.464 2.18182 17.4284 2.18182 15.7273V8.09091Z" fill="#141414"/>
<path d="M7.22632 7.78402C6.75555 7.40801 6.06911 7.48482 5.69311 7.95558C5.3171 8.42635 5.39391 9.11279 5.86468 9.48879L9.28058 12.2171C10.8019 13.4283 13.2094 13.4281 14.7307 12.2169L16.0179 11.1915C16.4892 10.8161 16.5669 10.1297 16.1915 9.6585C15.8161 9.18725 15.1297 9.10956 14.6585 9.48496L13.3715 10.5102C12.6457 11.088 11.3656 11.0877 10.6395 10.5102L7.22632 7.78402Z" fill="#141414"/>
</svg>
