<svg version="1.1" viewBox="0 0 24 24" xmlns="http://www.w3.org/2000/svg" xmlns:xlink="http://www.w3.org/1999/xlink" x="0px" y="0px"  style="fill: transparent;">
<path fill-rule="evenodd" clip-rule="evenodd" d="M19.1 10.13C18.6141 9.23466 17.8173 8.54814 16.86 8.2C16.7262 8.14893 16.5835 8.125 16.4403 8.1296C16.2971 8.1342 16.1563 8.16725 16.026 8.22681C15.8957 8.28637 15.7785 8.37126 15.6814 8.47654C15.5842 8.58181 15.509 8.70536 15.46 8.84C15.3609 8.44347 15.206 8.06301 15 7.71C14.637 7.04617 14.1018 6.49244 13.4507 6.10706C12.7995 5.72167 12.0566 5.51888 11.3 5.52C10.511 5.51755 9.73761 5.73951 9.07001 6.16L6.55001 7.75C5.57079 8.37722 4.86615 9.35273 4.57843 10.4795C4.29072 11.6062 4.44139 12.8001 5.00001 13.82C5.48372 14.7155 6.27616 15.4049 7.23001 15.76C7.50055 15.8604 7.79985 15.8494 8.06229 15.7294C8.32473 15.6094 8.52889 15.3903 8.63001 15.12C8.7054 15.5075 8.82973 15.8838 9.00001 16.24C9.27344 16.7548 9.65104 17.207 10.1088 17.5679C10.5665 17.9288 11.0943 18.1905 11.6587 18.3362C12.223 18.482 12.8116 18.5088 13.3868 18.4147C13.9621 18.3207 14.5115 18.1079 15 17.79L17.55 16.21C18.5281 15.5793 19.2315 14.6021 19.519 13.4744C19.8065 12.3467 19.6568 11.1519 19.1 10.13ZM16.36 14.36L13.8 15.94C13.5665 16.0914 13.304 16.1925 13.0293 16.2367C12.7545 16.2808 12.4736 16.2672 12.2044 16.1966C11.9352 16.126 11.6837 16 11.466 15.8267C11.2483 15.6534 11.0691 15.4365 10.94 15.19C10.6497 14.6518 10.574 14.0236 10.7279 13.4318C10.8819 12.84 11.2542 12.3285 11.77 12C11.7864 12.0042 11.8036 12.0042 11.82 12L12.16 11.76C12.2769 11.6773 12.3764 11.5724 12.4528 11.4512C12.5291 11.3301 12.5808 11.195 12.605 11.0539C12.6291 10.9127 12.6252 10.7682 12.5935 10.6285C12.5617 10.4889 12.5028 10.3569 12.42 10.24C12.3156 10.0926 12.1755 9.974 12.0129 9.89532C11.8503 9.81663 11.6704 9.7804 11.49 9.79C11.2782 9.79842 11.0733 9.86787 10.9 9.99L10.59 10.21C10.3136 10.3828 10.0585 10.5875 9.83001 10.82C9.39154 11.2534 9.04508 11.7708 8.81139 12.3413C8.57769 12.9118 8.46158 13.5236 8.47001 14.14C8.34659 13.952 8.16339 13.8111 7.95001 13.74C7.47965 13.5502 7.09534 13.1944 6.87001 12.74C6.87001 12.74 6.87001 12.67 6.87001 12.64C6.6204 12.118 6.56691 11.5237 6.7193 10.9655C6.87169 10.4074 7.21979 9.92271 7.70001 9.6L10.25 8C10.4832 7.8465 10.7459 7.74351 11.0213 7.69768C11.2967 7.65185 11.5787 7.66418 11.849 7.73389C12.1194 7.80359 12.3721 7.92912 12.591 8.10241C12.8099 8.27569 12.9901 8.49288 13.12 8.74C13.4021 9.27669 13.4733 9.89943 13.3197 10.486C13.1662 11.0725 12.7989 11.5804 12.29 11.91H12.23L11.89 12.15C11.7685 12.2327 11.6645 12.3386 11.584 12.4615C11.5034 12.5844 11.4478 12.722 11.4205 12.8664C11.3931 13.0108 11.3944 13.1592 11.4243 13.3031C11.4543 13.4469 11.5123 13.5835 11.595 13.705C11.6777 13.8265 11.7836 13.9305 11.9065 14.011C12.0294 14.0916 12.167 14.1472 12.3114 14.1746C12.4558 14.2019 12.6042 14.2006 12.7481 14.1707C12.892 14.1407 13.0285 14.0827 13.15 14L13.47 13.78C14.1276 13.3568 14.6665 12.7729 15.0357 12.0835C15.4049 11.3941 15.5922 10.6219 15.58 9.84C15.7056 10.0282 15.8877 10.1718 16.1 10.25C16.5641 10.4229 16.9508 10.7564 17.19 11.19C17.4698 11.7272 17.5397 12.3492 17.3863 12.9351C17.2329 13.521 16.8671 14.0289 16.36 14.36Z" fill="#292D32"/>
<path fill-rule="evenodd" clip-rule="evenodd" d="M12 0C9.62663 0 7.30655 0.703788 5.33316 2.02236C3.35977 3.34094 1.8217 5.21509 0.913451 7.4078C0.00519943 9.60051 -0.232441 12.0133 0.230582 14.3411C0.693605 16.6689 1.83649 18.8071 3.51472 20.4853C5.19295 22.1635 7.33115 23.3064 9.65892 23.7694C11.9867 24.2324 14.3995 23.9948 16.5922 23.0866C18.7849 22.1783 20.6591 20.6402 21.9776 18.6668C23.2962 16.6935 24 14.3734 24 12C24 8.8174 22.7357 5.76515 20.4853 3.51472C18.2348 1.26428 15.1826 0 12 0ZM12 21.82C10.0578 21.82 8.1592 21.2441 6.54431 20.165C4.92941 19.086 3.67076 17.5523 2.92751 15.758C2.18426 13.9636 1.98979 11.9891 2.36869 10.0842C2.7476 8.17932 3.68287 6.42956 5.05622 5.05621C6.42957 3.68286 8.17933 2.7476 10.0842 2.36869C11.9891 1.98978 13.9636 2.18425 15.758 2.9275C17.5523 3.67076 19.086 4.92941 20.165 6.5443C21.2441 8.15919 21.82 10.0578 21.82 12C21.82 14.6044 20.7854 17.1022 18.9438 18.9438C17.1022 20.7854 14.6044 21.82 12 21.82Z" fill="#292D32"/>
</svg>
