<svg version="1.1" viewBox="0 0 24 24" xmlns="http://www.w3.org/2000/svg" xmlns:xlink="http://www.w3.org/1999/xlink" x="0px" y="0px"  style="fill: transparent;">
<path fill-rule="evenodd" clip-rule="evenodd" d="M21.6691 5.06071L15.1391 0.780708C14.3158 0.263368 13.3615 -0.00730708 12.3891 0.00070855C11.4185 -0.0155504 10.4637 0.248315 9.63915 0.760709L3.06914 5.05071C2.43365 5.46621 1.91169 6.03349 1.55043 6.70131C1.18918 7.36913 1 8.11644 1 8.87571C1 9.63498 1.18918 10.3823 1.55043 11.0501C1.91169 11.7179 2.43365 12.2852 3.06914 12.7007L4.31914 13.5207V18.3007C4.32823 19.2729 4.64311 20.2175 5.21914 21.0007C5.76537 21.7812 6.54139 22.372 7.43915 22.6907L10.9191 23.8007C11.3858 23.942 11.8717 24.0095 12.3591 24.0007C12.8466 24.0095 13.3325 23.942 13.7991 23.8007L17.2891 22.6407C18.182 22.3086 18.9561 21.7188 19.5133 20.9461C20.0706 20.1735 20.3858 19.2528 20.4191 18.3007V13.5207L21.5291 12.7907V15.2807C21.5291 15.5698 21.644 15.847 21.8484 16.0515C22.0528 16.2559 22.3301 16.3707 22.6191 16.3707C22.9082 16.3707 23.1855 16.2559 23.3899 16.0515C23.5943 15.847 23.7091 15.5698 23.7091 15.2807V9.33071C23.7957 8.50009 23.6511 7.66169 23.291 6.90815C22.931 6.15461 22.3697 5.51525 21.6691 5.06071ZM18.2291 18.3007C18.1982 18.794 18.0289 19.2686 17.7406 19.6701C17.4523 20.0716 17.0567 20.3837 16.5991 20.5707L13.1291 21.7307C12.8776 21.7946 12.6187 21.8248 12.3591 21.8207C12.1029 21.8263 11.847 21.796 11.5991 21.7307L8.12915 20.5707C7.66833 20.395 7.27347 20.0805 6.99915 19.6707C6.69499 19.2766 6.52032 18.7981 6.49915 18.3007V14.9407L9.63915 16.9407C10.4625 17.4557 11.4181 17.7198 12.3891 17.7007C13.3508 17.7359 14.3022 17.4929 15.1291 17.0007L18.2291 15.0007V18.3007ZM21.5291 8.73071V9.20071C21.4845 9.53938 21.3665 9.86425 21.1834 10.1527C21.0003 10.4411 20.7566 10.6861 20.4691 10.8707L13.9391 15.1607C13.4704 15.4373 12.9332 15.576 12.3891 15.5607C11.8448 15.5788 11.3068 15.4399 10.8391 15.1607L4.25915 10.8707C3.92696 10.6534 3.65414 10.3567 3.46532 10.0076C3.27649 9.65838 3.17762 9.26767 3.17762 8.87071C3.17762 8.47375 3.27649 8.08304 3.46532 7.73386C3.65414 7.38468 3.92696 7.08804 4.25915 6.87071L10.8291 2.59071C11.2956 2.31739 11.8287 2.17892 12.3691 2.19071C12.9145 2.17567 13.4526 2.31801 13.9191 2.60071L20.4591 6.89071C20.7542 7.08209 21.0033 7.3365 21.1883 7.63564C21.3733 7.93477 21.4897 8.2712 21.5291 8.62071C21.525 8.65726 21.525 8.69416 21.5291 8.73071Z" fill="#141414"/>
</svg>
