<svg version="1.1" viewBox="0 0 24 24" xmlns="http://www.w3.org/2000/svg" xmlns:xlink="http://www.w3.org/1999/xlink" x="0px" y="0px"  style="fill: transparent;">
<path d="M18.6907 0H5.2973C2.37838 0 0 2.376 0 5.292V13.092V13.332C0 16.26 2.37838 18.624 5.2973 18.624H9.90991C10.5706 18.624 11.1111 19.164 11.1111 19.824V20.988C11.1111 21.648 10.5706 22.188 9.90991 22.188H7.003C6.51051 22.188 6.1021 22.596 6.1021 23.088C6.1021 23.58 6.4985 24 7.003 24H17.033C17.5255 24 17.9339 23.592 17.9339 23.1C17.9339 22.608 17.5255 22.2 17.033 22.2H14.1261C13.4655 22.2 12.9249 21.66 12.9249 21V19.836C12.9249 19.176 13.4655 18.636 14.1261 18.636H18.7027C21.6336 18.636 24 16.26 24 13.344V13.104V5.304C23.988 2.376 21.6096 0 18.6907 0Z" fill="#141414"/>
</svg>
