<svg version="1.1" viewBox="0 0 24 24" xmlns="http://www.w3.org/2000/svg" xmlns:xlink="http://www.w3.org/1999/xlink" x="0px" y="0px"  style="fill: transparent;">
<path d="M17.8749 0H6.31068C3.7675 0 1.68018 2.08733 1.68018 4.63051V21.5331C1.68018 23.6924 3.22768 24.6041 5.12306 23.5604L10.9772 20.3094C11.601 19.9616 12.6086 19.9616 13.2205 20.3094L19.0746 23.5604C20.9699 24.6161 22.5175 23.7044 22.5175 21.5331V4.63051C22.5055 2.08733 20.4301 0 17.8749 0ZM16.4354 8.54124L11.637 13.3397C11.457 13.5196 11.2291 13.6036 11.0012 13.6036C10.7732 13.6036 10.5453 13.5196 10.3654 13.3397L8.56595 11.5403C8.21807 11.1924 8.21807 10.6166 8.56595 10.2687C8.91384 9.9208 9.48966 9.9208 9.83754 10.2687L11.0012 11.4323L15.1638 7.26965C15.5117 6.92177 16.0875 6.92177 16.4354 7.26965C16.7833 7.61754 16.7833 8.19336 16.4354 8.54124Z" fill="#141414"/>
</svg>
