<svg version="1.1" viewBox="0 0 24 24" xmlns="http://www.w3.org/2000/svg" xmlns:xlink="http://www.w3.org/1999/xlink" x="0px" y="0px"  style="fill: transparent;">
<path d="M8.84007 11.6181H14.2946C14.5839 11.6181 14.8614 11.5031 15.066 11.2986C15.2706 11.094 15.3855 10.8165 15.3855 10.5272C15.3855 10.2378 15.2706 9.96036 15.066 9.75578C14.8614 9.55119 14.5839 9.43626 14.2946 9.43626H8.84007C8.55074 9.43626 8.27326 9.55119 8.06868 9.75578C7.86409 9.96036 7.74916 10.2378 7.74916 10.5272C7.74916 10.8165 7.86409 11.094 8.06868 11.2986C8.27326 11.5031 8.55074 11.6181 8.84007 11.6181Z" fill="#141414"/>
<path fill-rule="evenodd" clip-rule="evenodd" d="M17.3709 23.4655C17.9505 23.8053 18.6082 23.9895 19.28 24C19.758 23.9996 20.2278 23.8756 20.6436 23.64C21.1266 23.3285 21.5189 22.8953 21.7813 22.3839C22.0436 21.8726 22.1667 21.3013 22.1382 20.7273V5.30182C22.1296 3.89646 21.5667 2.55127 20.572 1.55853C19.5772 0.565797 18.2308 0.00572162 16.8255 0H6.3091C4.90385 0.00288256 3.55699 0.562391 2.56333 1.55605C1.56967 2.54971 1.01016 3.89657 1.00728 5.30182V20.7273C0.979517 21.2984 1.10189 21.8669 1.36219 22.376C1.6225 22.8851 2.01166 23.3172 2.49091 23.6291C3.00268 23.8919 3.57467 24.0151 4.14923 23.9864C4.7238 23.9576 5.28064 23.778 5.76364 23.4655L11.0873 20.5091C11.241 20.4446 11.406 20.4114 11.5727 20.4114C11.7394 20.4114 11.9045 20.4446 12.0582 20.5091L17.3709 23.4655ZM13.1273 18.6109C12.6515 18.3547 12.1185 18.2234 11.5782 18.2291C11.013 18.2408 10.4606 18.3986 9.97455 18.6873L4.66182 21.6327C4.50664 21.7457 4.32739 21.8213 4.13813 21.8535C3.94887 21.8856 3.75473 21.8736 3.57091 21.8182C3.42296 21.6814 3.31079 21.5104 3.24423 21.3202C3.17767 21.1301 3.15874 20.9265 3.1891 20.7273V5.30182C3.1891 4.47434 3.51781 3.68076 4.10292 3.09565C4.68804 2.51053 5.48162 2.18182 6.3091 2.18182H16.8255C17.6484 2.19317 18.4343 2.52586 19.0152 3.10884C19.5961 3.69181 19.9261 4.47885 19.9346 5.30182V20.6618C19.963 20.8609 19.9432 21.064 19.8768 21.2539C19.8103 21.4437 19.6992 21.6148 19.5527 21.7527C19.3685 21.8049 19.1751 21.8153 18.9863 21.7832C18.7976 21.7511 18.6184 21.6774 18.4618 21.5673L13.1273 18.6109Z" fill="#141414"/>
</svg>
