<svg version="1.1" viewBox="0 0 24 24" xmlns="http://www.w3.org/2000/svg" xmlns:xlink="http://www.w3.org/1999/xlink" x="0px" y="0px"  style="fill: transparent;">
<path fill-rule="evenodd" clip-rule="evenodd" d="M4.21398 22.4026C4.5164 18.8278 8.07889 16.3309 11.9977 16.3309C15.9165 16.3309 19.479 18.8278 19.7814 22.4026C19.825 22.9185 19.5001 23.394 19.0036 23.5407C17.9118 23.8634 16.6659 24 15.2698 24H8.72558C7.3295 24 6.0836 23.8634 4.99175 23.5407C4.49529 23.394 4.17033 22.9185 4.21398 22.4026Z" fill="#141414"/>
<path fill-rule="evenodd" clip-rule="evenodd" d="M2.09184 2.09225C3.6235 0.560293 5.89126 0 8.72558 0H15.2698C18.1041 0 20.3719 0.560293 21.9035 2.09225C23.4352 3.6242 23.9954 5.8924 23.9954 8.72727V15.2727C23.9954 17.4227 23.6751 19.2378 22.8575 20.659C22.0141 22.1252 20.708 23.0582 18.9917 23.5442C18.6783 23.6329 18.3418 23.577 18.074 23.3917C17.8062 23.2063 17.6352 22.9111 17.6078 22.5865C17.4303 20.4885 15.1684 18.5127 11.9977 18.5127C8.82693 18.5127 6.5651 20.4885 6.38761 22.5865C6.36015 22.9111 6.18916 23.2063 5.92137 23.3917C5.65359 23.577 5.31702 23.6329 5.0037 23.5442C3.2874 23.0582 1.98126 22.1252 1.13785 20.659C0.32027 19.2378 0 17.4227 0 15.2727V8.72727C0 5.8924 0.560184 3.6242 2.09184 2.09225ZM3.63432 3.63503C2.71191 4.55762 2.1814 6.1076 2.1814 8.72727V15.2727C2.1814 17.2463 2.48282 18.6222 3.02861 19.5709C3.37842 20.179 3.85447 20.6568 4.5093 21.0122C5.48846 18.197 8.60993 16.3309 11.9977 16.3309C15.3854 16.3309 18.5069 18.197 19.4861 21.0122C20.1409 20.6568 20.6169 20.179 20.9667 19.5709C21.5125 18.6222 21.814 17.2463 21.814 15.2727V8.72727C21.814 6.1076 21.2834 4.55762 20.361 3.63503C19.4386 2.71243 17.8889 2.18182 15.2698 2.18182H8.72558C6.10641 2.18182 4.55674 2.71243 3.63432 3.63503ZM7.00228 10.4509C7.00228 7.68844 9.23571 5.45455 11.9977 5.45455C14.7596 5.45455 16.9931 7.68844 16.9931 10.4509C16.9931 13.2095 14.7636 15.4582 11.9977 15.4582C9.23178 15.4582 7.00228 13.2095 7.00228 10.4509Z" fill="#141414"/>
<path fill-rule="evenodd" clip-rule="evenodd" d="M7.00228 10.4509C7.00228 7.68844 9.23571 5.45455 11.9977 5.45455C14.7596 5.45455 16.9931 7.68844 16.9931 10.4509C16.9931 13.2095 14.7636 15.4582 11.9977 15.4582C9.23178 15.4582 7.00228 13.2095 7.00228 10.4509Z" fill="#141414"/>
</svg>
