<svg version="1.1" viewBox="0 0 24 24" xmlns="http://www.w3.org/2000/svg" xmlns:xlink="http://www.w3.org/1999/xlink" x="0px" y="0px"  style="fill: transparent;">
<path d="M17.904 1.61748V3.42183C21.0269 3.71099 22.5421 5.57317 22.7734 8.33753C22.8081 8.66138 22.5305 8.95054 22.1951 8.95054H2.62485C2.30099 8.95054 2.0234 8.67295 2.04653 8.33753C2.27786 5.57317 3.79305 3.71099 6.91596 3.42183V1.61748C6.91596 1.14326 7.30922 0.75 7.78344 0.75C8.25766 0.75 8.65092 1.14326 8.65092 1.61748V3.35243H16.169V1.61748C16.169 1.14326 16.5623 0.75 17.0365 0.75C17.5107 0.75 17.904 1.14326 17.904 1.61748Z" fill="#141414"/>
<path fill-rule="evenodd" clip-rule="evenodd" d="M3.15664 10.6853H21.6628C22.2989 10.6853 22.8194 11.2058 22.8194 11.842V18.9668C22.8194 22.4367 21.0845 24.75 17.0363 24.75H7.78318C3.73495 24.75 2 22.4367 2 18.9668V11.842C2 11.2058 2.52049 10.6853 3.15664 10.6853ZM9.12488 20.4152C9.14415 20.3985 9.16343 20.3818 9.1827 20.3664C9.3909 20.1466 9.51813 19.8459 9.51813 19.5451C9.51813 19.2444 9.3909 18.9437 9.1827 18.7239L9.00921 18.5851C8.93981 18.5389 8.87041 18.5042 8.80101 18.481C8.73162 18.4463 8.66222 18.4232 8.59282 18.4116C8.36149 18.3654 8.13017 18.3885 7.92197 18.481C7.77161 18.5389 7.65595 18.6198 7.54028 18.7239C7.33209 18.9437 7.20486 19.2444 7.20486 19.5451C7.20486 19.8459 7.33209 20.1466 7.54028 20.3664C7.65595 20.4704 7.77161 20.5514 7.92197 20.6092C8.06077 20.6671 8.21113 20.7018 8.36149 20.7018C8.43335 20.7018 8.49609 20.6927 8.5659 20.6825C8.57475 20.6812 8.58371 20.6799 8.59282 20.6786C8.66222 20.6671 8.73162 20.6439 8.80101 20.6092C8.87041 20.5861 8.93981 20.5514 9.00921 20.5051C9.04777 20.482 9.08632 20.4486 9.12488 20.4152ZM8.36149 16.6536C8.66222 16.6536 8.96294 16.5263 9.1827 16.3181C9.3909 16.0984 9.51813 15.7976 9.51813 15.4969C9.51813 15.1962 9.3909 14.8955 9.1827 14.6757C9.07861 14.5716 8.95138 14.4906 8.80101 14.4328C8.37306 14.2478 7.86414 14.3518 7.54028 14.6757C7.33209 14.8955 7.20486 15.1962 7.20486 15.4969C7.20486 15.7976 7.33209 16.0984 7.54028 16.3181C7.76004 16.5263 8.06077 16.6536 8.36149 16.6536ZM12.4097 20.7018C12.7104 20.7018 13.0112 20.5745 13.2309 20.3664C13.4391 20.1466 13.5664 19.8459 13.5664 19.5451C13.5664 19.2444 13.4391 18.9437 13.2309 18.7239C12.803 18.296 12.0165 18.296 11.5885 18.7239C11.3803 18.9437 11.2531 19.2444 11.2531 19.5451C11.2531 19.8459 11.3803 20.1466 11.5885 20.3664C11.8083 20.5745 12.109 20.7018 12.4097 20.7018ZM13.0574 16.4569L13.2309 16.3181C13.4391 16.0984 13.5664 15.7976 13.5664 15.4969C13.5664 15.1962 13.4391 14.8955 13.2309 14.6757C12.9071 14.3518 12.3981 14.2478 11.9702 14.4328C11.8198 14.4906 11.6926 14.5716 11.5885 14.6757C11.3803 14.8955 11.2531 15.1962 11.2531 15.4969C11.2531 15.7976 11.3803 16.0984 11.5885 16.3181C11.8083 16.5263 12.109 16.6536 12.4097 16.6536C12.4816 16.6536 12.5443 16.6444 12.6141 16.6343C12.623 16.633 12.6319 16.6317 12.641 16.6304C12.7104 16.6189 12.7798 16.5957 12.8492 16.561C12.9186 16.5379 12.988 16.5032 13.0574 16.4569ZM16.4579 20.7018C16.7587 20.7018 17.0594 20.5745 17.2791 20.3664C17.4873 20.1466 17.6146 19.8459 17.6146 19.5451C17.6146 19.2444 17.4873 18.9437 17.2791 18.7239C16.8512 18.296 16.0647 18.296 15.6367 18.7239C15.4285 18.9437 15.3013 19.2444 15.3013 19.5451C15.3013 19.8459 15.4285 20.1466 15.6367 20.3664C15.8565 20.5745 16.1572 20.7018 16.4579 20.7018ZM17.1057 16.4569L17.2791 16.3181C17.4873 16.0984 17.6146 15.7976 17.6146 15.4969C17.6146 15.1962 17.4873 14.8955 17.2791 14.6757L17.1057 14.5369C17.0363 14.4906 16.9669 14.4559 16.8975 14.4328C16.8281 14.3981 16.7587 14.375 16.6893 14.3634C16.4579 14.3172 16.2266 14.3403 16.0184 14.4328C15.8681 14.4906 15.7524 14.5716 15.6367 14.6757C15.4285 14.8955 15.3013 15.1962 15.3013 15.4969C15.3013 15.7976 15.4285 16.0984 15.6367 16.3181C15.8565 16.5263 16.1572 16.6536 16.4579 16.6536C16.5273 16.6536 16.6083 16.642 16.6893 16.6304C16.7587 16.6189 16.8281 16.5957 16.8975 16.561C16.9669 16.5379 17.0363 16.5032 17.1057 16.4569Z" fill="#141414"/>
</svg>
