<svg version="1.1" viewBox="0 0 24 24" xmlns="http://www.w3.org/2000/svg" xmlns:xlink="http://www.w3.org/1999/xlink" x="0px" y="0px"  style="fill: transparent;">
<path d="M12.074 3.18C6.33798 3.18 1.66998 7.848 1.66998 13.584C1.66998 19.32 6.33798 24 12.074 24C17.81 24 22.478 19.332 22.478 13.596C22.478 7.86 17.81 3.18 12.074 3.18ZM12.974 13.2C12.974 13.692 12.566 14.1 12.074 14.1C11.582 14.1 11.174 13.692 11.174 13.2V7.2C11.174 6.708 11.582 6.3 12.074 6.3C12.566 6.3 12.974 6.708 12.974 7.2V13.2Z" fill="#141414"/>
<path d="M15.542 1.74H8.60598C8.12598 1.74 7.74198 1.356 7.74198 0.876C7.74198 0.396 8.12598 0 8.60598 0H15.542C16.022 0 16.406 0.384 16.406 0.864C16.406 1.344 16.022 1.74 15.542 1.74Z" fill="#141414"/>
</svg>
