<svg version="1.1" viewBox="0 0 24 24" xmlns="http://www.w3.org/2000/svg" xmlns:xlink="http://www.w3.org/1999/xlink" x="0px" y="0px"  style="fill: transparent;">
<path fill-rule="evenodd" clip-rule="evenodd" d="M20.087 4.29775C18.9494 0.471144 15.5479 0 13.0083 0H7.5155C2.29844 0 0.000183105 2.29826 0.000183105 7.52681V12.9852C0.000183105 15.0881 0.344922 17.9724 2.87301 19.4548C3.78082 21.2704 5.59645 22.3621 8.61866 22.9022L14.0081 23.7985C14.7336 23.9203 15.4674 23.9856 16.2029 23.9939C17.5292 24.0532 18.8392 23.6823 19.9376 22.9366C21.3625 21.9254 22.2359 20.2247 22.661 17.6047L23.5574 12.2153C23.9366 9.57226 24.017 5.97548 20.087 4.29775ZM2.29844 7.52681C2.29844 3.61976 3.61995 2.29826 7.5155 2.29826H13.0083C16.6051 2.29826 17.6049 3.52783 17.9956 5.38942C18.143 6.08806 18.2086 6.8015 18.1909 7.51532V12.9622C18.1909 16.8692 16.8694 18.1907 12.9739 18.1907H7.52699C6.40609 18.2465 5.28694 18.0502 4.25197 17.6162C3.2867 17.145 2.29844 16.2257 2.29844 13.0197V7.52681ZM21.2361 11.8016L20.3513 17.237C20.018 19.179 19.432 20.443 18.5472 21.0636C17.6623 21.6841 16.2489 21.845 14.3413 21.5232L8.95191 20.6269L8.49226 20.5465H12.9854C18.1794 20.5465 20.5007 18.2482 20.5007 13.0197V7.274C21.3051 8.04392 21.6383 9.39989 21.2361 11.8016ZM5.65389 9.10112H14.8469C15.1517 9.10112 15.444 8.98005 15.6595 8.76454C15.875 8.54904 15.9961 8.25675 15.9961 7.95199C15.9961 7.64722 15.875 7.35493 15.6595 7.13943C15.444 6.92392 15.1517 6.80285 14.8469 6.80285H5.65389C5.34912 6.80285 5.05683 6.92392 4.84133 7.13943C4.62582 7.35493 4.50476 7.64722 4.50476 7.95199C4.50476 8.25675 4.62582 8.54904 4.84133 8.76454C5.05683 8.98005 5.34912 9.10112 5.65389 9.10112ZM11.3995 13.6976H5.65389C5.34912 13.6976 5.05683 13.5766 4.84133 13.3611C4.62582 13.1456 4.50476 12.8533 4.50476 12.5485C4.50476 12.2437 4.62582 11.9515 4.84133 11.736C5.05683 11.5204 5.34912 11.3994 5.65389 11.3994H11.3995C11.7043 11.3994 11.9966 11.5204 12.2121 11.736C12.4276 11.9515 12.5487 12.2437 12.5487 12.5485C12.5487 12.8533 12.4276 13.1456 12.2121 13.3611C11.9966 13.5766 11.7043 13.6976 11.3995 13.6976Z" fill="#141414"/>
</svg>
