<svg version="1.1" viewBox="0 0 24 24" xmlns="http://www.w3.org/2000/svg" xmlns:xlink="http://www.w3.org/1999/xlink" x="0px" y="0px"  style="fill: transparent;">
<path fill-rule="evenodd" clip-rule="evenodd" d="M19.7146 5.15942C21.4123 6.71888 22.8525 8.82179 23.9297 11.35C24.0234 11.5745 24.0234 11.8344 23.9297 12.047C21.4241 17.9305 16.963 21.4511 11.9984 21.4511H11.9867C9.7269 21.4511 7.56076 20.7068 5.65222 19.3482L3.3807 21.6401C3.20507 21.8173 2.9826 21.9 2.76013 21.9C2.53766 21.9 2.30348 21.8173 2.13956 21.6401C1.84684 21.3447 1.8 20.8722 2.03418 20.5296L2.06931 20.4823L19.3867 3.00925C19.4101 2.98562 19.4335 2.96199 19.4453 2.93837C19.4687 2.91474 19.4921 2.89111 19.5038 2.86748L20.6044 1.75696C20.9557 1.41435 21.506 1.41435 21.8456 1.75696C22.1968 2.09957 22.1968 2.66664 21.8456 3.00925L19.7146 5.15942ZM9.36393 15.6031C10.1133 16.1111 11.0266 16.4183 11.9984 16.4183C14.5744 16.4183 16.6703 14.3035 16.6703 11.7044C16.6703 10.7239 16.3658 9.80236 15.8623 9.04626L14.5861 10.334C14.7968 10.7357 14.9139 11.2082 14.9139 11.7044C14.9139 13.323 13.6025 14.6461 11.9984 14.6461C11.5066 14.6461 11.0383 14.528 10.6402 14.3153L9.36393 15.6031Z" fill="#130F26"/>
<path d="M7.31804 11.709C7.31804 12.0162 7.35316 12.3234 7.4 12.6069L3.06772 16.9781C1.89684 15.6077 0.878164 13.9537 0.0702532 12.0516C-0.0234177 11.839 -0.0234177 11.5791 0.0702532 11.3546C2.57595 5.47119 7.03702 1.9624 11.9899 1.9624H12.0016C13.6759 1.9624 15.3035 2.36408 16.8022 3.12019L12.8915 7.0661C12.6104 7.01884 12.306 6.9834 12.0016 6.9834C9.41392 6.9834 7.31804 9.09812 7.31804 11.709Z" fill="#130F26"/>
</svg>
