<svg version="1.1" viewBox="0 0 24 24" xmlns="http://www.w3.org/2000/svg" xmlns:xlink="http://www.w3.org/1999/xlink" x="0px" y="0px"  style="fill: transparent;">
<path fill-rule="evenodd" clip-rule="evenodd" d="M19.7237 4.27803C16.9191 1.4829 12.3825 1.48477 9.59055 4.27673L9.58867 4.2786C7.64244 6.21539 7.05079 9.0074 7.81059 11.4768C7.92945 11.863 7.82504 12.2834 7.53926 12.5692L2.4194 17.689C2.38213 17.7293 2.30391 17.8457 2.24364 18.0265C2.1814 18.2132 2.17802 18.3493 2.18455 18.3942L2.18582 18.4029L2.51169 20.7711C2.53254 20.897 2.61503 21.0725 2.77424 21.2325C2.93582 21.3948 3.10544 21.4702 3.21835 21.4861C3.21815 21.4861 3.21856 21.4861 3.21835 21.4861L5.60494 21.8145C5.6621 21.8228 5.80351 21.8184 5.98127 21.7608C6.16095 21.7026 6.26344 21.6273 6.29061 21.5993L6.30253 21.5872L7.39718 20.4949L5.65794 18.7557C5.23184 18.3296 5.23184 17.6387 5.65794 17.2126C6.08405 16.7865 6.7749 16.7865 7.20101 17.2126L8.94188 18.9535L11.4417 16.459C11.7287 16.1726 12.151 16.0689 12.5381 16.19C14.9888 16.9564 17.7821 16.3603 19.7339 14.4188C22.5257 11.6263 22.5255 7.07041 19.7237 4.27803ZM8.04842 2.73272C11.6941 -0.91194 17.6097 -0.909754 21.2641 2.73236C24.9215 6.37732 24.9214 12.3174 21.2764 15.9625L21.2745 15.9644C18.9015 18.3259 15.5709 19.1615 12.5358 18.4501L7.84898 23.1269C7.50608 23.4769 7.06081 23.7049 6.65402 23.8367C6.24408 23.9696 5.76015 24.0414 5.29514 23.9747L2.91876 23.6476C2.24607 23.5542 1.65769 23.204 1.22763 22.772C0.797304 22.3397 0.45433 21.7543 0.353601 21.095L0.351273 21.079L0.0244403 18.704C-0.0440765 18.2267 0.0397058 17.7375 0.1734 17.3364C0.307827 16.9331 0.532376 16.4999 0.856547 16.1659L0.867976 16.1543L5.55082 11.4715C4.84857 8.43283 5.67014 5.10013 8.04842 2.73272ZM14.7327 8.72036C14.4314 8.72036 14.1871 8.96462 14.1871 9.26592C14.1871 9.56722 14.4314 9.81147 14.7327 9.81147C15.034 9.81147 15.2782 9.56722 15.2782 9.26592C15.2782 8.96462 15.034 8.72036 14.7327 8.72036ZM12.0049 9.26592C12.0049 7.75941 13.2262 6.53814 14.7327 6.53814C16.2392 6.53814 17.4605 7.75941 17.4605 9.26592C17.4605 10.7724 16.2392 11.9937 14.7327 11.9937C13.2262 11.9937 12.0049 10.7724 12.0049 9.26592Z" fill="#141414"/>
</svg>
