<svg version="1.1" viewBox="0 0 24 24" xmlns="http://www.w3.org/2000/svg" xmlns:xlink="http://www.w3.org/1999/xlink" x="0px" y="0px"  style="fill: transparent;">
<path d="M17.0365 0H6.97548C2.6053 0 0 2.604 0 6.972V17.016C0 21.396 2.6053 24 6.97548 24H17.0245C21.3947 24 24 21.396 24 17.028V6.972C24.012 2.604 21.4067 0 17.0365 0ZM6.00299 13.572C5.13856 13.572 4.43021 12.864 4.43021 12C4.43021 11.136 5.13856 10.428 6.00299 10.428C6.86742 10.428 7.57578 11.136 7.57578 12C7.57578 12.864 6.86742 13.572 6.00299 13.572ZM12.006 13.572C11.1416 13.572 10.4332 12.864 10.4332 12C10.4332 11.136 11.1416 10.428 12.006 10.428C12.8704 10.428 13.5788 11.136 13.5788 12C13.5788 12.864 12.8704 13.572 12.006 13.572ZM18.009 13.572C17.1445 13.572 16.4362 12.864 16.4362 12C16.4362 11.136 17.1445 10.428 18.009 10.428C18.8734 10.428 19.5818 11.136 19.5818 12C19.5818 12.864 18.8734 13.572 18.009 13.572Z" fill="#141414"/>
</svg>
