<svg version="1.1" viewBox="0 0 24 24" xmlns="http://www.w3.org/2000/svg" xmlns:xlink="http://www.w3.org/1999/xlink" x="0px" y="0px"  style="fill: transparent;">
<path d="M12 0C8.67429 0 5.69143 1.33714 3.51429 3.51429C1.33714 5.67429 0 8.69143 0 12C0 15.3086 1.33714 18.3257 3.51429 20.4857C5.69143 22.6629 8.67429 24 12 24C15.3257 24 18.3086 22.6629 20.4857 20.4857C22.6629 18.3257 24 15.3086 24 12C24 5.36571 18.6343 0 12 0ZM15.8914 14.0743C16.4057 14.5886 16.4057 15.3943 15.8914 15.9086C15.6514 16.1657 15.3086 16.2857 14.9829 16.2857C14.6571 16.2857 14.3314 16.1657 14.0743 15.9086L12 13.8343L9.92571 15.9086C9.66857 16.1657 9.34286 16.2857 9.01714 16.2857C8.67429 16.2857 8.34857 16.1657 8.09143 15.9086C7.59429 15.3943 7.59429 14.5886 8.09143 14.0743L10.1657 12L8.09143 9.92571C7.59429 9.42857 7.59429 8.60571 8.09143 8.09143C8.60571 7.59429 9.41143 7.59429 9.92571 8.09143L12 10.1829L14.0743 8.09143C14.5886 7.59429 15.3943 7.59429 15.9086 8.09143C16.4057 8.60571 16.4057 9.41143 15.9086 9.92571L13.8343 12L15.8914 14.0743Z" fill="#141414"/>
</svg>
