<svg version="1.1" viewBox="0 0 24 24" xmlns="http://www.w3.org/2000/svg" xmlns:xlink="http://www.w3.org/1999/xlink" x="0px" y="0px"  style="fill: transparent;">
<path fill-rule="evenodd" clip-rule="evenodd" d="M3.44606 8.29977C3.44606 3.714 7.16006 0 11.7458 0C16.3105 0 20.044 3.7356 20.0564 8.29681L20.0564 8.29977L20.0564 10.5752C20.0564 10.8101 20.1095 11.1695 20.2168 11.5597C20.3242 11.9505 20.4621 12.285 20.5832 12.4858L20.585 12.4888L21.9611 14.7858C23.1056 16.6985 22.1979 19.1841 20.074 19.892C18.7863 20.3204 17.4728 20.6468 16.1469 20.8709C15.4998 22.6896 13.7582 24 11.7242 24C10.4349 24 9.25351 23.4626 8.41172 22.6208C7.92422 22.1333 7.5388 21.5319 7.30073 20.8616C5.99347 20.6378 4.69912 20.3147 3.42912 19.8922C2.36567 19.5378 1.56226 18.7897 1.20259 17.8161C0.843081 16.843 0.965996 15.7522 1.5399 14.7883L1.54139 14.7858L2.91746 12.4888L2.91926 12.4858C3.04123 12.2837 3.17896 11.951 3.28595 11.563C3.39277 11.1756 3.44606 10.8162 3.44606 10.5752V8.29977ZM10.0456 21.1845C10.4945 21.5865 11.0905 21.833 11.7242 21.833C12.3655 21.833 12.9543 21.5883 13.4018 21.1881C12.2841 21.2581 11.1631 21.2569 10.0456 21.1845ZM11.7458 2.16704C8.35689 2.16704 5.6131 4.91083 5.6131 8.29977V10.5752C5.6131 11.071 5.5147 11.6325 5.37502 12.1391C5.23571 12.6443 5.0325 13.1776 4.77574 13.6036C4.77538 13.6042 4.77502 13.6048 4.77466 13.6054L3.40188 15.897C3.40166 15.8974 3.40145 15.8977 3.40123 15.8981C3.13063 16.3532 3.12362 16.7627 3.23535 17.0652C3.34701 17.3674 3.61694 17.6706 4.11376 17.8362C9.07058 19.4848 14.4319 19.4848 19.3887 17.8362C20.1902 17.569 20.5392 16.6306 20.1021 15.8995L18.7278 13.6054C18.7275 13.6048 18.7271 13.6042 18.7268 13.6036C18.4692 13.1763 18.2661 12.6393 18.1273 12.1342C17.988 11.6278 17.8894 11.0662 17.8894 10.5752V8.30128C17.8794 4.93177 15.1121 2.16704 11.7458 2.16704ZM11.7242 4.81084C12.3226 4.81084 12.8077 5.29594 12.8077 5.89436V9.50248C12.8077 10.1009 12.3226 10.586 11.7242 10.586C11.1258 10.586 10.6406 10.1009 10.6406 9.50248V5.89436C10.6406 5.29594 11.1258 4.81084 11.7242 4.81084Z" fill="#141414"/>
</svg>
