<svg version="1.1" viewBox="0 0 24 24" xmlns="http://www.w3.org/2000/svg" xmlns:xlink="http://www.w3.org/1999/xlink" x="0px" y="0px"  style="fill: transparent;">
<path fill-rule="evenodd" clip-rule="evenodd" d="M23.4916 7.6587C24.3183 5.15875 24.1924 2.79299 22.7015 1.29989C21.2091 -0.194766 18.8442 -0.319708 16.3432 0.513955L6.03054 3.95151C4.21921 4.55741 2.76574 5.28776 1.74117 6.13447C0.720804 6.9777 0 8.0502 0 9.3102C0 10.5706 0.72119 11.6425 1.74214 12.4844C2.767 13.3296 4.22121 14.0577 6.03235 14.6604L8.51629 15.4884L9.34447 17.9729C9.94729 19.7844 10.6761 21.2382 11.5224 22.2631C12.3655 23.2842 13.4385 24.0046 14.699 24.0046C15.9594 24.0046 17.0324 23.2842 17.8756 22.2631C18.7219 21.2382 19.4509 19.7838 20.0537 17.9723L23.4916 7.6587ZM17.1114 2.81839C19.2378 2.10958 20.4437 2.47653 20.9826 3.01623C21.5229 3.5574 21.8885 4.76918 21.1853 6.89601L17.7489 17.2054C17.198 18.8611 16.5878 20.0077 16.0025 20.7165C15.414 21.4291 14.9628 21.5756 14.699 21.5756C14.4352 21.5756 13.9839 21.4291 13.3954 20.7165C12.8102 20.0077 12.1998 18.8605 11.6489 17.2047L10.7929 14.6369L14.9149 10.5034C15.3886 10.0284 15.3875 9.25941 14.9125 8.78576C14.4376 8.31211 13.6685 8.31318 13.1949 8.78815L8.92939 13.0656L6.79929 12.3555C5.14319 11.8045 3.99637 11.1949 3.28758 10.6104C2.57477 10.0226 2.42908 9.57256 2.42908 9.3102C2.42908 9.04746 2.57516 8.59647 3.28856 8.00692C3.99762 7.42094 5.14535 6.80906 6.8011 6.25514L17.1114 2.81839Z" fill="#141414"/>
</svg>
