<svg version="1.1" viewBox="0 0 24 24" xmlns="http://www.w3.org/2000/svg" xmlns:xlink="http://www.w3.org/1999/xlink" x="0px" y="0px"  style="fill: transparent;">
<path d="M7.6433 11.9823C7.04026 11.9823 6.5514 12.47 6.5514 13.0716C6.5514 13.6732 7.04026 14.1609 7.6433 14.1609H8.7352V15.2502C8.7352 15.8518 9.22406 16.3395 9.8271 16.3395C10.4301 16.3395 10.919 15.8518 10.919 15.2502V14.1609H12.0109C12.6139 14.1609 13.1028 13.6732 13.1028 13.0716C13.1028 12.47 12.6139 11.9823 12.0109 11.9823H10.919V10.893C10.919 10.2914 10.4301 9.8037 9.8271 9.8037C9.22406 9.8037 8.7352 10.2914 8.7352 10.893V11.9823H7.6433Z" fill="#141414"/>
<path fill-rule="evenodd" clip-rule="evenodd" d="M19.4647 16.8037C20.7485 16.5553 21.8374 15.9993 22.6353 15.0646C23.5968 13.938 24 12.419 24 10.6643V6.30706C24 4.40085 23.52 2.77083 22.3713 1.62485C21.2226 0.47887 19.5887 0 17.6779 0H10.6897C8.93548 0 7.41365 0.402587 6.28369 1.36094C5.34573 2.15646 4.78567 3.24275 4.53578 4.52494C3.25052 4.77422 2.16162 5.33296 1.36419 6.26869C0.403547 7.39596 0 8.91417 0 10.6643V15.0215C0 17.2937 0.445881 19.0074 1.68262 20.0848C2.88266 21.1302 4.56261 21.3285 6.32211 21.3285H6.64965L7.89296 22.9823L7.89383 22.9834C8.3564 23.601 9.04118 24 9.81618 24C10.5911 24 11.2758 23.6011 11.7384 22.9836L11.7394 22.9823L12.9827 21.3285H13.3103C15.0627 21.3285 16.5849 20.9295 17.7155 19.9723C18.655 19.177 19.2151 18.0895 19.4647 16.8037ZM14.6882 4.44993C14.2484 4.38713 13.788 4.3572 13.3103 4.3572C13.3103 4.3572 13.3103 4.3572 13.3103 4.3572H6.83089C7.02959 3.76505 7.32932 3.33362 7.69818 3.02077C8.29888 2.5113 9.24475 2.1786 10.6897 2.1786H17.6779C19.2503 2.1786 20.2315 2.57117 20.8271 3.16535C21.4227 3.75953 21.8162 4.7384 21.8162 6.30706V10.6643C21.8162 12.1121 21.4823 13.0549 20.9726 13.6521C20.6593 14.0192 20.2268 14.3172 19.6324 14.5148V10.6643C19.6324 8.75805 19.1524 7.12803 18.0037 5.98205C17.1421 5.12256 16.0077 4.63833 14.6882 4.44993ZM14.6709 6.65516C14.2758 6.57781 13.8247 6.5358 13.3103 6.5358C13.3103 6.5358 13.3103 6.5358 13.3103 6.5358H6.32215M14.6709 6.65516C15.4834 6.81424 16.0587 7.12276 16.4595 7.52255C17.0551 8.11673 17.4486 9.0956 17.4486 10.6643V15.0215C17.4486 15.279 17.4385 15.5026 17.4133 15.7033C17.4115 15.7175 17.41 15.7317 17.4088 15.746C17.3001 17.0191 16.888 17.8156 16.3026 18.3112C15.7026 18.8191 14.7571 19.1499 13.3103 19.1499H12.8735C12.2568 19.1499 11.6711 19.442 11.3011 19.9342L9.99089 21.6771L9.98942 21.679C9.92955 21.759 9.87926 21.7942 9.85303 21.8084C9.82795 21.822 9.81653 21.8214 9.81613 21.8214C9.81523 21.8214 9.80381 21.8217 9.77934 21.8084C9.75311 21.7942 9.70281 21.759 9.64295 21.679L8.33121 19.9342L8.32502 19.9261C8.12653 19.6671 7.86455 19.4862 7.63764 19.3718C7.41142 19.2578 7.10129 19.1499 6.75886 19.1499H6.32211C4.59844 19.1499 3.66329 18.9179 3.11901 18.4438C2.61144 18.0016 2.1838 17.1064 2.1838 15.0215V10.6643C2.1838 9.2227 2.51729 8.27909 3.02798 7.67981C3.52674 7.09455 4.3262 6.68375 5.5962 6.57542C5.61037 6.57421 5.62451 6.57273 5.63862 6.57097C5.66378 6.56783 5.6893 6.56493 5.7152 6.56225" fill="#141414"/>
</svg>
