<svg version="1.1" viewBox="0 0 24 24" xmlns="http://www.w3.org/2000/svg" xmlns:xlink="http://www.w3.org/1999/xlink" x="0px" y="0px"  style="fill: transparent;">
<path d="M12.1852 0.268093C12.6397 -0.127487 13.3287 -0.0797733 13.7243 0.374665L16.8654 3.98316C16.8899 4.01047 16.9133 4.03928 16.9354 4.06955L16.9362 4.07061C16.9796 4.13008 17.0161 4.19275 17.0459 4.2576C17.2569 4.7159 17.1262 5.2735 16.7076 5.58637C16.7023 5.59038 16.6969 5.59432 16.6915 5.59821L13.0211 8.27751C12.5345 8.63274 11.852 8.52621 11.4968 8.03958C11.1416 7.55295 11.2481 6.87048 11.7347 6.51526L13.4516 5.26199C12.8549 5.1426 12.2221 5.07272 11.5491 5.07272C6.92613 5.07272 3.18182 8.81703 3.18182 13.44C3.18182 18.0747 6.92695 21.8182 11.5491 21.8182C16.1721 21.8182 19.9164 18.0739 19.9164 13.4509C19.9164 11.7325 19.3956 10.1309 18.5069 8.79785C18.1727 8.29655 18.3081 7.61923 18.8094 7.28503C19.3107 6.95083 19.988 7.08629 20.3222 7.58759C21.4408 9.26541 22.0982 11.2856 22.0982 13.4509C22.0982 19.2789 17.377 24 11.5491 24C5.72033 24 1 19.278 1 13.44C1 7.61205 5.72115 2.8909 11.5491 2.8909C12.0923 2.8909 12.6132 2.92806 13.1123 2.99466L12.0786 1.80719C11.6831 1.35275 11.7308 0.663673 12.1852 0.268093Z" fill="#141414"/>
</svg>
