<svg version="1.1" viewBox="0 0 24 24" xmlns="http://www.w3.org/2000/svg" xmlns:xlink="http://www.w3.org/1999/xlink" x="0px" y="0px"  style="fill: transparent;">
<path d="M18.2686 0H8.09257C4.78057 0 3.58057 1.2 3.58057 4.572V19.428C3.58057 22.8 4.78057 24 8.09257 24H18.2566C21.5806 24 22.7806 22.8 22.7806 19.428V4.572C22.7806 1.2 21.5806 0 18.2686 0ZM13.1806 20.76C12.0286 20.76 11.0806 19.812 11.0806 18.66C11.0806 17.508 12.0286 16.56 13.1806 16.56C14.3326 16.56 15.2806 17.508 15.2806 18.66C15.2806 19.812 14.3326 20.76 13.1806 20.76ZM15.5806 5.1H10.7806C10.2886 5.1 9.88057 4.692 9.88057 4.2C9.88057 3.708 10.2886 3.3 10.7806 3.3H15.5806C16.0726 3.3 16.4806 3.708 16.4806 4.2C16.4806 4.692 16.0726 5.1 15.5806 5.1Z" fill="#141414"/>
</svg>
