<svg version="1.1" viewBox="0 0 24 24" xmlns="http://www.w3.org/2000/svg" xmlns:xlink="http://www.w3.org/1999/xlink" x="0px" y="0px"  style="fill: transparent;">
<path fill-rule="evenodd" clip-rule="evenodd" d="M11.6106 0C7.97568 0 5.02855 2.94676 5.02741 6.58227C5.01557 10.2073 7.94327 13.1558 11.5697 13.1688L11.5739 13.1688H11.6106C15.2473 13.1688 18.195 10.221 18.195 6.58438C18.195 2.94774 15.2473 0 11.6106 0Z" fill="#141414"/>
<path fill-rule="evenodd" clip-rule="evenodd" d="M11.6105 14.7301C9.31263 14.7301 7.04523 14.8993 5.316 15.479C4.44539 15.7709 3.62342 16.195 3.00852 16.8333C2.36556 17.5007 2 18.3522 2 19.3526C2 20.3505 2.36221 21.2021 3.00135 21.8718C3.61323 22.513 4.43235 22.9412 5.30242 23.237C7.03014 23.8243 9.29883 24 11.6105 24C13.9091 24 16.1765 23.8304 17.9056 23.2505C18.7761 22.9586 19.5979 22.5345 20.2127 21.8962C20.8555 21.2289 21.221 20.3776 21.221 19.3775C21.221 18.3798 20.8588 17.5284 20.2199 16.8588C19.6081 16.2177 18.7891 15.7894 17.9192 15.4935C16.1916 14.906 13.9229 14.7301 11.6105 14.7301Z" fill="#141414"/>
</svg>
