<svg version="1.1" viewBox="0 0 24 24" xmlns="http://www.w3.org/2000/svg" xmlns:xlink="http://www.w3.org/1999/xlink" x="0px" y="0px"  style="fill: transparent;">
<path fill-rule="evenodd" clip-rule="evenodd" d="M12 12.55C11.2441 12.55 10.5051 12.7743 9.87669 13.1945C9.24828 13.6147 8.75866 14.2119 8.46983 14.9105C8.181 15.6091 8.10594 16.3777 8.25415 17.1189C8.40236 17.8602 8.76717 18.5408 9.30241 19.0747C9.83764 19.6085 10.5192 19.9715 11.2609 20.1178C12.0026 20.2641 12.771 20.187 13.4688 19.8963C14.1666 19.6057 14.7625 19.1145 15.1811 18.485C15.5996 17.8555 15.822 17.1159 15.82 16.36C15.8174 15.3486 15.4137 14.3795 14.6976 13.6653C13.9815 12.9511 13.0114 12.55 12 12.55ZM12 18C11.6756 18 11.3586 17.9038 11.0889 17.7236C10.8192 17.5434 10.609 17.2873 10.4848 16.9876C10.3607 16.6879 10.3282 16.3582 10.3915 16.0401C10.4548 15.7219 10.611 15.4297 10.8403 15.2003C11.0697 14.971 11.3619 14.8148 11.6801 14.7515C11.9982 14.6882 12.3279 14.7207 12.6276 14.8448C12.9273 14.969 13.1834 15.1792 13.3636 15.4489C13.5438 15.7186 13.64 16.0356 13.64 16.36C13.64 16.795 13.4672 17.2121 13.1597 17.5197C12.8521 17.8272 12.435 18 12 18Z" fill="#141414"/>
<path fill-rule="evenodd" clip-rule="evenodd" d="M22.59 10.14C21.7758 9.3965 20.7387 8.94297 19.64 8.85V7.64C19.7673 5.75442 19.2489 3.88168 18.17 2.33C16.93 0.79 14.91 0 12 0C9.09 0 7.07 0.79 5.83 2.33C4.75114 3.88168 4.2327 5.75442 4.36 7.64V8.85C3.26133 8.94297 2.2242 9.3965 1.41 10.14C0.25 11.3 0 13.1 0 15.27V17.45C0 19.63 0.25 21.45 1.41 22.59C2.57 23.73 4.37 24 6.55 24H17.45C19.63 24 21.45 23.75 22.59 22.59C23.73 21.43 24 19.59 24 17.45V15.27C24 13.1 23.75 11.3 22.59 10.14ZM6.59 7.64C6.47351 6.24866 6.8255 4.85831 7.59 3.69C8.2 2.86 9.46 2.18 12 2.18C14.54 2.18 15.8 2.86 16.47 3.69C17.2455 4.87216 17.5979 6.282 17.47 7.69V8.73H6.55L6.59 7.64ZM21.86 17.45C21.86 19.64 21.56 20.58 21.09 21.05C20.62 21.52 19.68 21.82 17.49 21.82H6.55C4.36 21.82 3.42 21.52 2.95 21.05C2.48 20.58 2.18 19.64 2.18 17.45V15.27C2.18 13.08 2.48 12.15 2.95 11.68C3.42 11.21 4.36 10.91 6.55 10.91H17.45C19.64 10.91 20.58 11.21 21.05 11.68C21.52 12.15 21.82 13.08 21.82 15.27L21.86 17.45Z" fill="#141414"/>
</svg>
