<svg version="1.1" viewBox="0 0 24 24" xmlns="http://www.w3.org/2000/svg" xmlns:xlink="http://www.w3.org/1999/xlink" x="0px" y="0px"  style="fill: transparent;">
<path fill-rule="evenodd" clip-rule="evenodd" d="M20.111 15.3118C22.781 13.1718 26.851 8.39182 21.111 7.18182C20.821 7.09182 17.301 6.67182 17.201 6.39182C16.921 6.39182 15.121 2.44182 14.961 2.21182C11.891 -3.29818 8.56098 2.83182 7.31098 6.05182C7.02098 6.84182 3.69098 7.00182 3.02098 7.18182C-3.36902 9.00182 2.02098 13.0018 4.25098 15.7618C4.38098 18.0218 2.07098 21.6818 4.41098 23.4018C6.75098 25.1218 9.81098 21.5818 12.071 21.0518C12.401 20.8718 15.521 22.9618 15.851 23.0518C18.631 25.0518 21.681 22.8418 20.611 19.5818C20.521 18.9018 19.411 15.9018 20.111 15.3118ZM18.571 13.7718C16.351 15.5218 19.131 19.8318 18.451 21.6418C17.051 21.9318 13.741 18.6418 12.071 18.8718C10.431 18.6018 7.07098 21.9418 5.70098 21.6318C5.14098 21.4218 6.32098 17.4018 6.42098 16.7618C7.42098 11.9718 -3.68902 9.76182 6.88098 8.76182C9.88098 9.11182 11.111 -0.568181 12.961 3.19182C13.531 4.14182 14.861 7.62182 15.861 8.19182C20.601 10.3918 25.021 7.79182 18.571 13.7718Z" fill="#141414"/>
</svg>
