<svg version="1.1" viewBox="0 0 24 24" xmlns="http://www.w3.org/2000/svg" xmlns:xlink="http://www.w3.org/1999/xlink" x="0px" y="0px"  style="fill: transparent;">
<path d="M19.9945 13.9833C18.6145 13.9833 17.3745 14.5442 16.4745 15.4457L10.9545 12.6811C10.9945 12.4608 10.9945 12.2204 10.9945 12C10.9945 11.7796 10.9745 11.5392 10.9545 11.3189L16.4745 8.55426C17.3745 9.45576 18.6145 10.0167 19.9945 10.0167C22.7545 10.0167 24.9945 7.77295 24.9945 5.00835C24.9945 2.24374 22.7545 0 19.9945 0C17.2345 0 14.9945 2.24374 14.9945 5.00835C14.9945 5.24875 15.0145 5.46912 15.0345 5.68948L9.51451 8.45409C8.61451 7.55259 7.37451 6.99165 5.99451 6.99165C3.23451 6.99165 0.994507 9.23539 0.994507 12C0.994507 14.7646 3.23451 17.0083 5.99451 17.0083C7.37451 17.0083 8.61451 16.4474 9.51451 15.5459L15.0345 18.3105C14.9945 18.5309 14.9945 18.7713 14.9945 18.9917C14.9945 21.7563 17.2345 24 19.9945 24C22.7545 24 24.9945 21.7563 24.9945 18.9917C24.9945 16.227 22.7545 13.9833 19.9945 13.9833Z" fill="#141414"/>
</svg>
