<svg version="1.1" viewBox="0 0 24 24" xmlns="http://www.w3.org/2000/svg" xmlns:xlink="http://www.w3.org/1999/xlink" x="0px" y="0px"  style="fill: transparent;">
<path d="M12.0014 14.4949C13.6053 14.4949 14.9165 13.1916 14.9165 11.5974C14.9165 9.99162 13.6053 8.68835 12.0014 8.68835C11.8609 8.68835 11.7204 8.69999 11.5916 8.72326C11.5448 10.0033 10.4912 11.0273 9.19165 11.0273H9.13311C9.09799 11.2134 9.07458 11.3996 9.07458 11.5974C9.07458 13.1916 10.3858 14.4949 12.0014 14.4949Z" fill="#130F26"/>
<path fill-rule="evenodd" clip-rule="evenodd" d="M18.8839 4.45527C20.9327 6.03782 22.6771 8.35345 23.9298 11.2509C24.0234 11.472 24.0234 11.728 23.9298 11.9375C21.4244 17.7324 16.9639 21.2 12 21.2H11.9883C7.0361 21.2 2.57561 17.7324 0.0702439 11.9375C-0.0234146 11.728 -0.0234146 11.472 0.0702439 11.2509C2.57561 5.456 7.0361 2 11.9883 2H12C14.482 2 16.8351 2.86109 18.8839 4.45527ZM7.31707 11.6C7.31707 14.16 9.41268 16.2429 12 16.2429C14.5756 16.2429 16.6712 14.16 16.6712 11.6C16.6712 9.02836 14.5756 6.94545 12 6.94545C9.41268 6.94545 7.31707 9.02836 7.31707 11.6Z" fill="#130F26"/>
</svg>
