<svg version="1.1" viewBox="0 0 24 24" xmlns="http://www.w3.org/2000/svg" xmlns:xlink="http://www.w3.org/1999/xlink" x="0px" y="0px"  style="fill: transparent;">
<path fill-rule="evenodd" clip-rule="evenodd" d="M10.7596 0.25C7.16096 0.25 4.24328 3.16731 4.24215 6.76649C4.23043 10.3553 7.12887 13.2743 10.7191 13.2872L10.7233 13.2872H10.7596C14.3599 13.2872 17.2781 10.3689 17.2781 6.76858C17.2781 3.16828 14.3599 0.25 10.7596 0.25ZM6.58359 6.76858C6.58359 4.46126 8.45374 2.59145 10.7596 2.59145C13.0667 2.59145 14.9367 4.46142 14.9367 6.76858C14.9367 9.07575 13.0667 10.9457 10.7596 10.9457H10.7254C8.42853 10.9364 6.57537 9.06869 6.58359 6.77278L6.58359 6.76858Z" fill="#141414"/>
<path fill-rule="evenodd" clip-rule="evenodd" d="M10.7595 14.8329C8.48455 14.8329 6.23981 15.0004 4.52786 15.5744C3.66595 15.8633 2.8522 16.2832 2.24344 16.9151C1.6069 17.5758 1.245 18.4188 1.245 19.4092C1.245 20.3972 1.60358 21.2402 2.23634 21.9033C2.84211 22.538 3.65304 22.962 4.51441 23.2548C6.22487 23.8363 8.47089 24.0102 10.7595 24.0102C13.0351 24.0102 15.2798 23.8423 16.9916 23.2682C17.8535 22.9791 18.6671 22.5593 19.2757 21.9274C19.9121 21.2668 20.2739 20.4239 20.2739 19.4338C20.2739 18.4461 19.9154 17.6033 19.2828 16.9403C18.6771 16.3056 17.8664 15.8816 17.0051 15.5887C15.2947 15.0071 13.0487 14.8329 10.7595 14.8329ZM3.58644 19.4092C3.58644 19.0369 3.70497 18.7728 3.92972 18.5395C4.18225 18.2774 4.61063 18.0161 5.27213 17.7944C6.60698 17.3469 8.53411 17.1743 10.7595 17.1743C12.995 17.1743 14.9209 17.3531 16.2512 17.8055C16.9103 18.0296 17.337 18.2929 17.5888 18.5568C17.8137 18.7924 17.9325 19.0594 17.9325 19.4338C17.9325 19.8058 17.814 20.0698 17.5893 20.3031C17.3368 20.5652 16.9085 20.8264 16.2471 21.0483C14.9124 21.4959 12.9853 21.6687 10.7595 21.6687C8.52436 21.6687 6.59851 21.4902 5.26801 21.038C4.6089 20.8139 4.18209 20.5507 3.93023 20.2867C3.70536 20.0511 3.58644 19.784 3.58644 19.4092Z" fill="#141414"/>
<path d="M21.6789 7.17973C22.3255 7.17973 22.8496 7.70388 22.8496 8.35045V9.52689H24.0743C24.7208 9.52689 25.245 10.051 25.245 10.6976C25.245 11.3442 24.7208 11.8683 24.0743 11.8683H22.8496V13.0451C22.8496 13.6916 22.3255 14.2158 21.6789 14.2158C21.0323 14.2158 20.5082 13.6916 20.5082 13.0451V11.8683H19.286C18.6394 11.8683 18.1153 11.3442 18.1153 10.6976C18.1153 10.051 18.6394 9.52689 19.286 9.52689H20.5082V8.35045C20.5082 7.70388 21.0323 7.17973 21.6789 7.17973Z" fill="#141414"/>
</svg>
