<svg version="1.1" viewBox="0 0 24 24" xmlns="http://www.w3.org/2000/svg" xmlns:xlink="http://www.w3.org/1999/xlink" x="0px" y="0px"  style="fill: transparent;">
<path fill-rule="evenodd" clip-rule="evenodd" d="M12 2.18182C6.58064 2.18182 2.18179 6.58067 2.18179 12C2.18179 17.4193 6.58064 21.8182 12 21.8182C17.4193 21.8182 21.8182 17.4193 21.8182 12C21.8182 6.58067 17.4193 2.18182 12 2.18182ZM-3.05176e-05 12C-3.05176e-05 5.37569 5.37566 0 12 0C18.6243 0 24 5.37569 24 12C24 18.6243 18.6243 24 12 24C5.37566 24 -3.05176e-05 18.6243 -3.05176e-05 12Z" fill="#141414"/>
<path d="M11.9193 13.8182C11.3857 13.8182 10.9195 13.3674 11.118 12.8721C11.1238 12.8577 11.1297 12.8434 11.1358 12.8292C11.2575 12.5452 11.4147 12.2916 11.6074 12.0685C11.8001 11.8453 12.003 11.6374 12.216 11.4447C12.4392 11.2519 12.6471 11.0643 12.8398 10.8817C13.0326 10.6991 13.1898 10.5064 13.3115 10.3035C13.4332 10.1007 13.4941 9.87245 13.4941 9.61887C13.4941 9.19285 13.3216 8.84798 12.9768 8.58425C12.6319 8.32053 12.1704 8.18866 11.5922 8.18866C11.0343 8.18866 10.5475 8.2901 10.1316 8.49296C9.97427 8.57162 9.82688 8.66323 9.68939 8.76781C9.31886 9.04964 8.8065 9.16168 8.41608 8.9081C7.99308 8.63338 7.88467 8.05031 8.26597 7.72015C8.57177 7.45537 8.91977 7.23117 9.30997 7.04755C9.99972 6.71282 10.8162 6.54545 11.7596 6.54545C12.5 6.54545 13.1492 6.65703 13.7071 6.88018C14.265 7.09319 14.7011 7.40763 15.0156 7.82351C15.33 8.22924 15.4872 8.72626 15.4872 9.31457C15.4872 9.7203 15.4213 10.0753 15.2894 10.3796C15.1677 10.6839 15.0054 10.9527 14.8026 11.186C14.6098 11.4092 14.4019 11.6222 14.1787 11.825C13.9556 12.0178 13.7426 12.2105 13.5397 12.4032C13.347 12.5959 13.1898 12.8039 13.0681 13.027C12.851 13.4249 12.5181 13.8182 12.0649 13.8182H11.9193ZM11.9269 17.4545C11.5719 17.4545 11.2778 17.3379 11.0445 17.1046C10.8213 16.8713 10.7097 16.5924 10.7097 16.2678C10.7097 15.9432 10.8213 15.6693 11.0445 15.4462C11.2778 15.2129 11.5719 15.0962 11.9269 15.0962C12.282 15.0962 12.571 15.2129 12.7942 15.4462C13.0173 15.6693 13.1289 15.9432 13.1289 16.2678C13.1289 16.5924 13.0173 16.8713 12.7942 17.1046C12.571 17.3379 12.282 17.4545 11.9269 17.4545Z" fill="#141414"/>
</svg>
