<svg version="1.1" viewBox="0 0 24 24" xmlns="http://www.w3.org/2000/svg" xmlns:xlink="http://www.w3.org/1999/xlink" x="0px" y="0px"  style="fill: transparent;">
<path d="M13.6622 11.6007C13.7524 11.564 13.8492 11.5458 13.9466 11.5472C14.0928 11.5472 14.2357 11.5905 14.3573 11.6716C14.4789 11.7527 14.5736 11.868 14.6296 12.0029C14.6855 12.1378 14.7001 12.2863 14.6716 12.4295C14.6431 12.5727 14.5727 12.7043 14.4693 12.8075C14.3659 12.9108 14.2342 12.9811 14.0908 13.0096C13.9474 13.0381 13.7988 13.0235 13.6637 12.9676C13.5286 12.9117 13.4132 12.8171 13.332 12.6957C13.2507 12.5742 13.2074 12.4315 13.2074 12.2855C13.2061 12.1882 13.2243 12.0916 13.261 12.0014C13.2976 11.9112 13.352 11.8293 13.4209 11.7605C13.4898 11.6916 13.5719 11.6373 13.6622 11.6007Z" fill="#141414"/>
<path d="M11.9852 11.5472C11.7891 11.5472 11.6011 11.625 11.4625 11.7634C11.3239 11.9019 11.246 12.0897 11.246 12.2855C11.267 12.4679 11.3545 12.6361 11.4917 12.7583C11.6289 12.8805 11.8063 12.948 11.9901 12.948C12.1739 12.948 12.3513 12.8805 12.4886 12.7583C12.6258 12.6361 12.7132 12.4679 12.7343 12.2855C12.7343 12.1877 12.7148 12.0909 12.6771 12.0006C12.6393 11.9104 12.584 11.8286 12.5143 11.7599C12.4446 11.6912 12.3619 11.637 12.2711 11.6005C12.1803 11.564 12.0831 11.5459 11.9852 11.5472Z" fill="#141414"/>
<path d="M9.72953 11.6007C9.81982 11.564 9.91654 11.5458 10.014 11.5472C10.1114 11.5458 10.2081 11.564 10.2984 11.6007C10.3887 11.6373 10.4707 11.6916 10.5396 11.7605C10.6086 11.8293 10.663 11.9112 10.6996 12.0014C10.7363 12.0916 10.7545 12.1882 10.7532 12.2855C10.7532 12.4813 10.6753 12.6691 10.5367 12.8075C10.3981 12.946 10.21 13.0238 10.014 13.0238C9.81793 13.0238 9.62991 12.946 9.49127 12.8075C9.35264 12.6691 9.27476 12.4813 9.27476 12.2855C9.27344 12.1882 9.29165 12.0916 9.32833 12.0014C9.36501 11.9112 9.41941 11.8293 9.48832 11.7605C9.55723 11.6916 9.63925 11.6373 9.72953 11.6007Z" fill="#141414"/>
<path fill-rule="evenodd" clip-rule="evenodd" d="M15.6715 8.7219V8.35767C15.6715 7.44216 15.6715 4.67596 11.9754 4.67596C8.28905 4.67596 8.28912 7.42758 8.28915 8.35038V8.7219C6.8797 9.00738 6.3179 9.91304 6.3179 11.7933V12.7777C6.3179 15.1403 7.15568 15.977 9.51132 15.977H14.4395C16.7951 15.977 17.6329 15.1403 17.6329 12.7777V11.813C17.6329 9.91304 17.0809 9.00738 15.6715 8.7219ZM11.9754 6.15258C13.7988 6.15258 14.1931 6.89089 14.1931 8.35767V8.60377H9.76759V8.35767C9.76759 6.89089 10.1224 6.15258 11.9754 6.15258ZM16.1544 12.7974C16.1544 14.3527 15.9967 14.5201 14.4395 14.5201H9.51132C7.95404 14.5201 7.79634 14.3527 7.79634 12.7974V11.813C7.79634 10.2576 7.95404 10.1001 9.51132 10.1001H14.4395C15.9967 10.1001 16.1544 10.2576 16.1544 11.813V12.7974Z" fill="#141414"/>
<path fill-rule="evenodd" clip-rule="evenodd" d="M16.3811 0H7.57947C2.62177 0 0 2.61854 0 7.57014V13.0632C0 19.3733 2.89774 20.6727 7.57947 20.6727H8.1117L8.22012 20.7219L9.85626 22.8778C10.0944 23.2154 10.4082 23.4927 10.7727 23.6875C11.1372 23.8824 11.5423 23.9894 11.9556 24C12.3705 23.9901 12.7773 23.8835 13.1435 23.6887C13.5097 23.4938 13.8253 23.2161 14.0649 22.8778L15.77 20.6727C15.7959 20.645 15.8309 20.6275 15.8686 20.6235H16.4205C21.3487 20.6235 24 18.0049 24 13.0533V7.57014C23.9606 2.61854 21.3388 0 16.3811 0ZM21.9893 13.0632C21.9893 16.8827 20.2053 18.6645 16.3811 18.6645H15.8292C15.5057 18.6664 15.1871 18.7429 14.8982 18.888C14.6093 19.0332 14.3578 19.243 14.1634 19.5012L12.5076 21.6571C12.4518 21.751 12.3744 21.8304 12.2819 21.8885C12.1893 21.9467 12.0843 21.9821 11.9754 21.9918C11.8682 21.9806 11.7651 21.9445 11.6744 21.8864C11.5836 21.8283 11.5078 21.7498 11.453 21.6571L9.85626 19.5111C9.64686 19.257 9.3834 19.0527 9.08503 18.9131C8.78667 18.7735 8.4609 18.702 8.13142 18.7039H7.57947C3.6271 18.7039 1.97125 17.8868 1.97125 13.0632V7.57014C1.97125 3.75062 3.75524 1.96883 7.57947 1.96883H16.3811C20.2053 1.96883 21.9893 3.75062 21.9893 7.57014V13.0632Z" fill="#141414"/>
</svg>
