<svg version="1.1" viewBox="0 0 24 24" xmlns="http://www.w3.org/2000/svg" xmlns:xlink="http://www.w3.org/1999/xlink" x="0px" y="0px"  style="fill: transparent;">
<path d="M10.5312 14.1222C11.8243 14.1268 13.0901 13.7497 14.1698 13.0382C15.2496 12.3266 16.0954 11.3123 16.6012 10.1222C16.9826 9.22254 17.1581 8.24908 17.115 7.27291C17.072 6.29675 16.8114 5.34253 16.3523 4.47997C15.8933 3.61741 15.2473 2.8683 14.4616 2.28736C13.676 1.70642 12.7704 1.30833 11.8112 1.12217C10.5353 0.860444 9.21002 0.992976 8.01122 1.50217C6.61881 2.09167 5.47235 3.14341 4.76526 4.47996C4.05817 5.8165 3.83374 7.35604 4.12983 8.83882C4.42591 10.3216 5.2244 11.6569 6.39056 12.6194C7.55673 13.5819 9.01919 14.1126 10.5312 14.1222Z" fill="#141414"/>
<path d="M16.8712 16.4822C14.8234 15.9026 12.6983 15.6428 10.5712 15.7122C8.45207 15.6456 6.33501 15.8984 4.29118 16.4622C3.42163 16.72 2.62849 17.1869 1.98118 17.8222C1.34486 18.4991 0.990601 19.3932 0.990601 20.3222C0.990601 21.2512 1.34486 22.1453 1.98118 22.8222C2.62572 23.4605 3.4147 23.9339 4.28118 24.2022C6.3248 24.7864 8.44677 25.0495 10.5712 24.9822C12.6946 25.0415 14.8148 24.782 16.8612 24.2122C17.7095 23.9547 18.4842 23.4988 19.1212 22.8822C19.7575 22.2053 20.1118 21.3112 20.1118 20.3822C20.1118 19.4532 19.7575 18.5591 19.1212 17.8822C18.4916 17.2453 17.7208 16.7656 16.8712 16.4822Z" fill="#141414"/>
<path d="M24.1612 12.4222C24.2765 12.5327 24.3683 12.6654 24.4312 12.8122C24.4906 12.9583 24.5212 13.1145 24.5212 13.2722C24.5232 13.431 24.4922 13.5886 24.4302 13.7349C24.3683 13.8812 24.2767 14.0131 24.1612 14.1222C24.0512 14.2406 23.9186 14.3358 23.7712 14.4022C23.626 14.4658 23.4697 14.4998 23.3112 14.5022C23.1491 14.5039 22.9886 14.4697 22.8412 14.4022C22.6923 14.3431 22.5589 14.2508 22.4512 14.1322L21.5712 13.2622L20.7412 14.0922C20.6346 14.2194 20.5015 14.3218 20.3512 14.3922C20.2089 14.4651 20.0511 14.5028 19.8912 14.5022C19.7272 14.5117 19.5632 14.4844 19.4112 14.4222C19.2618 14.3632 19.1258 14.2748 19.0112 14.1622C18.8922 14.047 18.8001 13.907 18.7412 13.7522C18.6896 13.6008 18.6626 13.4421 18.6612 13.2822C18.6716 13.1194 18.7123 12.96 18.7812 12.8122C18.8541 12.669 18.9524 12.5403 19.0712 12.4322L19.9112 11.5922L19.0312 10.7222C18.8133 10.4968 18.6914 10.1957 18.6912 9.88219C18.6935 9.57012 18.8194 9.27169 19.0412 9.05219C19.149 8.94186 19.2783 8.85478 19.421 8.79631C19.5638 8.73783 19.717 8.70921 19.8712 8.71219C20.0267 8.71071 20.181 8.73999 20.3251 8.79834C20.4693 8.85669 20.6005 8.94296 20.7112 9.05219L21.5712 9.92219L22.4212 9.08219C22.642 8.88073 22.9325 8.77314 23.2312 8.78219C23.5281 8.78708 23.8128 8.90097 24.0312 9.10219C24.241 9.31047 24.3688 9.58737 24.3912 9.88219C24.4096 10.1831 24.3131 10.4797 24.1212 10.7122L23.2912 11.5522L24.1612 12.4222Z" fill="#141414"/>
</svg>
