<svg version="1.1" viewBox="0 0 24 24" xmlns="http://www.w3.org/2000/svg" xmlns:xlink="http://www.w3.org/1999/xlink" x="0px" y="0px"  style="fill: transparent;">
<path d="M17.2611 0.504135L5.78547 4.31788C-1.92849 6.89852 -1.92849 11.1064 5.78547 13.6743L9.19131 14.8057L10.3223 18.2126C12.8894 25.9291 17.1086 25.9291 19.6757 18.2126L23.5009 6.74597C25.2038 1.59741 22.408 -1.21205 17.2611 0.504135ZM17.6678 7.34346L12.8386 12.1996C12.648 12.3903 12.4065 12.4793 12.1651 12.4793C11.9236 12.4793 11.6821 12.3903 11.4915 12.1996C11.123 11.831 11.123 11.2208 11.4915 10.8521L16.3207 5.99593C16.6892 5.62727 17.2992 5.62727 17.6678 5.99593C18.0363 6.36459 18.0363 6.97479 17.6678 7.34346Z" fill="#141414"/>
</svg>
