<svg version="1.1" viewBox="0 0 24 24" xmlns="http://www.w3.org/2000/svg" xmlns:xlink="http://www.w3.org/1999/xlink" x="0px" y="0px"  style="fill: transparent;">
<path d="M14.6549 6.71489C14.6549 9.88741 12.0588 12.4298 8.81922 12.4298C5.58086 12.4298 2.98359 9.88741 2.98359 6.71489C2.98359 3.54238 5.58086 1 8.81922 1C12.0588 1 14.6549 3.54238 14.6549 6.71489Z" fill="#141414"/>
<path d="M0 18.9008C0 15.964 4.06263 15.2292 8.8192 15.2292C13.6016 15.2292 17.6384 15.9893 17.6384 18.9284C17.6384 21.8651 13.5758 22.5999 8.8192 22.5999C4.0368 22.5999 0 21.8398 0 18.9008Z" fill="#141414"/>
<path d="M17.0079 6.81848C17.0079 8.43406 16.5124 9.94155 15.6436 11.1938C15.5531 11.3225 15.633 11.4962 15.7903 11.5238C16.0087 11.5594 16.233 11.5813 16.4619 11.5859C18.7398 11.6445 20.7841 10.2083 21.3489 8.0454C22.186 4.83609 19.7297 1.95449 16.6005 1.95449C16.2612 1.95449 15.9359 1.98899 15.6189 2.05223C15.5754 2.06143 15.5285 2.08213 15.505 2.11892C15.4745 2.16607 15.4968 2.22701 15.5273 2.26726C16.4678 3.55857 17.0079 5.13046 17.0079 6.81848Z" fill="#141414"/>
<path d="M20.7805 13.8426C22.3116 14.1359 23.3179 14.7326 23.7347 15.6031C24.0882 16.316 24.0882 17.1439 23.7347 17.8569C23.0972 19.2045 21.04 19.638 20.2404 19.7496C20.0749 19.7726 19.9422 19.6346 19.9598 19.4713C20.3684 15.7365 17.1195 13.9657 16.2788 13.5586C16.2435 13.5391 16.2353 13.5115 16.2388 13.4931C16.2412 13.4816 16.2564 13.4632 16.2835 13.4597C18.1022 13.4252 20.0584 13.6702 20.7805 13.8426Z" fill="#141414"/>
</svg>
