<svg version="1.1" viewBox="0 0 24 24" xmlns="http://www.w3.org/2000/svg" xmlns:xlink="http://www.w3.org/1999/xlink" x="0px" y="0px"  style="fill: transparent;">
<path fill-rule="evenodd" clip-rule="evenodd" d="M13.8635 1.23467C16.6598 1.84674 19.0721 3.70697 20.3202 6.22727C22.7445 11.0999 20.4042 16.3925 16.6838 18.9008V19.7409C16.6958 20.0649 16.7078 20.665 16.2517 21.1331C15.9157 21.4691 15.4236 21.6491 14.7756 21.6491H8.61882C8.12677 21.6491 7.50269 21.6011 7.08264 21.1691C6.67459 20.749 6.68659 20.233 6.69859 19.8969V18.9008C3.89025 17.0166 2.03003 13.7642 2.03003 10.6558C2.03003 7.71545 3.33819 4.96712 5.64247 3.1309C7.93474 1.28268 10.9351 0.586592 13.8635 1.23467ZM12.4473 14.7723L13.7314 12.54C14.0315 12.024 14.0555 11.4599 13.7915 11.0039C13.5274 10.5598 13.0354 10.2958 12.4353 10.2958H11.4272L12.4473 8.51955C12.6873 8.0995 12.5433 7.54743 12.1112 7.2954C11.6912 7.05537 11.1391 7.19939 10.8871 7.63144L9.60294 9.86371C9.30291 10.3918 9.2789 10.9438 9.54294 11.3999C9.80697 11.844 10.299 12.108 10.8991 12.108H11.9072L10.8871 13.8842C10.6471 14.3042 10.7911 14.8563 11.2231 15.1083C11.3552 15.1924 11.5112 15.2284 11.6672 15.2284C11.9792 15.2284 12.2793 15.0603 12.4473 14.7723Z" fill="#141414"/>
<path d="M15.3516 24.9616C15.4236 24.9856 15.5077 24.9976 15.5797 24.9976C15.9397 24.9976 16.2758 24.7575 16.3958 24.3855C16.5278 23.9414 16.2638 23.4854 15.8197 23.3534C13.1074 22.5853 10.251 22.5853 7.53869 23.3534C7.09464 23.4734 6.83061 23.9414 6.96263 24.3855C7.08264 24.8295 7.5507 25.0816 7.99475 24.9616C10.407 24.2775 12.9393 24.2775 15.3516 24.9616Z" fill="#141414"/>
</svg>
