<svg version="1.1" viewBox="0 0 24 24" xmlns="http://www.w3.org/2000/svg" xmlns:xlink="http://www.w3.org/1999/xlink" x="0px" y="0px"  style="fill: transparent;">
<path d="M2.52514 24C2.09244 24.0041 1.6667 23.891 1.29301 23.6727C0.869326 23.3992 0.526557 23.0173 0.300299 22.5664C0.0740416 22.1156 -0.0274528 21.6124 0.00635702 21.1091V8.72728C0.00492288 8.13756 0.119781 7.55335 0.344354 7.00811C0.568926 6.46288 0.898801 5.96731 1.31509 5.54981C1.73137 5.13231 2.22589 4.80108 2.77032 4.57507C3.31475 4.34906 3.89839 4.23273 4.48782 4.23273H6.54864C6.61279 3.08762 7.11312 2.01063 7.9467 1.22331C8.78029 0.435995 9.88375 -0.00179168 11.0301 5.51148e-06H19.5133C20.7018 5.51148e-06 21.8417 0.472387 22.6821 1.31323C23.5226 2.15408 23.9947 3.29451 23.9947 4.48364V16.8764C24.0252 17.378 23.9233 17.8789 23.6994 18.3288C23.4755 18.7787 23.1374 19.1619 22.719 19.44C22.2739 19.6718 21.7759 19.7827 21.2746 19.7616C20.7733 19.7406 20.2863 19.5883 19.8622 19.32L17.4525 17.9673V21.1091C17.4829 21.6108 17.381 22.1116 17.1571 22.5616C16.9333 23.0115 16.5952 23.3946 16.1767 23.6727L15.8605 23.8255C15.4397 23.975 14.9906 24.0271 14.5468 23.978C14.1029 23.9288 13.676 23.7797 13.2981 23.5418L9.0129 21.1527C8.89811 21.1262 8.77877 21.1262 8.66398 21.1527C8.58525 21.1329 8.50283 21.1329 8.4241 21.1527L4.1498 23.5418C3.65764 23.8341 3.09743 23.9921 2.52514 24ZM9.2855 18.9709C9.56324 19.0204 9.83172 19.1124 10.0815 19.2436L14.3776 21.6436C14.572 21.7773 14.8085 21.8354 15.0427 21.8073C15.1408 21.7527 15.2499 21.5127 15.2499 21.12V8.72728C15.2519 8.4258 15.1942 8.12691 15.08 7.8479C14.9659 7.56889 14.7975 7.31531 14.5847 7.10182C14.1589 6.67616 13.5838 6.43351 12.9819 6.42546H4.48782C3.87852 6.42833 3.29499 6.67176 2.86415 7.10282C2.4333 7.53387 2.18999 8.11768 2.18712 8.72728V21.1091C2.18026 21.3075 2.2175 21.505 2.29616 21.6873C2.31661 21.7303 2.35127 21.765 2.39429 21.7855C2.49243 21.8509 2.74321 21.7855 3.08123 21.6436L7.36643 19.2546C7.95901 18.9561 8.63197 18.8566 9.2855 18.9709ZM17.4525 15.4691L20.9199 17.4546C21.0174 17.5263 21.1293 17.5762 21.2478 17.6007C21.3664 17.6251 21.4889 17.6237 21.6068 17.5964C21.7158 17.5418 21.814 17.3127 21.814 16.92V4.48364C21.8111 3.87405 21.5678 3.29023 21.1369 2.85918C20.7061 2.42813 20.1226 2.18469 19.5133 2.18182H11.0301C10.461 2.17843 9.91081 2.38621 9.48588 2.765C9.06095 3.14379 8.79143 3.66672 8.7294 4.23273H13.0037C13.6533 4.23876 14.2936 4.38774 14.8792 4.6691C15.6496 5.03039 16.301 5.60416 16.7569 6.32302C17.2127 7.04188 17.454 7.87596 17.4525 8.72728V15.4691Z" fill="#141414"/>
</svg>
