<svg version="1.1" viewBox="0 0 24 24" xmlns="http://www.w3.org/2000/svg" xmlns:xlink="http://www.w3.org/1999/xlink" x="0px" y="0px"  style="fill: transparent;">
<path d="M12 0C5.376 0 0 5.376 0 12C0 18.624 5.376 24 12 24C18.624 24 24 18.624 24 12C24 5.376 18.624 0 12 0ZM7.98 15.324C7.848 15.684 7.5 15.912 7.14 15.912C7.032 15.912 6.936 15.9 6.828 15.852C5.856 15.492 5.04 14.784 4.524 13.86C3.324 11.7 4.068 8.88 6.168 7.572L8.976 5.832C10.008 5.196 11.22 5.004 12.372 5.304C13.524 5.604 14.496 6.36 15.084 7.416C16.284 9.576 15.54 12.396 13.44 13.704L13.128 13.932C12.72 14.22 12.156 14.124 11.868 13.728C11.58 13.32 11.676 12.756 12.072 12.468L12.444 12.204C13.788 11.364 14.244 9.624 13.512 8.292C13.164 7.668 12.6 7.224 11.928 7.044C11.256 6.864 10.548 6.972 9.936 7.356L7.104 9.108C5.808 9.912 5.352 11.652 6.084 12.996C6.384 13.536 6.864 13.956 7.44 14.172C7.908 14.34 8.148 14.856 7.98 15.324ZM17.904 16.38L15.096 18.12C14.388 18.564 13.596 18.78 12.792 18.78C12.432 18.78 12.06 18.732 11.7 18.636C10.548 18.336 9.576 17.58 9 16.524C7.8 14.364 8.544 11.544 10.644 10.236L10.956 10.008C11.364 9.72 11.928 9.816 12.216 10.212C12.504 10.62 12.408 11.184 12.012 11.472L11.64 11.736C10.296 12.576 9.84 14.316 10.572 15.648C10.92 16.272 11.484 16.716 12.156 16.896C12.828 17.076 13.536 16.968 14.148 16.584L16.956 14.844C18.252 14.04 18.708 12.3 17.976 10.956C17.676 10.416 17.196 9.996 16.62 9.78C16.152 9.612 15.912 9.096 16.092 8.628C16.26 8.16 16.788 7.92 17.244 8.1C18.216 8.46 19.032 9.168 19.548 10.092C20.736 12.252 20.004 15.072 17.904 16.38Z" fill="#141414"/>
</svg>
