<svg version="1.1" viewBox="0 0 24 24" xmlns="http://www.w3.org/2000/svg" xmlns:xlink="http://www.w3.org/1999/xlink" x="0px" y="0px"  style="fill: transparent;">
<path fill-rule="evenodd" clip-rule="evenodd" d="M1.95588 1.95588C3.32353 0.588233 5.28639 0 7.63636 0H16.3636C18.7136 0 20.6765 0.588233 22.0441 1.95588C23.4118 3.32353 24 5.28639 24 7.63636V16.3636C24 18.7136 23.4118 20.6765 22.0441 22.0441C20.6765 23.4118 18.7136 24 16.3636 24H2.18182C0.979326 24 0 23.0207 0 21.8182V7.63636C0 5.28639 0.588233 3.32353 1.95588 1.95588ZM3.49866 3.49866C2.68449 4.31283 2.18182 5.6227 2.18182 7.63636V21.8182H16.3636C18.3773 21.8182 19.6872 21.3155 20.5013 20.5013C21.3155 19.6872 21.8182 18.3773 21.8182 16.3636V7.63636C21.8182 5.6227 21.3155 4.31283 20.5013 3.49866C19.6872 2.68449 18.3773 2.18182 16.3636 2.18182H7.63636C5.6227 2.18182 4.31283 2.68449 3.49866 3.49866Z" fill="#141414"/>
<path fill-rule="evenodd" clip-rule="evenodd" d="M5.45455 9.27273C5.45455 8.67023 5.94296 8.18182 6.54545 8.18182H17.4545C18.057 8.18182 18.5455 8.67023 18.5455 9.27273C18.5455 9.87522 18.057 10.3636 17.4545 10.3636H6.54545C5.94296 10.3636 5.45455 9.87522 5.45455 9.27273Z" fill="#141414"/>
<path fill-rule="evenodd" clip-rule="evenodd" d="M5.45455 14.7273C5.45455 14.1248 5.94296 13.6364 6.54545 13.6364H14.1818C14.7843 13.6364 15.2727 14.1248 15.2727 14.7273C15.2727 15.3298 14.7843 15.8182 14.1818 15.8182H6.54545C5.94296 15.8182 5.45455 15.3298 5.45455 14.7273Z" fill="#141414"/>
</svg>
