<svg version="1.1" viewBox="0 0 24 24" xmlns="http://www.w3.org/2000/svg" xmlns:xlink="http://www.w3.org/1999/xlink" x="0px" y="0px"  style="fill: transparent;">
<path d="M13.6543 12.1039C12.9639 12.1039 12.4043 12.6636 12.4043 13.3539C12.4043 14.0443 12.9639 14.6039 13.6543 14.6039H13.6642C14.3545 14.6039 14.9142 14.0443 14.9142 13.3539C14.9142 12.6636 14.3545 12.1039 13.6642 12.1039H13.6543Z" fill="#141414"/>
<path d="M8.5516 13.3539C8.5516 12.6636 9.11124 12.1039 9.8016 12.1039H9.8115C10.5019 12.1039 11.0615 12.6636 11.0615 13.3539C11.0615 14.0443 10.5019 14.6039 9.8115 14.6039H9.8016C9.11124 14.6039 8.5516 14.0443 8.5516 13.3539Z" fill="#141414"/>
<path d="M5.94894 12.1039C5.25858 12.1039 4.69894 12.6636 4.69894 13.3539C4.69894 14.0443 5.25858 14.6039 5.94894 14.6039H5.95884C6.64919 14.6039 7.20884 14.0443 7.20884 13.3539C7.20884 12.6636 6.64919 12.1039 5.95884 12.1039H5.94894Z" fill="#141414"/>
<path fill-rule="evenodd" clip-rule="evenodd" d="M6.30096 1.34785C5.36045 2.14549 4.80145 3.24241 4.55916 4.54702C3.25173 4.78825 2.15209 5.34546 1.35213 6.28411C0.403868 7.39678 0 8.90181 0 10.6527V15.0454C0 17.3283 0.448945 19.0193 1.6628 20.0767C2.84226 21.1041 4.50107 21.3055 6.27303 21.3055H6.65441L7.93825 23.0131C8.38904 23.6151 9.0518 23.9987 9.79572 23.9987C10.5396 23.9987 11.2017 23.6159 11.6525 23.014L11.6532 23.0131L12.937 21.3055H13.3184C15.0706 21.3055 16.5782 20.9066 17.6936 19.9624C18.6355 19.1651 19.1945 18.067 19.4365 16.7586C20.7426 16.5183 21.8423 15.9638 22.6426 15.0261C23.5917 13.9142 23.9953 12.4084 23.9953 10.6528V6.26017C23.9953 4.35306 23.515 2.73879 22.3819 1.60845C21.2492 0.478544 19.6324 0 17.7222 0H10.6769C8.92302 0 7.4157 0.40246 6.30096 1.34785ZM13.3184 4.39258H6.64972C6.85315 3.71554 7.17996 3.22478 7.59456 2.87317C8.22465 2.3388 9.20523 2 10.6769 2H17.7222C19.3237 2 20.3435 2.39998 20.9694 3.02439C21.5949 3.64834 21.9953 4.66417 21.9953 6.26017V10.6528C21.9953 12.1257 21.6557 13.1018 21.1214 13.7277C20.7685 14.1412 20.2747 14.467 19.5919 14.6694V10.6528C19.5919 8.74567 19.1116 7.13141 17.9785 6.00106C17.0195 5.04435 15.7133 4.55462 14.1759 4.42697C13.8974 4.40383 13.6114 4.39258 13.3184 4.39258ZM2.87433 7.58139C3.39727 6.96777 4.2281 6.5462 5.521 6.43388C5.53786 6.43264 5.55473 6.43097 5.5716 6.42887C5.7802 6.40286 6.01079 6.39262 6.2735 6.39262H13.3189C13.5596 6.39262 13.7872 6.40166 14.0024 6.41914C15.2178 6.51801 16.0338 6.8865 16.5656 7.41697C17.191 8.04092 17.5914 9.05675 17.5914 10.6527V15.0454C17.5914 15.3073 17.5812 15.537 17.5552 15.7446C17.5535 15.7577 17.5521 15.7708 17.551 15.7839C17.44 17.0845 17.0171 17.9147 16.4014 18.4359C15.772 18.9687 14.7917 19.3055 13.3184 19.3055H12.8781C12.2891 19.3055 11.7286 19.5846 11.3742 20.056L10.0519 21.8148C9.91923 21.9921 9.81659 21.9987 9.79572 21.9987C9.77485 21.9987 9.6722 21.9921 9.53956 21.8148L8.21718 20.056L8.21152 20.0485C8.02298 19.8026 7.77235 19.6289 7.55297 19.5183C7.33413 19.4079 7.03755 19.3055 6.71336 19.3055H6.27303C4.53332 19.3055 3.55561 19.0731 2.97647 18.5686C2.43173 18.0941 2 17.1551 2 15.0454V10.6527C2 9.18609 2.3392 8.20929 2.87433 7.58139Z" fill="#141414"/>
</svg>
