<svg version="1.1" viewBox="0 0 24 24" xmlns="http://www.w3.org/2000/svg" xmlns:xlink="http://www.w3.org/1999/xlink" x="0px" y="0px"  style="fill: transparent;">
<path fill-rule="evenodd" clip-rule="evenodd" d="M1.86027 2.06131C3.09629 0.735258 4.85162 0 6.90676 0H15.231C15.8562 0 16.3631 0.506848 16.3631 1.13208C16.3631 1.7573 15.8562 2.26415 15.231 2.26415H6.90676C5.4125 2.26415 4.28049 2.78546 3.51651 3.60509C2.7443 4.43355 2.26415 5.6585 2.26415 7.20166V16.7983C2.26415 18.3429 2.7425 19.5677 3.51305 20.3955C4.27508 21.2141 5.40648 21.7358 6.90676 21.7358H17.0909C18.5919 21.7358 19.7239 21.214 20.4864 20.3953C21.2573 19.5675 21.7358 18.3428 21.7358 16.7983V10.5314C21.7358 9.90613 22.2427 9.39929 22.8679 9.39929C23.4932 9.39929 24 9.90613 24 10.5314V16.7983C24 18.8104 23.3706 20.6205 22.1433 21.9383C20.9075 23.2653 19.151 24 17.0909 24H6.90676C4.84707 24 3.09112 23.2652 1.8558 21.9381C0.629003 20.6202 0 18.8102 0 16.7983V7.20166C0 5.18838 0.63249 3.37853 1.86027 2.06131ZM22.3359 3.52819C22.7632 3.98462 22.7396 4.70102 22.2831 5.12832L11.1581 15.5434C10.7225 15.9513 10.045 15.9509 9.6098 15.5426L6.69708 12.8096C6.24113 12.3818 6.21832 11.6654 6.64613 11.2094C7.07394 10.7535 7.79037 10.7307 8.24632 11.1585L10.3853 13.1654L20.7357 3.47545C21.1922 3.04815 21.9086 3.07177 22.3359 3.52819Z" fill="#141414"/>
</svg>
