<svg version="1.1" viewBox="0 0 24 24" xmlns="http://www.w3.org/2000/svg" xmlns:xlink="http://www.w3.org/1999/xlink" x="0px" y="0px"  style="fill: transparent;">
<path d="M24.9321 10.5309V5.73868C24.9321 1.91689 23.0152 0 19.1934 0H11.5259C9.14174 0 7.51239 0.742793 6.61385 2.22838C6.3982 2.58779 6.68573 3.00711 7.10505 3.00711L14.4012 2.99513C19.1934 2.99513 21.9369 5.73868 21.9369 10.5309L21.925 14.9637C21.925 15.383 22.3443 15.6705 22.7037 15.4549C24.1893 14.5563 24.9321 12.927 24.9321 10.5309Z" fill="#141414"/>
<path fill-rule="evenodd" clip-rule="evenodd" d="M6.73394 4.79221H14.4015C18.2233 4.79221 20.1402 6.7091 20.1402 10.5309V15.3231C20.1402 15.6346 20.1282 15.9341 20.0922 16.2216C19.8167 19.4564 17.9118 21.0618 14.4015 21.0618H13.9223C13.6227 21.0618 13.3352 21.2055 13.1555 21.4452L11.7178 23.362C11.0829 24.2127 10.0526 24.2127 9.41758 23.362L7.97992 21.4452C7.82417 21.2415 7.47674 21.0618 7.21317 21.0618H6.73394C2.91215 21.0618 0.99527 20.1153 0.99527 15.3231V10.5309C0.99527 7.02059 2.61264 5.11569 5.8354 4.84014C6.12294 4.80419 6.42245 4.79221 6.73394 4.79221ZM5.18846 13.1786C5.18846 13.8375 5.7156 14.3766 6.38651 14.3766C7.04544 14.3766 7.58456 13.8375 7.58456 13.1786C7.58456 12.5197 7.04544 11.9805 6.38651 11.9805C5.72758 11.9805 5.18846 12.5197 5.18846 13.1786ZM9.36966 13.1786C9.36966 13.8375 9.8968 14.3766 10.5677 14.3766C11.2386 14.3766 11.7658 13.8375 11.7658 13.1786C11.7658 12.5197 11.2266 11.9805 10.5677 11.9805C9.90878 11.9805 9.36966 12.5197 9.36966 13.1786ZM13.5628 13.1786C13.5628 13.8375 14.09 14.3766 14.7609 14.3766C15.4198 14.3766 15.959 13.8375 15.959 13.1786C15.959 12.5197 15.4198 11.9805 14.7609 11.9805C14.102 11.9805 13.5628 12.5197 13.5628 13.1786Z" fill="#141414"/>
</svg>
