<svg version="1.1" viewBox="0 0 24 24" xmlns="http://www.w3.org/2000/svg" xmlns:xlink="http://www.w3.org/1999/xlink" x="0px" y="0px"  style="fill: transparent;">
<path fill-rule="evenodd" clip-rule="evenodd" d="M0 12C0 5.39751 5.39751 0 12 0C18.6025 0 24 5.39751 24 12C24 18.6025 18.6025 24 12 24C10.0056 24 8.01208 23.4897 6.29463 22.5569L3.22659 23.4335C1.60318 23.8973 0.090736 22.4206 0.515586 20.7866L1.34858 17.5827C0.518937 15.9054 0 14.0124 0 12ZM12 2.18182C6.60249 2.18182 2.18182 6.60249 2.18182 12C2.18182 13.7593 2.67043 15.4389 3.47166 16.9412C3.60052 17.1828 3.6338 17.464 3.5649 17.7291L2.6272 21.3356L6.13667 20.3329C6.42699 20.2499 6.73872 20.291 6.99763 20.4464C8.46251 21.3253 10.2318 21.8182 12 21.8182C17.3975 21.8182 21.8182 17.3975 21.8182 12C21.8182 6.60249 17.3975 2.18182 12 2.18182Z" fill="#141414"/>
<path d="M16.9091 15.1075C16.9091 15.2842 16.8698 15.4658 16.7862 15.6425C16.7026 15.8193 16.5944 15.9862 16.4519 16.1433C16.211 16.4084 15.9455 16.5998 15.6456 16.7225C15.3506 16.8453 15.031 16.9091 14.6868 16.9091C14.1854 16.9091 13.6495 16.7913 13.0841 16.5507C12.5187 16.3102 11.9533 15.9862 11.3928 15.5787C10.8274 15.1664 10.2915 14.7098 9.78022 14.2042C9.27382 13.6936 8.81659 13.1585 8.40852 12.5989C8.00537 12.0393 7.68089 11.4796 7.44489 10.9249C7.2089 10.3653 7.09091 9.83018 7.09091 9.31964C7.09091 8.98582 7.14991 8.66673 7.2679 8.37218C7.3859 8.07273 7.57272 7.79782 7.8333 7.55236C8.14795 7.24309 8.4921 7.09091 8.85592 7.09091C8.99358 7.09091 9.13124 7.12036 9.25416 7.17927C9.38198 7.23818 9.49506 7.32655 9.58356 7.45418L10.7242 9.05945C10.8127 9.18218 10.8766 9.29509 10.9208 9.40309C10.9651 9.50618 10.9897 9.60927 10.9897 9.70255C10.9897 9.82036 10.9553 9.93818 10.8864 10.0511C10.8225 10.164 10.7291 10.2818 10.6111 10.3996L10.2374 10.7875C10.1834 10.8415 10.1588 10.9053 10.1588 10.9838C10.1588 11.0231 10.1637 11.0575 10.1735 11.0967C10.1883 11.136 10.203 11.1655 10.2129 11.1949C10.3014 11.3569 10.4538 11.568 10.6701 11.8233C10.8913 12.0785 11.1273 12.3387 11.383 12.5989C11.6485 12.8591 11.9041 13.0996 12.1647 13.3205C12.4204 13.5365 12.6318 13.6838 12.7989 13.7722C12.8235 13.782 12.853 13.7967 12.8874 13.8115C12.9268 13.8262 12.9661 13.8311 13.0103 13.8311C13.0939 13.8311 13.1578 13.8016 13.2119 13.7476L13.5856 13.3795C13.7085 13.2567 13.8265 13.1635 13.9395 13.1045C14.0526 13.0358 14.1657 13.0015 14.2886 13.0015C14.382 13.0015 14.4804 13.0211 14.5885 13.0653C14.6967 13.1095 14.8098 13.1733 14.9327 13.2567L16.56 14.4104C16.6879 14.4987 16.7763 14.6018 16.8304 14.7245C16.8796 14.8473 16.9091 14.97 16.9091 15.1075Z" fill="#141414"/>
</svg>
