<svg version="1.1" viewBox="0 0 24 24" xmlns="http://www.w3.org/2000/svg" xmlns:xlink="http://www.w3.org/1999/xlink" x="0px" y="0px"  style="fill: transparent;">
<path fill-rule="evenodd" clip-rule="evenodd" d="M5.67449 12.5715C6.71296 13.2658 7.93403 13.6363 9.18318 13.6363H9.23003C10.8952 13.627 12.489 12.959 13.6632 11.7783C14.8374 10.5975 15.4965 8.99997 15.4965 7.33476C15.4988 6.08562 15.1305 4.86386 14.4382 3.82411C13.7459 2.78435 12.7607 1.97334 11.6073 1.49371C10.4539 1.01407 9.18414 0.887377 7.95871 1.12965C6.73328 1.37193 5.60727 1.97228 4.72317 2.85474C3.83907 3.7372 3.23662 4.8621 2.99207 6.08708C2.74752 7.31205 2.87186 8.58204 3.34935 9.73633C3.82684 10.8906 4.63602 11.8773 5.67449 12.5715ZM6.51584 4.59849C7.21433 3.86099 8.1689 3.41922 9.18318 3.36407C10.2302 3.37334 11.2311 3.79576 11.9682 4.53941C12.7053 5.28306 13.1188 6.28773 13.1187 7.33476C13.1187 8.3807 12.7049 9.38415 11.9675 10.1259C11.2301 10.8677 10.2291 11.2876 9.18318 11.2937C8.1689 11.2386 7.21433 10.7968 6.51584 10.0593C5.81735 9.32183 5.42806 8.34468 5.42806 7.32891C5.42806 6.31313 5.81735 5.33599 6.51584 4.59849Z" fill="#141414"/>
<path fill-rule="evenodd" clip-rule="evenodd" d="M0 19.4928C0 23.932 6.67638 23.932 9.18296 23.932H9.21856C11.5265 23.9322 18.3659 23.9325 18.3659 19.5162C18.3659 15.077 11.4553 15.077 9.18296 15.077L9.14736 15.077C6.8394 15.0769 0 15.0766 0 19.4928ZM2.34259 19.4928C2.34259 17.6422 6.62953 17.4196 9.18296 17.3728V17.4196C11.713 17.4196 16.0233 17.6305 16.0233 19.4694C16.0233 21.3083 11.7364 21.5894 9.18296 21.5894C6.62953 21.5894 2.34259 21.3435 2.34259 19.4928Z" fill="#141414"/>
<path d="M17.2534 12.3012C16.9427 12.3229 16.6362 12.2204 16.4011 12.0161C16.1661 11.8118 16.0218 11.5225 16.0001 11.2119C15.9783 10.9012 16.0809 10.5947 16.2852 10.3596C16.4895 10.1246 16.7787 9.98035 17.0894 9.9586C17.722 9.86433 18.3004 9.54809 18.7211 9.06644C19.1419 8.58479 19.3776 7.96915 19.386 7.32965C19.3945 6.69015 19.1752 6.0685 18.7673 5.5759C18.3594 5.0833 17.7895 4.75188 17.1597 4.64092C17.0059 4.61631 16.8584 4.56165 16.7257 4.48005C16.593 4.39845 16.4777 4.29151 16.3863 4.16534C16.295 4.03918 16.2293 3.89625 16.1932 3.74472C16.1571 3.5932 16.1512 3.43604 16.1758 3.28222C16.2004 3.1284 16.2551 2.98094 16.3367 2.84825C16.4183 2.71556 16.5252 2.60024 16.6514 2.50888C16.7775 2.41752 16.9205 2.3519 17.072 2.31577C17.2235 2.27965 17.3807 2.27372 17.5345 2.29833C18.7271 2.48623 19.8122 3.09724 20.5912 4.01958C21.3703 4.94192 21.7912 6.11391 21.7769 7.32114C21.7627 8.52837 21.3143 9.69013 20.5138 10.5939C19.7132 11.4976 18.6141 12.0829 17.4174 12.2426L17.2534 12.3012Z" fill="#141414"/>
<path d="M20.3692 20.7395C20.6284 20.9196 20.9485 20.9894 21.2592 20.9335C21.3973 20.9158 21.5317 20.8763 21.6574 20.8164C22.3166 20.6477 22.9025 20.2678 23.3255 19.7348C23.7485 19.2018 23.9854 18.545 24 17.8647C24 16.5997 23.2855 14.9833 19.9122 14.4797C19.6081 14.4322 19.2975 14.5064 19.0476 14.6861C18.7977 14.8658 18.6286 15.1367 18.5769 15.4401C18.5333 15.7459 18.6122 16.0565 18.7964 16.3044C18.9807 16.5523 19.2554 16.7174 19.5608 16.7637C20.3338 16.8808 21.6457 17.1736 21.6457 17.8296C21.6457 17.9701 21.6457 18.2864 20.8375 18.5909C20.5269 18.6468 20.2511 18.8239 20.071 19.0831C19.8909 19.3423 19.8211 19.6624 19.877 19.973C19.933 20.2837 20.11 20.5594 20.3692 20.7395Z" fill="#141414"/>
</svg>
