<svg version="1.1" viewBox="0 0 24 24" xmlns="http://www.w3.org/2000/svg" xmlns:xlink="http://www.w3.org/1999/xlink" x="0px" y="0px"  style="fill: transparent;">
<path d="M19.1308 9.44327C19.6015 9.06726 19.6783 8.38082 19.3023 7.91006C18.9263 7.4393 18.2399 7.36249 17.7691 7.73849L14.3554 10.4651C13.6297 11.0423 12.3511 11.0425 11.6251 10.4656L8.22301 7.73956C7.75283 7.36282 7.06627 7.43856 6.68953 7.90873C6.31279 8.3789 6.38853 9.06546 6.8587 9.44221L10.2623 12.1695L10.265 12.1716C11.7863 13.3828 14.1936 13.3828 15.7149 12.1716L19.1308 9.44327Z" fill="#292D32"/>
<path fill-rule="evenodd" clip-rule="evenodd" d="M7.54082 1.5C5.73722 1.5 4.06757 1.95074 2.84396 3.08695C1.60571 4.23676 0.995361 5.92844 0.995361 8.04545V15.6818C0.995361 17.7988 1.60571 19.4905 2.84396 20.6403C4.06757 21.7765 5.73722 22.2273 7.54082 22.2273H18.4499C20.2535 22.2273 21.9231 21.7765 23.1468 20.6403C24.385 19.4905 24.9954 17.7988 24.9954 15.6818V8.04545C24.9954 5.92844 24.385 4.23676 23.1468 3.08695C21.9231 1.95074 20.2535 1.5 18.4499 1.5H7.54082ZM3.17718 8.04545C3.17718 6.34429 3.65774 5.3087 4.32858 4.68577C5.01406 4.04926 6.07168 3.68182 7.54082 3.68182H18.4499C19.919 3.68182 20.9767 4.04926 21.6621 4.68577C22.333 5.3087 22.8135 6.34429 22.8135 8.04545V15.6818C22.8135 17.383 22.333 18.4186 21.6621 19.0415C20.9767 19.678 19.919 20.0455 18.4499 20.0455H7.54082C6.07168 20.0455 5.01406 19.678 4.32858 19.0415C3.65774 18.4186 3.17718 17.383 3.17718 15.6818V8.04545Z" fill="#292D32"/>
</svg>
