<svg version="1.1" viewBox="0 0 24 24" xmlns="http://www.w3.org/2000/svg" xmlns:xlink="http://www.w3.org/1999/xlink" x="0px" y="0px"  style="fill: transparent;">
<path d="M22.7438 14.52C22.677 13.8559 22.4505 13.2177 22.0838 12.66C21.7201 12.1405 21.2225 11.7293 20.6438 11.47V5.42C20.6566 4.81557 20.6299 4.21094 20.5638 3.61C20.497 2.94586 20.2705 2.30773 19.9038 1.75C19.0038 0.5 17.4738 0 15.1838 0H8.64381C6.35381 0 4.78381 0.5 3.92381 1.75C3.55708 2.30773 3.33065 2.94586 3.26381 3.61C3.1977 4.21094 3.17097 4.81557 3.18381 5.42V11.47C2.60513 11.7293 2.1075 12.1405 1.74381 12.66C1.37708 13.2177 1.15065 13.8559 1.08381 14.52C1.01769 15.1209 0.990971 15.7256 1.00381 16.33V17.49C0.988659 18.2345 1.01871 18.9792 1.09381 19.72C1.17807 20.5089 1.44886 21.2664 1.88381 21.93C2.87381 23.37 4.71381 24 7.55381 24H16.2738C18.6638 24 20.3838 23.33 21.4838 22C22.4486 20.6828 22.9226 19.0698 22.8238 17.44V16.33C22.8366 15.7256 22.8099 15.1209 22.7438 14.52ZM5.36381 5.45C5.35515 4.93262 5.37518 4.41516 5.42381 3.9C5.45018 3.58028 5.55307 3.2716 5.72381 3C5.95381 2.67 6.56381 2.19 8.64381 2.19H15.1838C17.2638 2.19 17.8738 2.67 18.1038 3C18.2761 3.27454 18.379 3.58684 18.4038 3.91C18.4485 4.42538 18.4652 4.94281 18.4538 5.46V11C18.1138 11 17.7538 11 17.3638 11C16.83 10.9799 16.2972 11.0614 15.7938 11.24C15.4354 11.3948 15.0991 11.5966 14.7938 11.84C14.7425 11.878 14.6955 11.9216 14.6538 11.97L13.5338 13.14C13.3292 13.3561 13.0826 13.5281 12.8093 13.6458C12.5359 13.7634 12.2414 13.824 11.9438 13.824C11.6462 13.824 11.3517 13.7634 11.0784 13.6458C10.805 13.5281 10.5585 13.3561 10.3538 13.14L9.25381 11.96C9.21212 11.9116 9.16516 11.868 9.11381 11.83C8.80704 11.5887 8.47105 11.3871 8.11381 11.23C7.60712 11.0506 7.07093 10.9691 6.53381 10.99C6.15381 10.99 5.79381 10.99 5.44381 10.99L5.36381 5.45ZM20.6438 17.45C20.7331 18.5684 20.4366 19.6836 19.8038 20.61C19.2538 21.27 18.2538 21.82 16.2738 21.82H7.55381C4.92381 21.82 4.04381 21.22 3.67381 20.69C3.43766 20.3128 3.29694 19.8838 3.26381 19.44C3.19264 18.7759 3.16592 18.1077 3.18381 17.44V16.36C3.16988 15.8426 3.18992 15.3248 3.24381 14.81C3.27267 14.4891 3.37167 14.1784 3.53381 13.9C3.76381 13.56 4.38381 13.09 6.45381 13.09C6.72037 13.0739 6.9877 13.1044 7.24381 13.18C7.40315 13.2613 7.5539 13.3585 7.69381 13.47L8.69381 14.58C9.1007 15.0145 9.59242 15.3608 10.1385 15.5975C10.6847 15.8343 11.2736 15.9565 11.8688 15.9565C12.464 15.9565 13.053 15.8343 13.5991 15.5975C14.1452 15.3608 14.6369 15.0145 15.0438 14.58L16.0938 13.47C16.2337 13.3585 16.3845 13.2613 16.5438 13.18C16.7966 13.1049 17.0606 13.0745 17.3238 13.09C19.4038 13.09 20.0138 13.56 20.2438 13.9C20.4161 14.1745 20.519 14.4868 20.5438 14.81C20.5927 15.3251 20.6127 15.8426 20.6038 16.36L20.6438 17.45Z" fill="#141414"/>
<path d="M14.0038 7.89H10.3338C10.0447 7.89 9.76748 8.00484 9.56306 8.20925C9.35865 8.41367 9.24381 8.69091 9.24381 8.98C9.24381 9.26909 9.35865 9.54633 9.56306 9.75075C9.76748 9.95516 10.0447 10.07 10.3338 10.07H14.0038C14.2929 10.07 14.5701 9.95516 14.7746 9.75075C14.979 9.54633 15.0938 9.26909 15.0938 8.98C15.0938 8.69091 14.979 8.41367 14.7746 8.20925C14.5701 8.00484 14.2929 7.89 14.0038 7.89Z" fill="#141414"/>
<path d="M9.42381 6.8H14.8838C15.1562 6.77394 15.409 6.64732 15.5931 6.44485C15.7771 6.24238 15.879 5.9786 15.879 5.705C15.879 5.4314 15.7771 5.16762 15.5931 4.96515C15.409 4.76268 15.1562 4.63606 14.8838 4.61H9.42381C9.15145 4.63606 8.89858 4.76268 8.71456 4.96515C8.53053 5.16762 8.42857 5.4314 8.42857 5.705C8.42857 5.9786 8.53053 6.24238 8.71456 6.44485C8.89858 6.64732 9.15145 6.77394 9.42381 6.8Z" fill="#141414"/>
</svg>
