<svg version="1.1" viewBox="0 0 24 24" xmlns="http://www.w3.org/2000/svg" xmlns:xlink="http://www.w3.org/1999/xlink" x="0px" y="0px"  style="fill: transparent;">
<path d="M12.1298 6.57928C12.652 6.87964 12.8317 7.5464 12.5314 8.06853L11.8341 9.28064H12.2731C12.768 9.28064 13.4041 9.46512 13.7501 10.0734C14.0927 10.6756 13.9327 11.3107 13.6872 11.7337L12.5336 13.758C12.2353 14.2813 11.5693 14.4638 11.046 14.1655C10.5226 13.8673 10.3402 13.2012 10.6384 12.6779L11.3314 11.462H10.888C10.3901 11.462 9.76373 11.2726 9.4188 10.6758C9.07331 10.078 9.22279 9.44034 9.47523 9.00659L10.6406 6.98082C10.941 6.45869 11.6077 6.27892 12.1298 6.57928Z" fill="#141414"/>
<path fill-rule="evenodd" clip-rule="evenodd" d="M1.89001 9.71691C1.89001 3.63392 7.48406 -1.12994 13.7814 0.242246L13.7848 0.242986C16.5583 0.856587 18.9974 2.69645 20.2735 5.26103C22.746 10.2297 20.3469 15.4078 16.7448 17.9107V18.584C16.7448 18.5975 16.7451 18.6046 16.7455 18.6181C16.7459 18.6324 16.7466 18.654 16.7475 18.6981C16.7487 18.7607 16.7494 18.8489 16.7433 18.9484C16.7313 19.1423 16.691 19.432 16.5354 19.7304C16.1614 20.4476 15.4189 20.7217 14.6071 20.7217H8.60222C7.98601 20.7268 7.13103 20.639 6.68655 19.891C6.49064 19.5613 6.46212 19.2287 6.45546 19.0408C6.45193 18.9411 6.45422 18.8454 6.45607 18.7765L6.45717 18.7366C6.45874 18.68 6.45989 18.6386 6.45989 18.5949V17.9219C3.93115 16.1698 1.89001 13.0838 1.89001 9.71691ZM13.3153 2.37319C8.40132 1.30352 4.07134 5.00289 4.07134 9.71691C4.07134 12.4013 5.8634 15.0357 8.11468 16.3963C8.4415 16.5938 8.64122 16.9479 8.64122 17.3297V18.5404H14.5635V17.3188C14.5635 16.9368 14.7634 16.5826 15.0905 16.3851C18.2488 14.4784 20.2883 10.1871 18.3205 6.2328C17.3501 4.28254 15.4709 2.85063 13.3153 2.37319Z" fill="#141414"/>
<path d="M8.06653 23.9632C10.3695 23.3095 12.8026 23.3095 15.1055 23.9632C15.685 24.1276 16.2881 23.7912 16.4526 23.2118C16.617 22.6323 16.2806 22.0292 15.7012 21.8647C13.0089 21.1005 10.1632 21.1005 7.4709 21.8647C6.89144 22.0292 6.55502 22.6323 6.7195 23.2118C6.88398 23.7912 7.48706 24.1276 8.06653 23.9632Z" fill="#141414"/>
</svg>
