<svg version="1.1" viewBox="0 0 24 24" xmlns="http://www.w3.org/2000/svg" xmlns:xlink="http://www.w3.org/1999/xlink" x="0px" y="0px"  style="fill: transparent;">
<path d="M14.1025 0.642697L21.2881 5.35715C22.7996 6.35282 23.2915 8.15223 22.8116 9.69972V15.6018C22.8116 16.0936 22.4038 16.5015 21.9119 16.5015C21.4201 16.5015 21.0122 16.0936 21.0122 15.6018V11.931L14.1025 16.4655C12.8069 17.3172 10.6716 17.3172 9.37603 16.4655L4.07377 13.0106L2.1544 11.763C-0.160841 10.2515 -0.160841 6.85666 2.1544 5.35715L9.37603 0.642697C10.6716 -0.209024 12.8069 -0.209024 14.1025 0.642697Z" fill="#141414"/>
<path d="M19.3706 17.3791C19.3706 16.4194 18.315 15.8436 17.5112 16.3714L15.076 17.9669C14.1283 18.6027 12.9287 18.9146 11.7291 18.9146C10.5295 18.9146 9.32992 18.6027 8.38223 17.9669L5.91104 16.3594C5.1193 15.8436 4.06365 16.4194 4.06365 17.3671V18.9266C4.06365 20.4501 5.23926 22.0815 6.67879 22.5614L10.5055 23.833C11.1653 24.0609 12.257 24.0609 12.9287 23.833L16.7555 22.5614C18.183 22.0815 19.3706 20.4501 19.3706 18.9266V17.3791Z" fill="#141414"/>
</svg>
