<svg version="1.1" viewBox="0 0 24 24" xmlns="http://www.w3.org/2000/svg" xmlns:xlink="http://www.w3.org/1999/xlink" x="0px" y="0px"  style="fill: transparent;">
<path fill-rule="evenodd" clip-rule="evenodd" d="M7.54545 0C8.14795 0 8.63636 0.488417 8.63636 1.09091V1.63636H15.1818V1.09091C15.1818 0.488417 15.6702 0 16.2727 0C16.8752 0 17.3636 0.488417 17.3636 1.09091V1.69465C18.9756 1.87391 20.2864 2.46744 21.2312 3.48496C22.3674 4.70858 22.8182 6.37822 22.8182 8.18182V17.4545C22.8182 19.2581 22.3674 20.9278 21.2312 22.1514C20.0814 23.3897 18.3897 24 16.2727 24H7.54545C5.42844 24 3.73676 23.3897 2.58695 22.1514C1.45074 20.9278 1 19.2581 1 17.4545V8.18182C1 6.37822 1.45074 4.70858 2.58695 3.48496C3.5318 2.46744 4.84255 1.87391 6.45455 1.69465V1.09091C6.45455 0.488417 6.94296 0 7.54545 0ZM6.45455 3.89382C5.38099 4.0542 4.66252 4.45616 4.18577 4.96958C3.6158 5.58341 3.26158 6.49564 3.19375 7.73454H20.6244C20.5566 6.49564 20.2024 5.58341 19.6324 4.96958C19.1557 4.45616 18.4372 4.0542 17.3636 3.89382V4.36364C17.3636 4.96613 16.8752 5.45455 16.2727 5.45455C15.6702 5.45455 15.1818 4.96613 15.1818 4.36364V3.81818H8.63636V4.36364C8.63636 4.96613 8.14795 5.45455 7.54545 5.45455C6.94296 5.45455 6.45455 4.96613 6.45455 4.36364V3.89382ZM20.6364 9.91636H3.18182V17.4545C3.18182 18.9237 3.54926 19.9813 4.18577 20.6668C4.8087 21.3376 5.84429 21.8182 7.54545 21.8182H16.2727C17.9739 21.8182 19.0095 21.3376 19.6324 20.6668C20.2689 19.9813 20.6364 18.9237 20.6364 17.4545V9.91636Z" fill="#141414"/>
<path fill-rule="evenodd" clip-rule="evenodd" d="M6.50289 13.8546C6.50289 13.1014 7.11341 12.4909 7.86652 12.4909H7.87632C8.62944 12.4909 9.23996 13.1014 9.23996 13.8546C9.23996 14.6077 8.62944 15.2182 7.87632 15.2182H7.86652C7.11341 15.2182 6.50289 14.6077 6.50289 13.8546ZM10.5405 13.8546C10.5405 13.1014 11.151 12.4909 11.9042 12.4909H11.914C12.6671 12.4909 13.2776 13.1014 13.2776 13.8546C13.2776 14.6077 12.6671 15.2182 11.914 15.2182H11.9042C11.151 15.2182 10.5405 14.6077 10.5405 13.8546ZM6.50289 17.1273C6.50289 16.3742 7.11341 15.7636 7.86652 15.7636H7.87632C8.62944 15.7636 9.23996 16.3742 9.23996 17.1273C9.23996 17.8804 8.62944 18.4909 7.87632 18.4909H7.86652C7.11341 18.4909 6.50289 17.8804 6.50289 17.1273Z" fill="#141414"/>
</svg>
