<svg version="1.1" viewBox="0 0 24 24" xmlns="http://www.w3.org/2000/svg" xmlns:xlink="http://www.w3.org/1999/xlink" x="0px" y="0px"  style="fill: transparent;">
<path d="M24 5.93455C24 1.44 22.56 0 18.0545 0H5.93455C1.44 0 0 1.44 0 5.93455V13.0909C0.0545455 17.3236 1.53818 18.7636 5.88 18.7636H10.9091V21.8182H7.09091C6.80158 21.8182 6.52411 21.9331 6.31952 22.1377C6.11493 22.3423 6 22.6198 6 22.9091C6 23.1984 6.11493 23.4759 6.31952 23.6805C6.52411 23.8851 6.80158 24 7.09091 24H16.9091C17.1984 24 17.4759 23.8851 17.6805 23.6805C17.8851 23.4759 18 23.1984 18 22.9091C18 22.6198 17.8851 22.3423 17.6805 22.1377C17.4759 21.9331 17.1984 21.8182 16.9091 21.8182H13.0909V18.7745H18.0655C22.4291 18.7745 23.9455 17.3455 24 13.1018V5.93455ZM2.18182 5.93455C2.18182 2.67273 2.67273 2.18182 5.93455 2.18182H18.0545C21.3273 2.18182 21.8182 2.67273 21.8182 5.93455V12H2.18182V5.93455Z" fill="#141414"/>
</svg>
