<svg version="1.1" viewBox="0 0 24 24" xmlns="http://www.w3.org/2000/svg" xmlns:xlink="http://www.w3.org/1999/xlink" x="0px" y="0px"  style="fill: transparent;">
<path d="M9.55618 13.1826C10.8597 13.1926 12.1367 12.8147 13.2249 12.0969C14.313 11.3791 15.1631 10.354 15.667 9.15174C16.1709 7.94953 16.3059 6.62461 16.0548 5.34548C15.8036 4.06635 15.1778 2.89081 14.2567 1.96835C13.3357 1.04589 12.1611 0.418196 10.8824 0.165098C9.60362 -0.0880004 8.27849 0.0449313 7.07551 0.546987C5.87252 1.04904 4.84603 1.89754 4.12658 2.98457C3.40713 4.07159 3.02722 5.34803 3.03518 6.65156C3.04582 8.38566 3.74147 10.0453 4.97052 11.2686C6.19957 12.492 7.86236 13.18 9.5965 13.1826H9.55618ZM5.39363 6.65156C5.39363 5.81789 5.64097 5.00296 6.10434 4.30992C6.56771 3.61689 7.22628 3.07692 7.99669 2.75835C8.76709 2.43978 9.61469 2.35694 10.4322 2.52031C11.2497 2.68369 12.0004 3.08594 12.5891 3.67614C13.1779 4.26634 13.5784 5.01795 13.7398 5.83585C13.9012 6.65374 13.8163 7.50114 13.4959 8.27078C13.1755 9.04042 12.634 9.69769 11.9398 10.1594C11.2457 10.6211 10.4302 10.8665 9.5965 10.8645C9.04334 10.8658 8.49539 10.7577 7.98422 10.5463C7.47304 10.335 7.00874 10.0245 6.61807 9.63292C6.2274 9.24132 5.91808 8.77628 5.70793 8.26459C5.49779 7.75291 5.39097 7.20471 5.39363 6.65156Z" fill="#141414"/>
<path d="M15.8958 15.5411C13.8479 14.9631 11.7232 14.7047 9.5965 14.7751C7.4778 14.705 5.36071 14.9564 3.31739 15.5209C2.45262 15.7819 1.66407 16.2488 1.01942 16.8816C0.368963 17.5591 0.0057373 18.462 0.0057373 19.4013C0.0057373 20.3405 0.368963 21.2434 1.01942 21.921C1.66335 22.545 2.44811 23.0048 3.30731 23.2615C5.35082 23.8437 7.47296 24.1022 9.5965 24.0274C11.7195 24.0911 13.84 23.8329 15.8857 23.2615C16.7353 23.0016 17.5121 22.5459 18.1534 21.9311C18.7993 21.2511 19.1594 20.3491 19.1594 19.4113C19.1594 18.4736 18.7993 17.5716 18.1534 16.8916C17.5166 16.2714 16.7434 15.8089 15.8958 15.5411ZM16.4803 20.2882C16.0984 20.6464 15.6348 20.9059 15.1298 21.0441C13.3273 21.5294 11.4618 21.7401 9.5965 21.669C7.72389 21.7395 5.85144 21.5254 4.04307 21.034C3.54759 20.8737 3.09577 20.6012 2.72274 20.2378C2.49883 19.9987 2.37424 19.6835 2.37424 19.3559C2.37424 19.0284 2.49883 18.7131 2.72274 18.474C3.10727 18.1448 3.55729 17.9009 4.04307 17.7584C5.84321 17.2787 7.70445 17.0682 9.56626 17.1335C11.4363 17.0614 13.3062 17.2789 15.1096 17.7786C15.6118 17.9164 16.0723 18.1761 16.4501 18.5345C16.5672 18.6477 16.6591 18.7842 16.7199 18.9353C16.7807 19.0864 16.809 19.2486 16.8029 19.4113C16.8135 19.5719 16.7903 19.733 16.7347 19.884C16.6792 20.0351 16.5925 20.1728 16.4803 20.2882Z" fill="#141414"/>
<path d="M23.1928 11.4793L22.316 10.6125L23.1525 9.76591C23.3425 9.53591 23.4382 9.24246 23.4204 8.94468C23.4027 8.6469 23.2727 8.36693 23.0567 8.16117C22.8407 7.9554 22.5548 7.83915 22.2565 7.83582C21.9582 7.83249 21.6697 7.94233 21.4492 8.14322L20.6026 8.97976L19.7358 8.11299C19.5153 7.89112 19.2156 7.76595 18.9028 7.765C18.59 7.76406 18.2896 7.88742 18.0677 8.10795C17.8459 8.32847 17.7207 8.62811 17.7198 8.94093C17.7188 9.25375 17.8422 9.55413 18.0627 9.77599L18.9396 10.6528L18.103 11.4894C17.98 11.5952 17.8802 11.7254 17.8098 11.8716C17.7393 12.0178 17.6999 12.1769 17.6938 12.3391C17.6877 12.5013 17.7152 12.663 17.7745 12.814C17.8338 12.9651 17.9236 13.1023 18.0384 13.2171C18.1531 13.3318 18.2903 13.4216 18.4414 13.4809C18.5924 13.5402 18.7541 13.5677 18.9163 13.5616C19.0785 13.5556 19.2376 13.5161 19.3839 13.4457C19.5301 13.3752 19.6602 13.2754 19.766 13.1524L20.6026 12.3159L21.4794 13.1927C21.5903 13.3086 21.7237 13.4006 21.8714 13.4632C22.019 13.5257 22.1779 13.5575 22.3383 13.5566C22.4987 13.5556 22.6572 13.522 22.8041 13.4577C22.951 13.3934 23.0833 13.2998 23.1928 13.1826C23.3053 13.0711 23.3945 12.9385 23.4554 12.7923C23.5163 12.6461 23.5477 12.4893 23.5477 12.331C23.5477 12.1726 23.5163 12.0158 23.4554 11.8697C23.3945 11.7235 23.3053 11.5908 23.1928 11.4793Z" fill="#141414"/>
</svg>
