<svg version="1.1" viewBox="0 0 24 24" xmlns="http://www.w3.org/2000/svg" xmlns:xlink="http://www.w3.org/1999/xlink" x="0px" y="0px"  style="fill: transparent;">
<path fill-rule="evenodd" clip-rule="evenodd" d="M24.9945 12C24.9945 18.6274 19.6219 24 12.9945 24C6.36709 24 0.994507 18.6274 0.994507 12C0.994507 5.37258 6.36709 0 12.9945 0C19.6219 0 24.9945 5.37258 24.9945 12ZM15.3565 8.61158C15.8245 8.14229 15.8234 7.38249 15.3541 6.91453C14.8848 6.44656 14.125 6.44764 13.6571 6.91693L9.43306 11.1529C8.96603 11.6213 8.96603 12.3792 9.43306 12.8476L13.6571 17.0836C14.125 17.5529 14.8848 17.554 15.3541 17.086C15.8234 16.618 15.8245 15.8582 15.3565 15.3889L11.9774 12.0003L15.3565 8.61158Z" fill="#141414"/>
</svg>
