<svg version="1.1" viewBox="0 0 24 24" xmlns="http://www.w3.org/2000/svg" xmlns:xlink="http://www.w3.org/1999/xlink" x="0px" y="0px"  style="fill: transparent;">
<path fill-rule="evenodd" clip-rule="evenodd" d="M23.034 5.83212C21.1332 5.64204 19.2223 5.49197 17.3015 5.39193L17.0614 3.93129C17.0614 3.93129 17.0514 3.87126 17.0514 3.84125C16.9713 3.36104 16.8413 2.57069 16.321 1.97043C15.7008 1.25011 14.7604 1 13.5998 1H10.4184C9.27795 1 8.32753 1.24011 7.70726 1.95042C7.17702 2.55068 7.04697 3.35103 6.96693 3.85125C6.96693 3.88127 6.95693 3.90127 6.95693 3.93129L6.72683 5.3319C5.63635 5.40193 4.54587 5.48197 3.46539 5.59202L0.994308 5.83212C0.394045 5.89215 -0.0461487 6.42238 0.00387323 7.02265C0.0538952 7.62291 0.594133 8.0631 1.1944 8.00308L2.63503 7.86302L3.38536 19.3481V19.3681C3.41537 19.8283 3.44538 20.3385 3.54543 20.8187C3.64547 21.3189 3.82555 21.8692 4.19571 22.3494C4.97606 23.3698 6.29664 23.75 8.09743 23.75H15.8808C17.6816 23.75 19.0022 23.3698 19.7826 22.3494C20.1527 21.8692 20.3328 21.3189 20.4328 20.8187C20.5329 20.3385 20.5629 19.8283 20.5929 19.3681V19.3481L21.3432 7.86302C21.8335 7.91304 22.3137 7.95305 22.8039 8.00308C23.4042 8.0631 23.9344 7.63291 23.9944 7.03265C24.0544 6.43239 23.6243 5.89215 23.024 5.83212H23.034ZM9.10787 4.28144C9.1579 3.98131 9.18791 3.78122 9.23793 3.62115C9.28795 3.47109 9.32797 3.41106 9.34798 3.39105C9.34798 3.37104 9.51805 3.18096 10.4184 3.18096H13.5998C14.4802 3.18096 14.6503 3.38105 14.6703 3.40105C14.6903 3.42106 14.7303 3.48109 14.7804 3.64116C14.8304 3.80123 14.8604 3.99131 14.9104 4.28144L15.0705 5.29189C13.6399 5.24186 12.1992 5.22185 10.7686 5.22185C10.1683 5.22185 9.55807 5.22185 8.95781 5.24186L9.10787 4.28144Z" fill="#141414"/>
</svg>
