<svg version="1.1" viewBox="0 0 24 24" xmlns="http://www.w3.org/2000/svg" xmlns:xlink="http://www.w3.org/1999/xlink" x="0px" y="0px"  style="fill: transparent;">
<path fill-rule="evenodd" clip-rule="evenodd" d="M7.27273 1.09091C7.27273 0.488417 7.76114 0 8.36364 0H14.9091C15.5116 0 16 0.488417 16 1.09091C16 1.6934 15.5116 2.18182 14.9091 2.18182H8.36364C7.76114 2.18182 7.27273 1.6934 7.27273 1.09091ZM11.6364 4.90909C6.96977 4.90909 3.18182 8.69704 3.18182 13.3636C3.18182 18.0302 6.96977 21.8182 11.6364 21.8182C16.303 21.8182 20.0909 18.0302 20.0909 13.3636C20.0909 8.69704 16.303 4.90909 11.6364 4.90909ZM1 13.3636C1 7.49205 5.76478 2.72727 11.6364 2.72727C17.5079 2.72727 22.2727 7.49205 22.2727 13.3636C22.2727 19.2352 17.5079 24 11.6364 24C5.76478 24 1 19.2352 1 13.3636ZM11.6364 6.54545C12.2389 6.54545 12.7273 7.03387 12.7273 7.63636V13.0909C12.7273 13.6934 12.2389 14.1818 11.6364 14.1818C11.0339 14.1818 10.5455 13.6934 10.5455 13.0909V7.63636C10.5455 7.03387 11.0339 6.54545 11.6364 6.54545Z" fill="#141414"/>
</svg>
