<svg version="1.1" viewBox="0 0 24 24" xmlns="http://www.w3.org/2000/svg" xmlns:xlink="http://www.w3.org/1999/xlink" x="0px" y="0px"  style="fill: transparent;">
<path fill-rule="evenodd" clip-rule="evenodd" d="M11.5182 0.22168C5.27959 0.22168 0.222168 5.2791 0.222168 11.5177C0.222168 17.7564 5.27959 22.8138 11.5182 22.8138C14.0956 22.8138 16.4714 21.9506 18.3722 20.4976L21.775 23.8915C22.2172 24.3326 22.9332 24.3316 23.3743 23.8894C23.8154 23.4472 23.8144 22.7311 23.3722 22.2901L20.0243 18.9509C21.7616 16.9644 22.8143 14.364 22.8143 11.5177C22.8143 5.2791 17.7569 0.22168 11.5182 0.22168ZM2.48397 11.5177C2.48397 6.52826 6.52875 2.48348 11.5182 2.48348C16.5077 2.48348 20.5525 6.52826 20.5525 11.5177C20.5525 16.5072 16.5077 20.552 11.5182 20.552C6.52875 20.552 2.48397 16.5072 2.48397 11.5177Z" fill="#141414"/>
</svg>
